<?xml version="1.0" encoding="utf-8"?>
<!-- Generator: Adobe Illustrator 24.0.3, SVG Export Plug-In . SVG Version: 6.00 Build 0)  -->
<svg version="1.1" id="Capa_1" xmlns="http://www.w3.org/2000/svg" xmlns:xlink="http://www.w3.org/1999/xlink" x="0px" y="0px"
	 viewBox="0 0 1370.7 395.1" style="enable-background:new 0 0 1370.7 395.1;" xml:space="preserve">
<style type="text/css">
	.st0{fill:#5C554A;}
	.st1{fill:#7A7063;}
	.st2{fill:#3C3832;}
	.st3{fill:none;stroke:#4D4D4D;stroke-miterlimit:10;}
	.st4{fill:none;stroke:#4D4D4D;stroke-miterlimit:10;stroke-dasharray:6.2229,6.2229;}
	.st5{fill:none;stroke:#4D4D4D;stroke-miterlimit:10;stroke-dasharray:5.9593,5.9593;}
	.st6{fill:none;stroke:#4D4D4D;stroke-miterlimit:10;stroke-dasharray:6;}
</style>
<path class="st0" d="M262.1,319.6l21.6-17.7c0.8-0.6,1.7-1.1,2.6-1.3c3.6-0.8,12.7-3,16.7-6.3c4.6-3.8,34.4-28,38.9-31.6
	c0.4-0.3,0.8-0.6,1.2-0.8l31-14.7c0.8-0.4,1.7-0.6,2.7-0.6h10.8c1.2,0,2.3-0.3,3.3-0.9l30.5-19c0.6-0.4,1.3-0.7,2-0.8l22.1-4.6
	c0.5-0.1,0.9-0.3,1.4-0.5l24.6-11.6c1.6-0.8,2.8-2.2,3.3-3.9c0.7-2.4,1.9-5.6,3.5-5.6c2,0,14.1-8.4,18.3-11.3
	c0.9-0.7,1.7-1.6,2.1-2.6l3.2-7.6c0.6-1.5,1.9-2.7,3.4-3.3l35.6-14.4c0.4-0.2,0.9-0.4,1.3-0.7l24.9-17.7l21.4-15.3
	c1.1-0.8,2.3-1.2,3.6-1.2h7c2.5,0,4.8-1.5,5.7-3.8l6.3-15.2c0.2-0.5,0.4-0.9,0.7-1.3l10.4-14.1c1.8-2.5,5.1-3.2,7.9-1.8
	c7.3,3.8,20.9,11.1,23.3,14c1.5,1.9,5.3,2.9,9,3.5s7-2.3,7.1-6c0.1-3.1,6.2-6.5,6.2-6.5c8.4-0.7,28.2,8.8,33.9,11.6
	c1,0.5,2.1,0.7,3.3,0.6l18.1-1.4c0.5,0,1,0,1.5,0.1c3,0.5,14.5,2.3,17.4,2.3c2.6,0,17.5,2.6,23.6,3.6c1.7,0.3,3.5-0.1,4.8-1.2
	c4.6-3.5,15.6-11.5,20.1-11.5c5.8,0,22.2-11.5,22.2-11.5l13.2-9.6c1-0.7,2.3-1.2,3.6-1.2c5.4-0.1,19.9,0.1,21.9,4.2
	c2.5,4.9,14.8,18.1,17.3,28.8s13.2,18.9,13.2,18.9l21.1,18c0.7,0.6,1.5,1,2.4,1.3l9,2.4c1.3,0.3,2.4,1.1,3.2,2.1l5.3,6.4
	c0.6,0.7,1.4,1.3,2.2,1.7c2.7,1.2,8.5,3.3,11,0.2c2.9-3.7,15.1-7.3,17.6-8.1c0.3-0.1,0.6-0.2,1-0.2l12-1.5c0.4-0.1,0.9-0.1,1.3,0
	c2.8,0.3,12.9,1.6,15.8,6.5c3.1,5.5,26.3,31.7,28.6,34.3c0.1,0.1,0.2,0.3,0.4,0.5l10.1,13.9c1.7,2.3,4.8,3.2,7.4,2.1l3.6-1.5
	c1.2-0.5,2.1-1.3,2.8-2.3c2.9-4.4,11.1-16.7,13.8-17.3c3-0.7,10,4.6,11.3,5.6c0.2,0.1,0.3,0.2,0.5,0.4c1.7,1,10,5.9,13.7,1.5
	c3-3.6,9.4-4.6,12.7-4.8c1.3-0.1,2.6,0.2,3.7,0.9l12.8,7.8c0.2,0.2,0.5,0.3,0.7,0.5l8.7,7.2l10.9,8.2c1.4,1.1,3.2,1.5,4.9,1.1l2-0.4
	c2.2-0.4,4.4,0.3,5.8,1.9l0.9,1c2.3,2.5,6.2,2.8,8.7,0.5l7.4-6.6c1.7-1.5,4.1-2,6.3-1.2l31.1,11.5c2,0.7,3.4,2.4,3.9,4.4
	c1,4.3,3.4,12,8.4,18.2c6.9,8.4,65.1,36.6,73.8,40.8c0.7,0.3,1.4,0.8,1.9,1.4l28.2,31.1c1.4,1.5,1.9,3.6,1.4,5.6l-2.2,9.3
	c-0.7,2.8-3.2,4.8-6,4.8h-1050c-5.5,0-8.3-6.5-4.5-10.5l6.2-6.5C261.7,320,261.9,319.8,262.1,319.6z"/>
<path class="st1" d="M205.8,290.7l63-47l22.4-4.3l53.4-51.2l38.4-14.9l21.4-4.8c0,0,64.1-9.4,76.9-32.9c0,0,50.7-11.9,56.6-11.9
	s38.4,4.8,41.6,5.9c3.2,1.1,20.3,4.4,23.5,4.8c22.1,2.7,21.9-0.5,21.9-0.5s10.1-4.3,11.7-3.2c1.6,1.1,12.8,5.9,12.8,5.9l46.4,19.2
	l21.9,4.3l57.3,17.7c0,0,61,38,67.4,55.1s61.9,53.8,61.9,53.8l31.5,49.4L169,338.2L205.8,290.7z"/>
<path class="st2" d="M135.5,314l30.3-19.4l6.9-1l5.9-7.7l2.8-2.2h5.5l24.2-17.6l3.7-2.5l5.6-5.5l6.6-1.5l4.9-1l6.9,2.5h6.5l6.3,3.5
	l3.3,0.7l4.5,0.5l17.7-8.5l6.7-4.6h7.9l7.9-3.8h8.3l13.8,5.7l24.4,22.6l4.7,0.5l24.4,22.6c0,0,8.7,8.4,10.2,13.7
	c0.5,1.7,16.3,10.5,19.1,10.9c4.8,0.7,6.4,16.3,6.4,16.3l-48.4-0.1l0,0H215.6l-90.5,0.3l0,0l3.9-15.9L135.5,314z"/>
<g>
	<g>
		<line class="st3" x1="146.3" y1="244.7" x2="149.3" y2="244.7"/>
		<line class="st4" x1="155.5" y1="244.7" x2="301.8" y2="244.7"/>
		<line class="st3" x1="304.9" y1="244.7" x2="307.9" y2="244.7"/>
	</g>
</g>
<g>
	<g>
		<line class="st3" x1="152.8" y1="122.1" x2="155.8" y2="122.1"/>
		<line class="st5" x1="161.8" y1="122.1" x2="611.7" y2="122.1"/>
		<line class="st3" x1="614.7" y1="122.1" x2="617.7" y2="122.1"/>
	</g>
</g>
<g>
	<g>
		<path d="M26.5,124.4v-1.3l4.7-5.2c0.6-0.7,1-1.1,1.3-1.6c0.3-0.4,0.6-0.9,0.7-1.2c0.1-0.3,0.2-0.8,0.2-1.1c0-0.7-0.2-1.3-0.7-1.8
			s-1-0.8-1.9-0.8c-0.9,0-1.4,0.2-2,0.8c-0.6,0.6-0.7,1.2-0.7,2.1h-1.8v-0.1c0-0.8,0.1-1.6,0.6-2.2c0.3-0.7,0.9-1.2,1.6-1.6
			c0.7-0.3,1.6-0.6,2.4-0.6c0.9,0,1.7,0.2,2.3,0.6c0.7,0.3,1.1,0.8,1.4,1.4c0.3,0.7,0.6,1.2,0.6,2c0,0.6-0.1,1-0.3,1.6
			s-0.6,1-0.9,1.6c-0.3,0.6-0.9,1.1-1.4,1.7l-3.8,4.1l0,0h5l0.1-1.7h1.7v3.1h-9.1V124.4z"/>
		<path d="M42.1,124.4v-1.2l1.6-0.2v-1.8h-6.3v-1.1l6.2-9.9h2v9.5h2v1.6h-2v1.8l1.6,0.2v1.2H42.1z M39.3,119.6h4.3v-6.7h-0.1
			l-0.2,0.6L39.3,119.6z"/>
		<path d="M54,124.6c-1.4,0-2.4-0.4-3.3-1.4s-1.2-2.3-1.2-4.2v-3.3c0-1.8,0.4-3.2,1.2-4.2c0.8-1,1.9-1.4,3.3-1.4
			c1.4,0,2.6,0.4,3.3,1.4s1.2,2.3,1.2,4.2v3.3c0,1.8-0.4,3.2-1.2,4.2C56.5,124.1,55.4,124.6,54,124.6z M54,123.1
			c0.9,0,1.4-0.3,1.9-0.9c0.4-0.6,0.7-1.6,0.7-2.8v-4.2c0-1.2-0.2-2.1-0.7-2.8s-1.1-0.9-2-0.9c-0.9,0-1.4,0.3-1.9,0.9
			s-0.7,1.6-0.7,2.8v4.2c0,1.2,0.2,2.1,0.7,2.8C52.5,122.7,53.1,123.1,54,123.1z"/>
		<path d="M64.7,124.6c-0.8,0-1.6-0.1-2.1-0.4c-0.6-0.3-1.1-0.8-1.4-1.3c-0.3-0.6-0.6-1.3-0.6-2.1v-0.1h1.8c0,0.8,0.2,1.3,0.7,1.8
			s1,0.7,1.8,0.7c0.8,0,1.4-0.3,1.9-0.9c0.4-0.6,0.7-1.3,0.7-2.3c0-0.9-0.2-1.7-0.7-2.2s-1.1-0.9-1.9-0.9c-0.8,0-1.3,0.1-1.7,0.3
			c-0.3,0.2-0.6,0.6-0.8,1l-1.6-0.1l0.8-7.8h7.6v2.8h-1.4l-0.2-1.1h-4.2l-0.4,4c0.2-0.1,0.4-0.3,0.7-0.4c0.2-0.1,0.4-0.2,0.8-0.3
			c0.3-0.1,0.6-0.1,0.9-0.1c0.9,0,1.7,0.2,2.2,0.6c0.6,0.3,1.1,0.9,1.4,1.7s0.6,1.6,0.6,2.6c0,1-0.2,1.8-0.6,2.4
			c-0.3,0.7-0.9,1.2-1.6,1.7C66.5,124.4,65.7,124.6,64.7,124.6z"/>
		<path d="M76,124.4v-1.2l1.6-0.2v-7.6l-1.6-0.2v-1.3h3.3l0.1,1.3c0.3-0.6,0.8-0.9,1.3-1.1c0.6-0.2,1.1-0.4,1.9-0.4
			c0.8,0,1.3,0.1,1.8,0.4c0.4,0.3,0.9,0.8,1.1,1.4c0.3-0.6,0.8-1.1,1.3-1.4c0.6-0.3,1.2-0.6,1.9-0.6c1.1,0,1.9,0.3,2.6,1.1
			c0.7,0.8,0.9,1.9,0.9,3.3v4.8l1.6,0.2v1.2h-5.1v-1.2l1.6-0.2v-4.9c0-1-0.2-1.8-0.6-2.2c-0.3-0.4-0.9-0.7-1.6-0.7
			c-0.7,0-1.2,0.2-1.7,0.7s-0.7,1.1-0.7,1.8v5.2l1.6,0.2v1.2h-5.1v-1.2l1.6-0.2v-4.9c0-1-0.2-1.7-0.6-2.2c-0.3-0.4-0.9-0.7-1.6-0.7
			c-0.6,0-1.1,0.1-1.4,0.3c-0.3,0.2-0.7,0.6-0.9,1v6.3l1.6,0.2v1.2H76V124.4z"/>
		<path d="M99.6,124.6c-0.7,0-1.3-0.1-2-0.2c-0.7-0.1-1.2-0.3-2-0.7v-2.6H97l0.3,1.6c0.3,0.1,0.7,0.2,1.1,0.3
			c0.3,0.1,0.7,0.1,1.1,0.1c0.8,0,1.3-0.1,1.7-0.4c0.3-0.3,0.6-0.7,0.6-1.1s-0.2-0.8-0.6-1.1c-0.3-0.3-1-0.6-1.9-0.8
			c-1.2-0.3-2.2-0.7-2.8-1.2c-0.6-0.4-0.9-1.1-0.9-2c0-0.6,0.1-1.1,0.4-1.6c0.3-0.4,0.8-0.8,1.3-1.1s1.3-0.4,2.1-0.4
			s1.4,0.1,2.1,0.2c0.7,0.1,1.1,0.4,1.4,0.8l0.1,2.4h-1.4l-0.3-1.4c-0.2-0.2-0.4-0.3-0.8-0.4c-0.3-0.1-0.7-0.1-1.1-0.1
			c-0.6,0-1.1,0.1-1.4,0.4c-0.3,0.3-0.6,0.7-0.6,1c0,0.2,0,0.4,0.1,0.7c0.1,0.2,0.3,0.3,0.7,0.4c0.3,0.1,0.8,0.3,1.3,0.4
			c1.4,0.3,2.4,0.8,3.1,1.3c0.7,0.6,0.9,1.2,0.9,2c0,0.9-0.3,1.7-1,2.2C102,124.3,101,124.6,99.6,124.6z"/>
		<path d="M105.9,124.4v-2h1.9v2H105.9z"/>
		<path d="M110,124.4v-1.2l1.6-0.2v-7.6l-1.6-0.2v-1.3h3.3l0.1,1.6c0.3-0.6,0.8-1,1.3-1.3c0.6-0.3,1.1-0.4,1.8-0.4
			c1.1,0,2,0.3,2.7,1c0.7,0.7,0.9,1.7,0.9,3.1v5.1l1.6,0.2v1.2h-5.1v-1.2l1.6-0.2v-5.1c0-0.9-0.2-1.6-0.6-2
			c-0.3-0.4-0.9-0.6-1.7-0.6c-0.6,0-1,0.1-1.4,0.4c-0.4,0.3-0.8,0.7-1,1.1v6.2l1.6,0.2v1.2H110z"/>
		<path d="M123.9,124.4v-2h1.9v2H123.9z"/>
		<path d="M128,124.4v-1.2l1.6-0.2v-7.6l-1.6-0.2v-1.3h3.3l0.1,1.3c0.3-0.6,0.8-0.9,1.3-1.1c0.6-0.2,1.1-0.4,1.9-0.4
			c0.8,0,1.3,0.1,1.8,0.4c0.4,0.3,0.9,0.8,1.1,1.4c0.3-0.6,0.8-1.1,1.3-1.4c0.6-0.3,1.2-0.6,1.9-0.6c1.1,0,1.9,0.3,2.6,1.1
			c0.7,0.8,0.9,1.9,0.9,3.3v4.8l1.6,0.2v1.2h-5.1v-1.2l1.6-0.2v-4.9c0-1-0.2-1.8-0.6-2.2s-0.9-0.7-1.6-0.7c-0.7,0-1.2,0.2-1.7,0.7
			c-0.4,0.4-0.7,1.1-0.7,1.8v5.2l1.6,0.2v1.2h-5.1v-1.2l1.6-0.2v-4.9c0-1-0.2-1.7-0.6-2.2c-0.3-0.4-0.9-0.7-1.6-0.7
			c-0.6,0-1.1,0.1-1.4,0.3c-0.3,0.2-0.7,0.6-0.9,1v6.3l1.6,0.2v1.2H128V124.4z"/>
	</g>
</g>
<g>
	<g>
		<path d="M29.5,247.8c-0.4,0-1,0-1.6-0.1c-0.6-0.1-1-0.2-1.4-0.4l0.3-1.4c0.4,0.2,0.8,0.3,1.2,0.4c0.4,0.1,0.9,0.1,1.4,0.1
			c0.9,0,1.7-0.3,2.2-1.1c0.6-0.7,0.8-1.9,0.9-3.4l0,0c-0.2,0.4-0.7,0.8-1.1,1c-0.4,0.2-1,0.3-1.6,0.3c-0.9,0-1.7-0.2-2.4-0.6
			c-0.8-0.3-1.2-0.9-1.6-1.7s-0.6-1.7-0.6-2.7s0.2-1.9,0.6-2.7s0.9-1.3,1.6-1.8c0.7-0.4,1.4-0.7,2.2-0.7c1,0,1.9,0.2,2.6,0.7
			c0.7,0.4,1.2,1,1.7,1.9s0.6,1.8,0.6,3v2.6c0,1.4-0.2,2.7-0.7,3.7s-1,1.7-1.8,2.2C31.2,247.7,30.5,247.8,29.5,247.8z M29.8,241.6
			c0.7,0,1.3-0.1,1.8-0.4c0.4-0.3,0.8-0.7,1-1.2v-1.6c0-1.2-0.2-2.2-0.7-2.9c-0.4-0.7-1.2-1-2.1-1c-0.4,0-0.9,0.1-1.3,0.4
			c-0.3,0.3-0.7,0.7-0.9,1.2c-0.2,0.6-0.3,1.1-0.3,1.9c0,0.7,0.1,1.3,0.3,1.8c0.2,0.6,0.4,0.9,0.9,1.2
			C28.9,241.4,29.2,241.6,29.8,241.6z"/>
		<path d="M41.7,247.8c-0.9,0-1.8-0.2-2.4-0.7c-0.7-0.4-1.3-1.1-1.7-2c-0.3-0.9-0.7-1.9-0.7-3.1v-1.9c0-1.6,0.2-2.8,0.7-3.8
			s1.1-1.8,1.9-2.3c0.8-0.6,1.7-0.8,2.8-0.8c0.4,0,1,0,1.4,0.1s0.9,0.2,1.2,0.4l-0.3,1.4c-0.3-0.1-0.7-0.2-1-0.3
			c-0.3-0.1-0.8-0.1-1.2-0.1c-1,0-1.8,0.3-2.3,1.1c-0.6,0.8-0.9,1.9-0.9,3.4l0,0c0.3-0.3,0.8-0.6,1.3-0.8c0.6-0.2,1.1-0.3,1.7-0.3
			c0.9,0,1.6,0.2,2.2,0.6c0.7,0.4,1.1,1,1.4,1.7c0.3,0.7,0.6,1.6,0.6,2.4c0,1-0.2,1.9-0.6,2.6c-0.3,0.7-0.9,1.3-1.6,1.8
			C43.6,247.7,42.6,247.8,41.7,247.8z M41.7,246.2c0.6,0,1-0.1,1.3-0.4c0.3-0.3,0.7-0.8,0.9-1.2c0.2-0.4,0.3-1.1,0.3-1.8
			c0-0.9-0.2-1.7-0.7-2.3c-0.4-0.7-1.1-0.9-2-0.9c-0.4,0-0.8,0.1-1.2,0.2c-0.3,0.1-0.7,0.3-0.9,0.6c-0.2,0.2-0.4,0.4-0.7,0.8v1.1
			c0,1.3,0.2,2.3,0.8,3C40.1,245.9,40.9,246.2,41.7,246.2z"/>
		<path d="M52,247.8c-0.8,0-1.6-0.1-2.1-0.4c-0.6-0.3-1.1-0.8-1.4-1.3c-0.3-0.6-0.6-1.3-0.6-2.1v-0.1h1.8c0,0.8,0.2,1.3,0.7,1.8
			c0.4,0.4,1,0.7,1.8,0.7c0.8,0,1.4-0.3,1.9-0.9c0.4-0.6,0.7-1.3,0.7-2.3c0-0.9-0.2-1.7-0.7-2.2c-0.4-0.6-1.1-0.9-1.9-0.9
			c-0.8,0-1.3,0.1-1.7,0.3c-0.3,0.2-0.6,0.6-0.8,1l-1.6-0.1l0.8-7.8h7.5v2.8h-1.4l-0.2-1.1h-4.2l-0.4,4c0.2-0.1,0.4-0.3,0.7-0.4
			s0.4-0.2,0.8-0.3c0.3-0.1,0.6-0.1,0.9-0.1c0.9,0,1.7,0.2,2.2,0.6c0.6,0.3,1.1,0.9,1.4,1.7s0.6,1.6,0.6,2.6c0,1-0.2,1.8-0.6,2.4
			c-0.3,0.7-0.9,1.2-1.6,1.7C53.8,247.6,53,247.8,52,247.8z"/>
		<path d="M63.2,247.6v-1.2l1.6-0.2v-7.6l-1.6-0.2v-1.2h3.3l0.1,1.3c0.3-0.6,0.8-0.9,1.3-1.1s1.1-0.4,1.9-0.4c0.8,0,1.3,0.1,1.8,0.4
			s0.9,0.8,1.1,1.4c0.3-0.6,0.8-1.1,1.3-1.4c0.6-0.3,1.2-0.6,1.9-0.6c1.1,0,1.9,0.3,2.6,1.1c0.7,0.8,0.9,1.9,0.9,3.3v4.8l1.6,0.2
			v1.2h-5.1v-1.1l1.6-0.2v-4.9c0-1-0.2-1.8-0.6-2.2c-0.3-0.4-0.9-0.7-1.6-0.7c-0.7,0-1.2,0.2-1.7,0.7s-0.7,1.1-0.7,1.8v5.2l1.6,0.2
			v1.2h-5.1v-1.1l1.6-0.2v-4.9c0-1-0.2-1.7-0.6-2.2c-0.3-0.4-0.9-0.7-1.6-0.7c-0.6,0-1.1,0.1-1.4,0.3c-0.3,0.2-0.7,0.6-0.9,1v6.3
			l1.6,0.2v1.2h-4.9V247.6z"/>
		<path d="M86.7,247.8c-0.7,0-1.3-0.1-2-0.2c-0.7-0.1-1.2-0.3-2-0.7v-2.6h1.4l0.3,1.6c0.3,0.1,0.7,0.2,1.1,0.3
			c0.3,0.1,0.7,0.1,1.1,0.1c0.8,0,1.3-0.1,1.7-0.4c0.3-0.3,0.6-0.7,0.6-1.1c0-0.4-0.2-0.8-0.6-1.1c-0.3-0.3-1-0.6-1.9-0.8
			c-1.2-0.3-2.2-0.7-2.8-1.2c-0.6-0.4-0.9-1.1-0.9-2c0-0.6,0.1-1.1,0.4-1.6c0.3-0.4,0.8-0.8,1.3-1.1c0.6-0.3,1.3-0.4,2.1-0.4
			s1.4,0.1,2.1,0.2c0.7,0.1,1.1,0.4,1.4,0.8l0.1,2.4H89l-0.3-1.4c-0.2-0.2-0.4-0.3-0.8-0.4s-0.7-0.1-1.1-0.1c-0.6,0-1.1,0.1-1.4,0.4
			c-0.3,0.3-0.6,0.7-0.6,1c0,0.2,0,0.4,0.1,0.7s0.3,0.3,0.7,0.4s0.8,0.3,1.3,0.4c1.4,0.3,2.4,0.8,3.1,1.3c0.7,0.6,0.9,1.2,0.9,2
			c0,0.9-0.3,1.7-1,2.2C89.2,247.5,88.2,247.8,86.7,247.8z"/>
		<path d="M93.2,247.6v-2h1.9v2H93.2z"/>
		<path d="M97.3,247.6v-1.2l1.6-0.2v-7.6l-1.6-0.2v-1.2h3.3l0.1,1.6c0.3-0.6,0.8-1,1.3-1.3s1.1-0.4,1.8-0.4c1.1,0,2,0.3,2.7,1
			c0.7,0.7,0.9,1.7,0.9,3.1v5.1l1.6,0.2v1.2h-5.1v-1.2l1.6-0.2V241c0-0.9-0.2-1.6-0.6-2c-0.3-0.4-0.9-0.6-1.7-0.6
			c-0.6,0-1,0.1-1.4,0.4c-0.4,0.3-0.8,0.7-1,1.1v6.2l1.6,0.2v1.2h-5V247.6z"/>
		<path d="M111.1,247.6v-2h1.9v2H111.1z"/>
		<path d="M115.2,247.6v-1.2l1.6-0.2v-7.6l-1.6-0.2v-1.2h3.3l0.1,1.3c0.3-0.6,0.8-0.9,1.3-1.1s1.1-0.4,1.9-0.4s1.3,0.1,1.8,0.4
			s0.9,0.8,1.1,1.4c0.3-0.6,0.8-1.1,1.3-1.4s1.2-0.6,1.9-0.6c1.1,0,1.9,0.3,2.6,1.1c0.7,0.8,0.9,1.9,0.9,3.3v4.8l1.6,0.2v1.2h-5.1
			v-1.1l1.6-0.2v-4.9c0-1-0.2-1.8-0.6-2.2c-0.3-0.4-0.9-0.7-1.6-0.7c-0.7,0-1.2,0.2-1.7,0.7s-0.7,1.1-0.7,1.8v5.2l1.6,0.2v1.2h-5.1
			v-1.1l1.6-0.2v-4.9c0-1-0.2-1.7-0.6-2.2c-0.3-0.4-0.9-0.7-1.6-0.7c-0.6,0-1.1,0.1-1.4,0.3c-0.3,0.2-0.7,0.6-0.9,1v6.3l1.6,0.2v1.2
			h-4.9V247.6z"/>
	</g>
</g>
<g>
	<g>
		<path d="M154.5,58.8l-5.6-15l-1.3-0.2v-1.4h5.2v1.4l-1.6,0.2l3.7,10.6l0.3,1.3h0.1l0.4-1.3l3.9-10.6l-1.7-0.2v-1.4h5.2v1.4
			l-1.3,0.2l-5.6,15H154.5z"/>
		<path d="M170.5,59c-1.1,0-2.1-0.2-3-0.8c-0.8-0.6-1.4-1.2-1.9-2.2c-0.4-1-0.7-2-0.7-3.2v-0.2c0-1.2,0.2-2.3,0.7-3.2
			c0.4-1,1.1-1.7,1.9-2.2s1.8-0.8,2.9-0.8s2.1,0.2,3,0.8c0.8,0.6,1.4,1.3,1.9,2.2c0.4,0.9,0.7,2,0.7,3.2v0.2c0,1.2-0.2,2.3-0.7,3.2
			c-0.4,1-1.1,1.7-1.9,2.2S171.6,59,170.5,59z M170.5,57.2c0.7,0,1.3-0.2,1.8-0.6c0.4-0.4,0.9-0.9,1.1-1.6c0.2-0.7,0.3-1.4,0.3-2.3
			v-0.2c0-0.9-0.1-1.7-0.3-2.3s-0.7-1.2-1.1-1.6c-0.4-0.4-1.1-0.6-1.8-0.6s-1.3,0.2-1.8,0.6c-0.4,0.4-0.9,0.9-1.1,1.6
			c-0.2,0.7-0.3,1.4-0.3,2.3v0.2c0,0.9,0.1,1.7,0.3,2.3s0.6,1.2,1.1,1.6C169.1,57,169.7,57.2,170.5,57.2z"/>
		<path d="M177.6,58.8v-1.4l1.9-0.3V42.6l-1.9-0.3v-1.4h4.1v16l1.9,0.3v1.4h-6V58.8z"/>
		<path d="M190.7,59c-1.1,0-2.1-0.2-2.9-0.8s-1.4-1.2-1.9-2.2c-0.4-1-0.7-2-0.7-3.2v-0.4c0-1.2,0.2-2.2,0.7-3.1
			c0.4-0.9,1.1-1.7,1.9-2.2c0.8-0.6,1.8-0.8,3-0.8c1,0,1.9,0.1,2.7,0.4c0.8,0.3,1.3,0.8,1.9,1.3l0.1,3h-2l-0.3-2.1
			c-0.2-0.2-0.6-0.4-1-0.7c-0.4-0.2-0.9-0.2-1.3-0.2c-0.7,0-1.2,0.2-1.8,0.6c-0.6,0.4-0.9,0.9-1.2,1.6c-0.3,0.7-0.4,1.4-0.4,2.2v0.4
			c0,0.9,0.1,1.7,0.4,2.3c0.2,0.7,0.7,1.2,1.1,1.6c0.4,0.3,1.1,0.6,1.8,0.6c0.8,0,1.4-0.2,1.9-0.7c0.4-0.4,0.8-1,0.9-1.7h2V55
			c0,0.7-0.2,1.3-0.7,2c-0.3,0.7-0.9,1.1-1.7,1.4C192.6,58.8,191.7,59,190.7,59z"/>
		<path d="M201.3,59c-1.3,0-2.2-0.3-2.9-0.9c-0.7-0.7-1-1.6-1-2.7c0-0.8,0.2-1.4,0.7-2c0.4-0.6,1-1,1.9-1.3c0.8-0.3,1.8-0.4,2.9-0.4
			h2.2v-1.2c0-0.8-0.2-1.3-0.7-1.8c-0.4-0.4-1.1-0.7-1.9-0.7c-0.6,0-1,0.1-1.3,0.2c-0.3,0.1-0.8,0.3-1,0.6l-0.2,1.7h-1.8v-2.8
			c0.6-0.4,1.2-0.8,1.9-1c0.8-0.2,1.6-0.3,2.4-0.3c1.4,0,2.7,0.3,3.6,1.1c0.9,0.8,1.2,1.8,1.2,3.1v5.9c0,0.1,0,0.3,0,0.4
			c0,0.1,0,0.3,0,0.4l1.2,0.1v1.4h-3.2c-0.1-0.3-0.1-0.7-0.1-0.9s-0.1-0.6-0.1-0.8c-0.4,0.6-1,1-1.7,1.3
			C202.7,58.8,202.1,59,201.3,59z M201.6,57.1c0.8,0,1.4-0.2,2-0.6c0.7-0.3,1.1-0.8,1.3-1.3V53h-2.3c-1,0-1.8,0.2-2.3,0.8
			c-0.6,0.4-0.8,1-0.8,1.7c0,0.6,0.2,1,0.6,1.2C200.5,56.9,201,57.1,201.6,57.1z M201.2,44l2.1-3.1h2.7V41l-3.1,3H201.2L201.2,44z"
			/>
		<path d="M210.2,58.8v-1.4l1.9-0.3v-8.8l-1.9-0.3v-1.4h3.9l0.1,1.9c0.4-0.7,0.9-1.1,1.6-1.6c0.7-0.3,1.3-0.6,2.1-0.6
			c1.3,0,2.3,0.4,3.1,1.2c0.8,0.8,1.1,2,1.1,3.6v6l1.9,0.3v1.4h-6v-1.4l1.9-0.3v-6c0-1.1-0.2-1.9-0.7-2.3c-0.4-0.4-1.1-0.7-2-0.7
			c-0.7,0-1.2,0.1-1.7,0.4c-0.4,0.3-0.9,0.8-1.2,1.2v7.2l1.9,0.3v1.4h-6V58.8z"/>
		<path d="M239,59c-1.7,0-3-0.3-4.1-1.1c-1.1-0.8-2-1.8-2.6-3c-0.6-1.2-0.9-2.7-0.9-4.3v-0.2c0-1.7,0.3-3.1,0.9-4.3
			c0.6-1.2,1.4-2.2,2.6-3s2.4-1.1,3.9-1.1c1.1,0,2,0.2,2.9,0.6c0.9,0.3,1.7,0.8,2.2,1.2v3.6h-1.8l-0.2-2.7c-0.2-0.2-0.6-0.3-0.9-0.4
			c-0.3-0.1-0.7-0.2-1-0.3c-0.3-0.1-0.8-0.1-1.2-0.1c-1.1,0-2,0.3-2.8,0.9c-0.8,0.6-1.3,1.3-1.7,2.3c-0.3,1-0.6,2.1-0.6,3.4v0.2
			c0,1.3,0.2,2.6,0.7,3.6c0.4,1,1,1.8,1.8,2.2c0.8,0.6,1.8,0.8,2.9,0.8c0.6,0,1-0.1,1.6-0.2c0.6-0.1,0.9-0.3,1.2-0.6l0.2-2.3h1.8
			v3.6c-0.7,0.3-1.3,0.7-2.2,0.9C240.8,58.9,239.9,59,239,59z"/>
		<path d="M245.8,58.8v-1.4l1.9-0.3V42.6l-1.9-0.3v-1.4h4.1V48c0.4-0.6,1-1,1.6-1.3c0.7-0.3,1.3-0.4,2-0.4c1.3,0,2.3,0.4,3.1,1.2
			c0.8,0.8,1.1,2,1.1,3.7v6l1.9,0.3v1.4h-6v-1.4l1.9-0.3v-6c0-1-0.2-1.8-0.7-2.2c-0.4-0.4-1.1-0.8-2-0.8c-0.7,0-1.2,0.1-1.7,0.4
			c-0.6,0.3-0.9,0.7-1.2,1.2v7.3l1.9,0.3v1.4h-6V58.8z"/>
		<path d="M265,59c-1.3,0-2.2-0.3-2.9-0.9c-0.7-0.7-1-1.6-1-2.7c0-0.8,0.2-1.4,0.7-2c0.4-0.6,1-1,1.9-1.3c0.8-0.3,1.8-0.4,2.9-0.4
			h2.2v-1.2c0-0.8-0.2-1.3-0.7-1.8c-0.4-0.4-1.1-0.7-1.9-0.7c-0.6,0-1,0.1-1.3,0.2s-0.8,0.3-1,0.6l-0.2,1.7h-1.8v-2.8
			c0.6-0.4,1.2-0.8,1.9-1c0.8-0.2,1.6-0.3,2.4-0.3c1.4,0,2.7,0.3,3.6,1.1c0.9,0.8,1.2,1.8,1.2,3.1v5.9c0,0.1,0,0.3,0,0.4
			c0,0.1,0,0.3,0,0.4l1.2,0.1v1.4H269c-0.1-0.3-0.1-0.7-0.1-0.9s-0.1-0.6-0.1-0.8c-0.4,0.6-1,1-1.7,1.3C266.5,58.8,265.8,59,265,59z
			 M265.3,57.1c0.8,0,1.4-0.2,2-0.6c0.7-0.3,1-0.8,1.3-1.3V53h-2.3c-1,0-1.8,0.2-2.3,0.8c-0.6,0.4-0.8,1-0.8,1.7
			c0,0.6,0.2,1,0.6,1.2C264.2,56.9,264.7,57.1,265.3,57.1z"/>
		<path d="M273.9,58.8v-1.4l1.9-0.3v-8.8l-1.9-0.3v-1.4h4.1V57l1.9,0.3v1.4H273.9z M275.7,43.3v-2.4h2.3v2.4H275.7z"/>
		<path d="M285.8,58.9c-0.9,0-1.7-0.2-2.2-0.8c-0.6-0.6-0.8-1.4-0.8-2.6v-7.5h-2v-1.7h2v-3h2.2v3h2.7v1.7H285v7.5
			c0,0.6,0.1,1,0.3,1.3c0.2,0.3,0.6,0.4,1,0.4c0.2,0,0.6,0,0.9-0.1c0.3,0,0.6-0.1,0.8-0.1l0.3,1.4c-0.3,0.1-0.8,0.2-1.2,0.2
			C286.6,58.9,286.1,58.9,285.8,58.9z"/>
		<path d="M295.4,59c-1.1,0-2.1-0.2-3-0.8s-1.4-1.2-2-2.2c-0.4-0.9-0.7-2-0.7-3.2v-0.6c0-1.2,0.2-2.2,0.8-3.1
			c0.4-0.9,1.1-1.7,1.9-2.2s1.7-0.8,2.7-0.8c1.1,0,2,0.2,2.8,0.7c0.8,0.4,1.3,1.1,1.7,1.9c0.3,0.8,0.6,1.8,0.6,2.9V53h-8v0.1
			c0,0.8,0.1,1.4,0.4,2.1c0.2,0.7,0.7,1.1,1.1,1.4c0.4,0.3,1.1,0.6,1.8,0.6c0.8,0,1.4-0.1,2-0.3c0.6-0.2,1.1-0.6,1.4-0.9l0.9,1.4
			c-0.4,0.4-1,0.8-1.8,1.1C297.3,58.8,296.4,59,295.4,59z M292.1,51.3h5.7V51c0-0.6-0.1-1.1-0.3-1.6c-0.2-0.4-0.6-0.9-0.9-1.1
			c-0.4-0.2-0.9-0.4-1.6-0.4c-0.6,0-1,0.1-1.3,0.4c-0.4,0.3-0.8,0.7-1,1.2C292.5,50.1,292.1,50.7,292.1,51.3L292.1,51.3z M293.6,44
			l2.1-3.1h2.7V41l-3.1,3H293.6L293.6,44z"/>
		<path d="M301.8,58.8v-1.4l1.9-0.3v-8.8l-1.9-0.3v-1.4h3.9l0.1,1.9c0.4-0.7,0.9-1.1,1.6-1.6c0.7-0.3,1.3-0.6,2.1-0.6
			c1.3,0,2.3,0.4,3.1,1.2c0.8,0.8,1.1,2,1.1,3.6v6l1.9,0.3v1.4h-6v-1.4l1.9-0.3v-6c0-1.1-0.2-1.9-0.7-2.3c-0.4-0.4-1.1-0.7-2-0.7
			c-0.7,0-1.2,0.1-1.7,0.4c-0.4,0.3-0.9,0.8-1.2,1.2v7.2l1.9,0.3v1.4h-6V58.8z"/>
	</g>
</g>
<g>
	<g>
		<path d="M225.3,373.7v-1.2l2.2-0.2v-10.7h-2.2v-1.2l4.1-0.9v12.8l2.2,0.2v1.2L225.3,373.7L225.3,373.7z"/>
		<path d="M237.9,373.9c-0.9,0-1.8-0.1-2.4-0.4c-0.7-0.3-1.2-0.8-1.7-1.3s-0.6-1.3-0.6-2.2c0-0.8,0.2-1.6,0.8-2.1
			c0.6-0.6,1.1-1.1,2-1.3c-0.7-0.2-1.2-0.7-1.7-1.2c-0.4-0.6-0.6-1.2-0.6-2c0-0.9,0.2-1.6,0.6-2.1c0.3-0.6,0.9-1,1.4-1.3
			s1.3-0.4,2.2-0.4c0.9,0,1.6,0.1,2.2,0.4c0.7,0.3,1.1,0.8,1.4,1.3c0.3,0.6,0.6,1.3,0.6,2.1c0,0.8-0.2,1.4-0.7,2
			c-0.4,0.6-1,1-1.7,1.2c0.8,0.3,1.4,0.8,2,1.3c0.6,0.6,0.8,1.3,0.8,2.1c0,0.9-0.2,1.7-0.6,2.2c-0.3,0.6-0.9,1.1-1.7,1.3
			C239.7,373.8,238.9,373.9,237.9,373.9z M237.9,372.5c0.6,0,1-0.1,1.4-0.3c0.4-0.2,0.8-0.6,1-0.9c0.2-0.3,0.3-0.9,0.3-1.3
			c0-0.6-0.1-1-0.3-1.3s-0.6-0.7-1-1c-0.4-0.3-0.9-0.3-1.4-0.3c-0.6,0-1,0.1-1.4,0.3c-0.4,0.2-0.7,0.6-1,0.9
			c-0.2,0.4-0.3,0.9-0.3,1.4c0,0.8,0.2,1.4,0.8,1.9C236.5,372.3,237.1,372.5,237.9,372.5z M237.9,365.7c0.4,0,0.9-0.1,1.2-0.3
			c0.3-0.2,0.7-0.4,0.8-0.9c0.1-0.4,0.3-0.8,0.3-1.2s-0.1-0.9-0.3-1.2c-0.2-0.3-0.4-0.7-0.8-0.9c-0.3-0.2-0.8-0.3-1.2-0.3
			c-0.7,0-1.2,0.2-1.7,0.7c-0.4,0.4-0.7,1-0.7,1.8s0.2,1.3,0.7,1.8C236.7,365.5,237.2,365.7,237.9,365.7z"/>
		<path d="M244.8,376.8l-1.1-0.8c0.3-0.4,0.6-1,0.7-1.4s0.2-1,0.2-1.6v-1.4h1.9v1.4c0,0.7-0.1,1.3-0.4,2
			C245.7,375.7,245.3,376.4,244.8,376.8z"/>
		<path d="M252.5,373.9c-0.8,0-1.6-0.1-2.1-0.4c-0.6-0.3-1.1-0.8-1.4-1.3c-0.3-0.6-0.6-1.3-0.6-2.1v-0.1h1.8c0,0.8,0.2,1.3,0.7,1.8
			c0.4,0.4,1,0.7,1.8,0.7c0.8,0,1.4-0.3,1.9-0.9c0.4-0.6,0.7-1.3,0.7-2.3c0-0.9-0.2-1.7-0.7-2.2c-0.4-0.6-1.1-0.9-1.9-0.9
			c-0.8,0-1.3,0.1-1.7,0.3c-0.3,0.2-0.6,0.6-0.8,1l-1.6-0.1l0.8-7.8h7.6v2.8h-1.4l-0.2-1.1H251l-0.4,4c0.2-0.1,0.4-0.3,0.7-0.4
			c0.2-0.1,0.4-0.2,0.8-0.3c0.3-0.1,0.6-0.1,0.9-0.1c0.9,0,1.7,0.2,2.2,0.6c0.6,0.3,1.1,0.9,1.4,1.7s0.6,1.6,0.6,2.6
			s-0.2,1.8-0.6,2.4c-0.3,0.7-0.9,1.2-1.6,1.7C254.4,373.7,253.5,373.9,252.5,373.9z"/>
		<path d="M263.6,373.7v-1.2l1.6-0.2V360l-1.6-0.2v-1.2h3.6v13.7l1.6,0.2v1.2L263.6,373.7L263.6,373.7z M266.9,370.7l-0.7-1.6
			l4.6-4.6v-0.1l-1.1-0.1v-1.2h4.6v1.2l-1.3,0.2L266.9,370.7z M270.4,373.7v-1.2l1.1-0.1l0,0l-3.1-4l1-1.6l4.2,5.4l1.6,0.2v1.2
			H270.4z"/>
		<path d="M276.3,373.7v-1.2l1.6-0.2v-7.6l-1.6-0.2v-1.2h3.3l0.1,1.3c0.3-0.6,0.8-0.9,1.3-1.1s1.1-0.4,1.9-0.4s1.3,0.1,1.8,0.4
			c0.4,0.3,0.9,0.8,1.1,1.4c0.3-0.6,0.8-1.1,1.3-1.4c0.6-0.3,1.2-0.6,1.9-0.6c1.1,0,1.9,0.3,2.6,1.1c0.7,0.8,0.9,1.9,0.9,3.3v4.8
			l1.6,0.2v1.2h-5.1v-1.2l1.6-0.2v-4.9c0-1-0.2-1.8-0.6-2.2c-0.3-0.4-0.9-0.7-1.6-0.7c-0.7,0-1.2,0.2-1.7,0.7
			c-0.4,0.4-0.7,1.1-0.7,1.8v5.2l1.6,0.2v1.2h-5.1v-1.2l1.6-0.2v-4.9c0-1-0.2-1.7-0.6-2.2c-0.3-0.4-0.9-0.7-1.6-0.7
			c-0.6,0-1.1,0.1-1.4,0.3s-0.7,0.6-0.9,1v6.3l1.6,0.2v1.2h-4.9V373.7z"/>
	</g>
</g>
<line class="st6" x1="125.1" y1="347.5" x2="410.9" y2="347.5"/>
<line class="st3" x1="125.1" y1="351.7" x2="125.1" y2="339.8"/>
<line class="st3" x1="410.9" y1="351.7" x2="410.9" y2="339.8"/>
<g>
	<g>
		<path d="M26.2,77.7v-1.3l4.7-5.2c0.6-0.7,1-1.1,1.3-1.6c0.3-0.4,0.6-0.9,0.7-1.2c0.1-0.3,0.2-0.8,0.2-1.1c0-0.7-0.2-1.3-0.7-1.8
			s-1.1-0.7-1.9-0.7c-0.9,0-1.4,0.2-2,0.8c-0.6,0.6-0.7,1.2-0.7,2.1h-1.8v-0.1c0-0.8,0.1-1.6,0.6-2.2c0.4-0.7,0.9-1.2,1.6-1.6
			c0.7-0.3,1.6-0.6,2.4-0.6c0.9,0,1.7,0.2,2.3,0.6s1.1,0.8,1.4,1.4c0.3,0.7,0.6,1.2,0.6,2c0,0.6-0.1,1-0.3,1.6s-0.6,1-0.9,1.6
			c-0.3,0.6-0.9,1.1-1.4,1.7l-3.8,4.1l0,0h5l0.1-1.7h1.7v3.1h-9.1V77.7z"/>
		<path d="M41.9,77.9c-0.9,0-1.8-0.1-2.4-0.4c-0.7-0.3-1.2-0.8-1.7-1.3c-0.4-0.6-0.6-1.3-0.6-2.2c0-0.8,0.2-1.6,0.8-2.1
			c0.6-0.6,1.1-1.1,2-1.3c-0.7-0.2-1.2-0.7-1.7-1.2c-0.4-0.6-0.6-1.2-0.6-2c0-0.9,0.2-1.6,0.6-2.1c0.3-0.6,0.9-1,1.4-1.3
			c0.6-0.3,1.3-0.4,2.2-0.4s1.6,0.1,2.2,0.4c0.7,0.3,1.1,0.8,1.4,1.3c0.3,0.6,0.6,1.3,0.6,2.1s-0.2,1.4-0.7,2s-1,1-1.7,1.2
			c0.8,0.3,1.4,0.8,2,1.3c0.6,0.6,0.8,1.3,0.8,2.1c0,0.9-0.2,1.7-0.6,2.2c-0.3,0.6-0.9,1.1-1.7,1.3C43.7,77.7,42.8,77.9,41.9,77.9z
			 M41.9,76.4c0.6,0,1-0.1,1.4-0.3c0.4-0.2,0.8-0.6,1-0.9c0.2-0.3,0.3-0.9,0.3-1.3c0-0.6-0.1-1-0.3-1.3s-0.6-0.7-1-1
			c-0.4-0.3-0.9-0.3-1.4-0.3c-0.6,0-1,0.1-1.4,0.3c-0.4,0.2-0.7,0.6-1,0.9c-0.3,0.3-0.3,0.9-0.3,1.4c0,0.8,0.2,1.4,0.8,1.9
			S41.1,76.4,41.9,76.4z M41.9,69.6c0.4,0,0.9-0.1,1.2-0.3c0.3-0.2,0.7-0.4,0.8-0.9s0.3-0.8,0.3-1.2s-0.1-0.9-0.3-1.2
			s-0.4-0.7-0.8-0.9c-0.3-0.2-0.8-0.3-1.2-0.3c-0.7,0-1.2,0.2-1.7,0.7c-0.4,0.4-0.7,1-0.7,1.8c0,0.8,0.2,1.3,0.7,1.8
			C40.7,69.4,41.3,69.6,41.9,69.6z"/>
		<path d="M52.8,77.7v-1.2l1.6-0.2v-1.8H48v-1.1l6.2-9.9h2v9.5h2.1v1.6h-2v1.8l1.6,0.2v1.2H52.8z M50.2,72.9h4.3v-6.7h-0.1l-0.2,0.6
			L50.2,72.9z"/>
		<path d="M64.2,77.9c-0.8,0-1.6-0.1-2.1-0.4c-0.6-0.3-1.1-0.8-1.4-1.3c-0.3-0.6-0.6-1.3-0.6-2.1v-0.1h1.7c0,0.8,0.2,1.3,0.7,1.8
			c0.4,0.4,1,0.7,1.8,0.7c0.8,0,1.4-0.3,1.9-0.9s0.7-1.3,0.7-2.3c0-0.9-0.2-1.7-0.7-2.2c-0.4-0.6-1.1-0.9-1.9-0.9
			c-0.8,0-1.3,0.1-1.7,0.3c-0.3,0.2-0.6,0.7-0.8,1.1l-1.6-0.1l0.8-7.8h7.6v2.8h-1.4l-0.2-1.1h-4.2l-0.4,4c0.2-0.1,0.4-0.3,0.7-0.4
			s0.4-0.2,0.8-0.3c0.3-0.1,0.6-0.1,0.9-0.1c0.9,0,1.7,0.2,2.2,0.6c0.6,0.3,1.1,0.9,1.4,1.7c0.3,0.8,0.6,1.6,0.6,2.6
			s-0.2,1.8-0.6,2.4c-0.3,0.7-0.9,1.2-1.6,1.7C65.9,77.7,65.2,77.9,64.2,77.9z"/>
		<path d="M75.3,77.7v-1.2l1.6-0.2v-7.6l-1.6-0.2v-1.2h3.3l0.1,1.3c0.3-0.6,0.8-0.9,1.3-1.1c0.6-0.2,1.1-0.4,1.9-0.4
			s1.3,0.1,1.8,0.4s0.9,0.8,1.1,1.4c0.3-0.6,0.8-1.1,1.3-1.4s1.2-0.6,1.9-0.6c1.1,0,1.9,0.3,2.6,1.1c0.7,0.8,0.9,1.9,0.9,3.3v4.8
			l1.6,0.2v1.2H88v-1.2l1.6-0.2v-4.9c0-1-0.2-1.8-0.6-2.2c-0.3-0.4-0.9-0.7-1.6-0.7c-0.7,0-1.2,0.2-1.7,0.7s-0.7,1.1-0.7,1.8V76
			l1.6,0.2v1.2h-4.9v-1.2l1.6-0.2v-4.9c0-1-0.2-1.7-0.6-2.2c-0.3-0.6-0.9-0.7-1.6-0.7c-0.6,0-1.1,0.1-1.4,0.3
			c-0.3,0.2-0.7,0.6-0.9,1v6.3l1.6,0.2v1.2h-5.1V77.7z"/>
		<path d="M99,77.9c-0.7,0-1.3-0.1-2-0.2c-0.7-0.1-1.2-0.3-2-0.7v-2.6h1.4l0.3,1.6c0.3,0.1,0.7,0.2,1.1,0.3s0.7,0.1,1.1,0.1
			c0.8,0,1.3-0.1,1.7-0.4s0.6-0.7,0.6-1.1s-0.2-0.8-0.6-1.1c-0.3-0.3-1-0.6-1.9-0.8c-1.2-0.3-2.2-0.7-2.8-1.2s-0.9-1.1-0.9-2
			c0-0.6,0.1-1.1,0.4-1.6c0.3-0.4,0.8-0.8,1.3-1.1c0.6-0.3,1.3-0.4,2.1-0.4s1.4,0.1,2.1,0.2s1.1,0.4,1.4,0.8l0.1,2.4h-1.4l-0.3-1.4
			c-0.2-0.2-0.4-0.3-0.8-0.4s-0.7-0.1-1.1-0.1c-0.6,0-1.1,0.1-1.4,0.4c-0.3,0.3-0.6,0.7-0.6,1c0,0.2,0,0.4,0.1,0.7
			c0.1,0.2,0.3,0.3,0.7,0.4s0.8,0.3,1.3,0.4c1.4,0.3,2.4,0.8,3.1,1.3c0.7,0.6,0.9,1.2,0.9,2c0,0.9-0.3,1.7-1,2.2
			C101.4,77.2,100.3,77.9,99,77.9z"/>
		<path d="M105.3,77.7v-2h1.9v2H105.3z"/>
		<path d="M109.4,77.7v-1.2l1.6-0.2v-7.6l-1.6-0.2v-1.2h3.3l0.1,1.6c0.3-0.6,0.8-1,1.3-1.3s1.1-0.4,1.8-0.4c1.1,0,2,0.3,2.7,1
			c0.7,0.7,0.9,1.7,0.9,3.1v5.1l1.6,0.2v1.2H116v-1.2l1.6-0.2v-5.1c0-0.9-0.2-1.6-0.6-2c-0.3-0.4-0.9-0.6-1.7-0.6
			c-0.6,0-1,0.1-1.4,0.4c-0.4,0.3-0.8,0.7-1,1.1v6.2l1.6,0.2v1.2h-5V77.7z"/>
		<path d="M123.2,77.7v-2h1.9v2H123.2z"/>
		<path d="M127.4,77.7v-1.2l1.6-0.2v-7.6l-1.6-0.2v-1.2h3.3l0.1,1.3c0.3-0.6,0.8-0.9,1.3-1.1c0.6-0.2,1.1-0.4,1.9-0.4
			s1.3,0.1,1.8,0.4c0.4,0.3,0.9,0.8,1.1,1.4c0.3-0.6,0.8-1.1,1.3-1.4c0.6-0.3,1.2-0.6,1.9-0.6c1.1,0,1.9,0.3,2.6,1.1
			c0.7,0.8,0.9,1.9,0.9,3.3v4.8l1.6,0.2v1.2h-5.1v-1.2l1.6-0.2v-4.9c0-1-0.2-1.8-0.6-2.2c-0.3-0.4-0.9-0.7-1.6-0.7
			c-0.7,0-1.2,0.2-1.7,0.7c-0.4,0.4-0.7,1.1-0.7,1.8V76l1.6,0.2v1.2h-5.1v-1.2l1.6-0.2v-4.9c0-1-0.2-1.7-0.6-2.2s-0.9-0.7-1.6-0.7
			c-0.6,0-1.1,0.1-1.4,0.3c-0.3,0.2-0.7,0.6-0.9,1v6.3l1.6,0.2v1.2h-4.9V77.7z"/>
	</g>
</g>
<line class="st6" x1="848.8" y1="76.3" x2="152.8" y2="76.3"/>
<g>
	<g>
		<path d="M705.9,59c-1.7,0-3-0.3-4.1-1.1c-1.1-0.8-2-1.8-2.6-3c-0.6-1.2-0.9-2.7-0.9-4.3v-0.2c0-1.7,0.3-3.1,0.9-4.3
			c0.6-1.2,1.4-2.2,2.6-3s2.4-1.1,3.9-1.1c1.1,0,2,0.2,2.9,0.6c0.9,0.3,1.7,0.8,2.2,1.2v3.6H709l-0.2-2.7c-0.2-0.2-0.6-0.3-0.9-0.4
			s-0.7-0.2-1-0.3c-0.3-0.1-0.8-0.1-1.2-0.1c-1.1,0-2,0.3-2.8,0.9c-0.8,0.6-1.3,1.3-1.7,2.3c-0.3,1-0.6,2.1-0.6,3.4v0.2
			c0,1.3,0.2,2.6,0.7,3.6c0.4,1,1,1.8,1.8,2.2c0.8,0.6,1.8,0.8,2.9,0.8c0.6,0,1-0.1,1.6-0.2c0.6-0.1,0.9-0.3,1.2-0.6L709,54h1.8v3.6
			c-0.7,0.3-1.3,0.7-2.2,0.9C707.6,58.9,706.8,59,705.9,59z"/>
		<path d="M718.5,59c-1.1,0-2.1-0.2-3-0.8c-0.9-0.6-1.4-1.2-2-2.2c-0.4-0.9-0.7-2-0.7-3.2v-0.6c0-1.2,0.2-2.2,0.8-3.1
			c0.4-0.9,1.1-1.7,1.9-2.2s1.7-0.8,2.7-0.8c1.1,0,2,0.2,2.8,0.7c0.8,0.4,1.3,1.1,1.7,1.9c0.3,0.8,0.6,1.8,0.6,2.9V53h-8v0.1
			c0,0.8,0.1,1.4,0.4,2.1c0.2,0.7,0.7,1.1,1.1,1.4c0.4,0.3,1.1,0.6,1.8,0.6c0.8,0,1.4-0.1,2-0.3c0.6-0.2,1.1-0.6,1.4-0.9l0.9,1.4
			c-0.4,0.4-1,0.8-1.8,1.1C720.4,58.8,719.7,59,718.5,59z M715.3,51.3h5.7V51c0-0.6-0.1-1.1-0.3-1.6c-0.2-0.4-0.6-0.9-0.9-1.1
			c-0.4-0.2-0.9-0.4-1.6-0.4c-0.6,0-1,0.1-1.3,0.4c-0.4,0.3-0.8,0.7-1,1.2C715.6,50.1,715.4,50.7,715.3,51.3L715.3,51.3z"/>
		<path d="M725,58.8v-1.4l1.9-0.3v-8.8l-1.9-0.3v-1.4h3.9l0.2,1.6v0.2c0.3-0.7,0.8-1.1,1.3-1.4c0.6-0.3,1.1-0.6,1.8-0.6
			c0.2,0,0.4,0,0.8,0.1c0.2,0,0.4,0.1,0.6,0.1l-0.3,2.1l-1.6-0.1c-0.6,0-1.1,0.1-1.4,0.4c-0.4,0.3-0.7,0.7-0.9,1.2v7l1.9,0.3v1.4
			H725V58.8z"/>
		<path d="M734.8,58.8v-1.4l1.9-0.3v-8.8l-1.9-0.3v-1.4h3.9l0.2,1.6v0.2c0.3-0.7,0.8-1.1,1.3-1.4c0.6-0.3,1.1-0.6,1.8-0.6
			c0.2,0,0.4,0,0.8,0.1c0.2,0,0.4,0.1,0.6,0.1l-0.3,2.1l-1.6-0.1c-0.6,0-1.1,0.1-1.4,0.4c-0.4,0.3-0.7,0.7-0.9,1.2v7l1.9,0.3v1.4
			h-6.2V58.8z"/>
		<path d="M750.1,59c-1.1,0-2.1-0.2-3-0.8c-0.8-0.6-1.4-1.2-1.9-2.2c-0.4-1-0.7-2-0.7-3.2v-0.2c0-1.2,0.2-2.3,0.7-3.2
			c0.4-1,1.1-1.7,1.9-2.2s1.8-0.8,2.9-0.8s2.1,0.2,3,0.8c0.8,0.6,1.4,1.3,1.9,2.2c0.4,0.9,0.7,2,0.7,3.2v0.2c0,1.2-0.2,2.3-0.7,3.2
			c-0.4,1-1.1,1.7-1.9,2.2S751.2,59,750.1,59z M750.1,57.2c0.7,0,1.3-0.2,1.8-0.6c0.4-0.4,0.9-0.9,1.1-1.6c0.2-0.7,0.3-1.4,0.3-2.3
			v-0.2c0-0.9-0.1-1.7-0.3-2.3c-0.2-0.7-0.7-1.2-1.1-1.6c-0.4-0.4-1.1-0.6-1.8-0.6c-0.7,0-1.3,0.2-1.8,0.6c-0.4,0.4-0.9,0.9-1.1,1.6
			c-0.2,0.7-0.3,1.4-0.3,2.3v0.2c0,0.9,0.1,1.7,0.3,2.3s0.6,1.2,1.1,1.6C748.8,57,749.3,57.2,750.1,57.2z"/>
		<path d="M763.2,58.8v-1.4l1.9-0.3V43.9l-1.9-0.3v-1.4h1.9h5.8c1.2,0,2.2,0.2,3,0.7c0.9,0.4,1.4,1,1.9,1.8c0.4,0.8,0.7,1.7,0.7,2.6
			c0,1-0.2,1.9-0.7,2.7s-1.1,1.3-1.9,1.8s-1.9,0.7-3,0.7h-3.6v4.9l1.9,0.3v1.4h-6V58.8z M767.4,50.3h3.6c1.1,0,2-0.3,2.6-0.9
			c0.6-0.6,0.9-1.3,0.9-2.3s-0.3-1.7-0.9-2.3s-1.4-0.9-2.6-0.9h-3.6V50.3z"/>
		<path d="M781.9,59c-1.3,0-2.2-0.3-2.9-0.9c-0.7-0.7-1-1.6-1-2.7c0-0.8,0.2-1.4,0.7-2c0.4-0.6,1-1,1.9-1.3c0.8-0.3,1.8-0.4,2.9-0.4
			h2.2v-1.2c0-0.8-0.2-1.3-0.7-1.8c-0.4-0.4-1.1-0.7-1.9-0.7c-0.6,0-1,0.1-1.3,0.2s-0.8,0.3-1,0.6l-0.2,1.7h-1.8v-2.8
			c0.6-0.4,1.2-0.8,1.9-1c0.8-0.2,1.6-0.3,2.4-0.3c1.4,0,2.7,0.3,3.6,1.1c0.9,0.8,1.2,1.8,1.2,3.1v5.9c0,0.1,0,0.3,0,0.4
			c0,0.1,0,0.3,0,0.4l1.2,0.1v1.4h-3.2c-0.1-0.3-0.1-0.7-0.1-0.9s-0.1-0.6-0.1-0.8c-0.4,0.6-1,1-1.7,1.3
			C783.4,58.8,782.7,59,781.9,59z M782.3,57.1c0.8,0,1.4-0.2,2-0.6c0.7-0.3,1.1-0.8,1.3-1.3V53h-2.3c-1,0-1.8,0.2-2.3,0.8
			c-0.6,0.4-0.8,1-0.8,1.7c0,0.6,0.2,1,0.6,1.2C781,56.9,781.6,57.1,782.3,57.1z"/>
		<path d="M790.7,58.8v-1.4l1.9-0.3v-8.8l-1.9-0.3v-1.4h4.1V57l1.9,0.3v1.4H790.7z M792.5,43.3v-2.4h2.3v2.4H792.5z"/>
		<path d="M798.3,58.8v-1.4l1.9-0.3v-8.8l-1.9-0.3v-1.4h3.9l0.1,1.9c0.4-0.7,0.9-1.1,1.6-1.6c0.7-0.3,1.3-0.6,2.1-0.6
			c1.3,0,2.3,0.4,3.1,1.2s1.1,2,1.1,3.6v6l1.9,0.3v1.4h-6v-1.4L808,57v-6c0-1.1-0.2-1.9-0.7-2.3c-0.4-0.4-1.1-0.7-2-0.7
			c-0.7,0-1.2,0.1-1.7,0.4c-0.4,0.3-0.9,0.8-1.2,1.2v7.2l1.9,0.3v1.4h-6V58.8z"/>
		<path d="M819.2,59c-1.1,0-2.1-0.2-3-0.8c-0.9-0.6-1.4-1.2-2-2.2c-0.6-1-0.7-2-0.7-3.2v-0.6c0-1.2,0.2-2.2,0.8-3.1
			c0.4-0.9,1.1-1.7,1.9-2.2s1.7-0.8,2.7-0.8c1.1,0,2,0.2,2.8,0.7c0.8,0.4,1.3,1.1,1.7,1.9c0.3,0.8,0.6,1.8,0.6,2.9V53h-8v0.1
			c0,0.8,0.1,1.4,0.4,2.1c0.2,0.7,0.7,1.1,1.1,1.4c0.4,0.3,1.1,0.6,1.8,0.6c0.8,0,1.4-0.1,2-0.3c0.6-0.2,1.1-0.6,1.4-0.9l0.9,1.4
			c-0.4,0.4-1,0.8-1.8,1.1C821.1,58.8,820.2,59,819.2,59z M816,51.3h5.7V51c0-0.6-0.1-1.1-0.3-1.6c-0.2-0.4-0.6-0.9-0.9-1.1
			c-0.4-0.2-0.9-0.4-1.6-0.4c-0.6,0-1,0.1-1.3,0.4c-0.4,0.3-0.8,0.7-1,1.2C816.3,50.1,816.1,50.7,816,51.3L816,51.3z"/>
		<path d="M839.1,59c-1.6,0-2.9-0.3-4-1.1c-1.1-0.7-2-1.7-2.6-3c-0.6-1.3-0.9-2.7-0.9-4.3v-0.2c0-1.7,0.3-3.1,0.9-4.4
			c0.7-1.2,1.4-2.2,2.6-3c1.1-0.8,2.2-1.1,3.7-1.1c1.3,0,2.3,0.1,3.3,0.4c0.9,0.3,1.7,0.7,2.3,1.2v3.3h-1.9l-0.2-2.4
			c-0.3-0.2-0.8-0.4-1.3-0.6c-0.6-0.1-1.2-0.2-1.9-0.2c-1,0-1.8,0.2-2.6,0.8c-0.8,0.6-1.3,1.3-1.8,2.3c-0.4,1-0.7,2.1-0.7,3.4v0.4
			c0,1.3,0.2,2.4,0.6,3.4c0.4,1,1,1.8,1.8,2.3c0.8,0.6,1.8,0.8,2.9,0.8c0.8,0,1.4-0.1,1.9-0.2c0.6-0.1,1-0.3,1.3-0.6v-3.9l-3.2-0.1
			v-1.7h5.4v6.6c-0.4,0.4-1.1,0.9-2.1,1.2C841.7,58.8,840.5,59,839.1,59z"/>
		<path d="M846.8,58.8v-1.4l1.9-0.3v-8.8l-1.9-0.3v-1.4h3.9l0.2,1.6v0.2c0.3-0.7,0.8-1.1,1.3-1.4c0.6-0.3,1.1-0.6,1.8-0.6
			c0.2,0,0.4,0,0.8,0.1c0.2,0,0.4,0.1,0.6,0.1l-0.3,2.1l-1.6-0.1c-0.6,0-1.1,0.1-1.4,0.4c-0.4,0.3-0.7,0.7-0.9,1.2v7l1.9,0.3v1.4
			h-6.2V58.8z"/>
		<path d="M860.6,59c-1.3,0-2.2-0.3-2.9-0.9c-0.7-0.7-1-1.6-1-2.7c0-0.8,0.2-1.4,0.7-2c0.4-0.6,1-1,1.9-1.3c0.8-0.3,1.8-0.4,2.9-0.4
			h2.2v-1.2c0-0.8-0.2-1.3-0.7-1.8s-1.1-0.7-1.9-0.7c-0.6,0-1,0.1-1.3,0.2c-0.3,0.1-0.8,0.3-1,0.6l-0.2,1.7h-1.8v-2.8
			c0.6-0.4,1.2-0.8,1.9-1c0.8-0.2,1.6-0.3,2.4-0.3c1.4,0,2.7,0.3,3.6,1.1c0.9,0.8,1.2,1.8,1.2,3.1v5.9c0,0.1,0,0.3,0,0.4
			c0,0.1,0,0.3,0,0.4l1.2,0.1v1.4h-3.2c-0.1-0.3-0.1-0.7-0.1-0.9s-0.1-0.6-0.1-0.8c-0.4,0.6-1,1-1.7,1.3C862,58.8,861.3,59,860.6,59
			z M860.9,57.1c0.8,0,1.4-0.2,2-0.6c0.7-0.3,1.1-0.8,1.3-1.3V53h-2.3c-1,0-1.8,0.2-2.3,0.8c-0.6,0.4-0.8,1-0.8,1.7
			c0,0.6,0.2,1,0.6,1.2C859.7,56.9,860.2,57.1,860.9,57.1z"/>
		<path d="M869.5,58.8v-1.4l1.9-0.3v-8.8l-1.9-0.3v-1.4h3.9l0.1,1.9c0.4-0.7,0.9-1.1,1.6-1.6c0.7-0.3,1.3-0.6,2.1-0.6
			c1.3,0,2.3,0.4,3.1,1.2s1.1,2,1.1,3.6v6l1.9,0.3v1.4h-6v-1.4l1.9-0.3v-6c0-1.1-0.2-1.9-0.7-2.3c-0.4-0.4-1.1-0.7-2-0.7
			c-0.7,0-1.2,0.1-1.7,0.4c-0.4,0.3-0.9,0.8-1.2,1.2v7.2l1.9,0.3v1.4h-6V58.8z"/>
		<path d="M889.6,59c-1,0-1.9-0.2-2.6-0.8c-0.7-0.4-1.2-1.2-1.7-2.1c-0.3-0.9-0.6-1.9-0.6-3.1v-0.2c0-1.3,0.2-2.4,0.6-3.4
			c0.3-1,0.9-1.8,1.7-2.3c0.7-0.6,1.6-0.8,2.6-0.8c0.8,0,1.3,0.1,1.9,0.4c0.6,0.2,1,0.7,1.4,1.2v-5l-1.9-0.3v-1.4h1.9h2.2v16
			l1.9,0.3v1.4h-3.8l-0.2-1.4c-0.4,0.6-0.9,1-1.4,1.2C891,58.8,890.4,59,889.6,59z M890.3,57.1c0.7,0,1.2-0.1,1.7-0.4
			s0.8-0.8,1.1-1.3v-5.7c-0.3-0.6-0.7-0.9-1.1-1.2c-0.4-0.3-1-0.4-1.7-0.4s-1.3,0.2-1.8,0.6c-0.4,0.4-0.8,1-1,1.7
			c-0.2,0.7-0.3,1.6-0.3,2.6V53c0,1.2,0.2,2.2,0.8,3C888.5,56.8,889.1,57.1,890.3,57.1z"/>
		<path d="M904.3,59c-1.1,0-2.1-0.2-3-0.8s-1.4-1.2-2-2.2c-0.4-0.9-0.7-2-0.7-3.2v-0.6c0-1.2,0.2-2.2,0.8-3.1
			c0.4-0.9,1.1-1.7,1.9-2.2s1.7-0.8,2.7-0.8c1.1,0,2,0.2,2.8,0.7c0.8,0.4,1.3,1.1,1.7,1.9c0.3,0.8,0.6,1.8,0.6,2.9V53h-8v0.1
			c0,0.8,0.1,1.4,0.4,2.1c0.2,0.7,0.7,1.1,1.1,1.4c0.4,0.3,1.1,0.6,1.8,0.6c0.8,0,1.4-0.1,2-0.3c0.6-0.2,1.1-0.6,1.4-0.9l0.9,1.4
			c-0.4,0.4-1,0.8-1.8,1.1C906.2,58.8,905.3,59,904.3,59z M901,51.3h5.7V51c0-0.6-0.1-1.1-0.3-1.6c-0.2-0.4-0.6-0.9-0.9-1.1
			c-0.4-0.2-0.9-0.4-1.6-0.4c-0.6,0-1,0.1-1.3,0.4c-0.4,0.3-0.8,0.7-1,1.2C901.4,50.1,901.2,50.7,901,51.3L901,51.3z"/>
	</g>
</g>
<g>
	<g>
		<path d="M380,58.8l-5.6-15l-1.3-0.2v-1.4h5.2v1.4l-1.6,0.2l3.7,10.6l0.3,1.3h0.1l0.4-1.3l3.9-10.6l-1.7-0.2v-1.4h5.2v1.4l-1.3,0.2
			l-5.6,15H380z"/>
		<path d="M395.9,59c-1.1,0-2.1-0.2-3-0.8c-0.8-0.6-1.4-1.2-1.9-2.2c-0.4-1-0.7-2-0.7-3.2v-0.2c0-1.2,0.2-2.3,0.7-3.2
			c0.4-1,1.1-1.7,1.9-2.2s1.8-0.8,2.9-0.8c1.1,0,2.1,0.2,3,0.8c0.8,0.6,1.4,1.3,1.9,2.2c0.4,0.9,0.7,2,0.7,3.2v0.2
			c0,1.2-0.2,2.3-0.7,3.2c-0.4,1-1.1,1.7-1.9,2.2S397,59,395.9,59z M395.9,57.2c0.7,0,1.3-0.2,1.8-0.6c0.4-0.4,0.9-0.9,1.1-1.6
			c0.2-0.7,0.3-1.4,0.3-2.3v-0.2c0-0.9-0.1-1.7-0.3-2.3c-0.2-0.7-0.7-1.2-1.1-1.6c-0.4-0.4-1.1-0.6-1.8-0.6c-0.7,0-1.3,0.2-1.8,0.6
			c-0.4,0.4-0.9,0.9-1.1,1.6c-0.2,0.7-0.3,1.4-0.3,2.3v0.2c0,0.9,0.1,1.7,0.3,2.3c0.2,0.7,0.6,1.2,1.1,1.6
			C394.6,57,395.2,57.2,395.9,57.2z"/>
		<path d="M403,58.8v-1.4l1.9-0.3V42.6l-1.9-0.3v-1.4h4.1v16l1.9,0.3v1.4h-6V58.8z"/>
		<path d="M416.3,59c-1.1,0-2.1-0.2-2.9-0.8s-1.4-1.2-1.9-2.2c-0.4-1-0.7-2-0.7-3.2v-0.4c0-1.2,0.2-2.2,0.7-3.1
			c0.4-0.9,1.1-1.7,1.9-2.2c0.8-0.6,1.8-0.8,3-0.8c1,0,1.9,0.1,2.7,0.4c0.8,0.3,1.3,0.8,1.9,1.3l0.1,3h-1.8l-0.3-2.1
			c-0.2-0.2-0.6-0.4-1-0.7S417,48,416.6,48c-0.7,0-1.2,0.2-1.8,0.6c-0.6,0.4-0.9,0.9-1.2,1.6c-0.3,0.7-0.4,1.4-0.4,2.2v0.4
			c0,0.9,0.1,1.7,0.4,2.3c0.2,0.7,0.7,1.2,1.1,1.6c0.4,0.3,1.1,0.6,1.8,0.6c0.8,0,1.4-0.2,1.9-0.7s0.8-1,0.9-1.7h2V55
			c0,0.7-0.2,1.3-0.7,2c-0.3,0.7-0.9,1.1-1.7,1.4C418.2,58.8,417.3,59,416.3,59z"/>
		<path d="M426.8,59c-1.3,0-2.2-0.3-2.9-0.9c-0.7-0.7-1-1.6-1-2.7c0-0.8,0.2-1.4,0.7-2c0.4-0.6,1-1,1.9-1.3c0.8-0.3,1.8-0.4,2.9-0.4
			h2.2v-1.2c0-0.8-0.2-1.3-0.7-1.8c-0.4-0.4-1.1-0.7-1.9-0.7c-0.6,0-1,0.1-1.3,0.2c-0.3,0.1-0.8,0.3-1,0.6l-0.2,1.7h-1.8v-2.8
			c0.6-0.4,1.2-0.8,1.9-1c0.8-0.2,1.6-0.3,2.4-0.3c1.4,0,2.7,0.3,3.6,1.1c0.9,0.8,1.2,1.8,1.2,3.1v5.9c0,0.1,0,0.3,0,0.4
			c0,0.1,0,0.3,0,0.4l1.2,0.1v1.4h-3.2c-0.1-0.3-0.1-0.7-0.1-0.9s-0.1-0.6-0.1-0.8c-0.4,0.6-1,1-1.7,1.3
			C428.3,58.8,427.5,59,426.8,59z M427.2,57.1c0.8,0,1.4-0.2,2-0.6c0.7-0.3,1.1-0.8,1.3-1.3V53h-2.3c-1,0-1.8,0.2-2.3,0.8
			c-0.6,0.4-0.8,1-0.8,1.7c0,0.6,0.2,1,0.6,1.2C425.9,56.9,426.5,57.1,427.2,57.1z M426.7,44l2.1-3.1h2.7V41l-3.1,3H426.7L426.7,44z
			"/>
		<path d="M435.7,58.8v-1.4l1.9-0.3v-8.8l-1.9-0.3v-1.4h3.9l0.1,1.9c0.4-0.7,0.9-1.1,1.6-1.6c0.7-0.3,1.3-0.6,2.1-0.6
			c1.3,0,2.3,0.4,3.1,1.2c0.8,0.8,1.1,2,1.1,3.6v6l1.9,0.3v1.4h-6v-1.4l1.9-0.3v-6c0-1.1-0.2-1.9-0.7-2.3c-0.4-0.4-1.1-0.7-2-0.7
			c-0.7,0-1.2,0.1-1.7,0.4c-0.4,0.3-0.9,0.8-1.2,1.2v7.2l1.9,0.3v1.4h-6V58.8z"/>
		<path d="M457.1,58.8v-1.4L459,57V43.9l-1.9-0.3v-1.4h1.9h3l5.3,12.6h0.1l5.2-12.6h5v1.4l-1.9,0.3V57l1.9,0.3v1.4h-6.1v-1.4l2-0.3
			v-4.8v-7h-0.1l-5.3,12.9h-1.4l-5.6-12.9H461l0.1,6.9v4.8l2,0.3v1.4h-6V58.8z"/>
		<path d="M479.3,58.8v-1.4l1.9-0.3v-8.8l-1.9-0.3v-1.4h4.1V57l1.9,0.3v1.4H479.3z M481.1,43.3v-2.4h2.3v2.4H481.1z"/>
		<path d="M492.4,59c-1.1,0-2.1-0.2-2.9-0.8s-1.4-1.2-1.9-2.2c-0.4-1-0.7-2-0.7-3.2v-0.4c0-1.2,0.2-2.2,0.7-3.1
			c0.4-0.9,1.1-1.7,1.9-2.2c0.8-0.6,1.8-0.8,3-0.8c1,0,1.9,0.1,2.7,0.4c0.8,0.3,1.3,0.8,1.9,1.3l0.1,3h-1.8l-0.3-2.1
			c-0.2-0.2-0.6-0.4-1-0.7c-0.3-0.1-0.9-0.2-1.3-0.2c-0.7,0-1.2,0.2-1.8,0.6c-0.6,0.4-0.9,0.9-1.2,1.6c-0.3,0.7-0.4,1.4-0.4,2.2v0.4
			c0,0.9,0.1,1.7,0.4,2.3c0.2,0.7,0.7,1.2,1.1,1.6c0.4,0.3,1.1,0.6,1.8,0.6c0.8,0,1.4-0.2,1.9-0.7s0.8-1,0.9-1.7h2V55
			c0,0.7-0.2,1.3-0.7,2c-0.3,0.7-0.9,1.1-1.7,1.4C494.3,58.8,493.4,59,492.4,59z"/>
		<path d="M498.8,58.8v-1.4l1.9-0.3V42.6l-1.9-0.3v-1.4h4.1V48c0.4-0.6,1-1,1.6-1.3c0.7-0.3,1.3-0.4,2-0.4c1.3,0,2.3,0.4,3.1,1.2
			c0.8,0.8,1.1,2,1.1,3.7v6l1.9,0.3v1.4h-6v-1.4l1.9-0.3v-6c0-1-0.2-1.8-0.7-2.2c-0.4-0.4-1.1-0.8-2-0.8c-0.7,0-1.2,0.1-1.7,0.4
			c-0.6,0.3-0.9,0.7-1.2,1.2v7.3l1.9,0.3v1.4h-6V58.8z"/>
		<path d="M513.9,58.8v-1.4l1.9-0.3v-8.8l-1.9-0.3v-1.4h4.1V57l1.9,0.3v1.4H513.9z M515.7,43.3v-2.4h2.3v2.4H515.7z"/>
		<path d="M521.5,58.8v-1.4l1.9-0.3v-8.8l-1.9-0.3v-1.4h3.9l0.1,1.9c0.4-0.7,0.9-1.1,1.6-1.6c0.7-0.3,1.3-0.6,2.1-0.6
			c1.3,0,2.3,0.4,3.1,1.2s1.1,2,1.1,3.6v6l1.9,0.3v1.4h-6v-1.4l1.9-0.3v-6c0-1.1-0.2-1.9-0.7-2.3c-0.4-0.4-1.1-0.7-2-0.7
			c-0.7,0-1.2,0.1-1.7,0.4c-0.4,0.3-0.9,0.8-1.2,1.2v7.2l1.9,0.3v1.4h-6V58.8z"/>
		<path d="M536.8,58.8v-1.4l1.9-0.3v-8.8l-1.9-0.3v-1.4h3.9l0.1,1.6c0.4-0.6,0.9-1,1.6-1.3c0.7-0.3,1.3-0.4,2.1-0.4s1.6,0.2,2.1,0.6
			c0.6,0.3,1,1,1.3,1.7c0.3-0.7,0.9-1.2,1.6-1.7c0.7-0.4,1.3-0.7,2.2-0.7c1.2,0,2.2,0.4,3,1.3s1.1,2.1,1.1,3.9V57l1.9,0.3v1.4h-6
			v-1.4l1.9-0.3v-5.7c0-1.2-0.2-2.1-0.7-2.6c-0.4-0.6-1-0.8-1.9-0.8c-0.8,0-1.4,0.2-1.9,0.8c-0.4,0.6-0.8,1.2-0.8,2.1V57l1.9,0.3
			v1.4h-6v-1.4l1.9-0.3v-5.7c0-1.1-0.2-2-0.7-2.6c-0.4-0.6-1-0.8-1.9-0.8c-0.7,0-1.2,0.1-1.7,0.4c-0.4,0.3-0.8,0.7-1,1.2V57l1.9,0.3
			v1.4C542.8,58.8,536.8,58.8,536.8,58.8z"/>
		<path d="M563.3,59c-1.3,0-2.2-0.3-2.9-0.9c-0.7-0.7-1-1.6-1-2.7c0-0.8,0.2-1.4,0.7-2c0.4-0.6,1-1,1.9-1.3c0.8-0.3,1.8-0.4,2.9-0.4
			h2.2v-1.2c0-0.8-0.2-1.3-0.7-1.8c-0.4-0.4-1.1-0.7-1.9-0.7c-0.6,0-1,0.1-1.3,0.2s-0.8,0.3-1,0.6l-0.2,1.7h-1.8v-2.8
			c0.6-0.4,1.2-0.8,1.9-1c0.8-0.2,1.6-0.3,2.4-0.3c1.4,0,2.7,0.3,3.6,1.1c0.9,0.8,1.2,1.8,1.2,3.1v5.9c0,0.1,0,0.3,0,0.4
			c0,0.1,0,0.3,0,0.4l1.2,0.1v1.4h-3.2c-0.1-0.3-0.1-0.7-0.1-0.9s-0.1-0.6-0.1-0.8c-0.4,0.6-1,1-1.7,1.3
			C564.7,58.8,564.1,59,563.3,59z M563.6,57.1c0.8,0,1.4-0.2,2-0.6c0.7-0.3,1.1-0.8,1.3-1.3V53h-2.3c-1,0-1.8,0.2-2.3,0.8
			c-0.6,0.4-0.8,1-0.8,1.7c0,0.6,0.2,1,0.6,1.2C562.5,56.9,563,57.1,563.6,57.1z"/>
		<path d="M572,58.8v-1.4l1.9-0.3V42.6l-1.9-0.3v-1.4h4.1V48c0.4-0.6,1-1,1.6-1.3c0.7-0.3,1.3-0.4,2-0.4c1.3,0,2.3,0.4,3.1,1.2
			c0.8,0.8,1.1,2,1.1,3.7v6l1.9,0.3v1.4h-6v-1.4l1.9-0.3v-6c0-1-0.2-1.8-0.7-2.2c-0.4-0.4-1.1-0.8-2-0.8c-0.7,0-1.2,0.1-1.7,0.4
			c-0.6,0.3-0.9,0.7-1.2,1.2v7.3l1.9,0.3v1.4h-6V58.8z"/>
		<path d="M592.6,59c-1.3,0-2.3-0.4-3.1-1.3c-0.8-0.9-1.1-2.2-1.1-4v-5.6l-1.4-0.3v-1.4h1.4h2.2v7.3c0,1.3,0.2,2.2,0.6,2.7
			s1,0.8,1.8,0.8c0.8,0,1.4-0.1,2-0.4c0.6-0.3,0.9-0.8,1.2-1.3v-7.1l-1.7-0.3v-1.4h1.7h2.2V57l1.4,0.3v1.4h-3.4l-0.1-1.8
			c-0.3,0.7-0.9,1.2-1.4,1.6C594.3,58.9,593.4,59,592.6,59z"/>
		<path d="M601.3,58.8v-1.4l1.9-0.3v-8.8l-1.9-0.3v-1.4h4.1V57l1.9,0.3v1.4H601.3z M603.1,43.3v-2.4h2.3v2.4H603.1z"/>
		<path d="M613.7,59c-1,0-1.9-0.2-2.6-0.8c-0.7-0.4-1.2-1.2-1.7-2.1c-0.3-0.9-0.6-1.9-0.6-3.1v-0.2c0-1.3,0.2-2.4,0.6-3.4
			c0.3-1,0.9-1.8,1.7-2.3c0.8-0.6,1.6-0.8,2.6-0.8c0.8,0,1.3,0.1,1.9,0.4c0.6,0.2,1,0.7,1.4,1.2v-5l-1.9-0.3v-1.4h1.9h2.2v16
			l1.9,0.3v1.4h-3.8l-0.1-1.7c-0.4,0.6-0.9,1-1.4,1.2C615.1,58.8,614.4,59,613.7,59z M614.2,57.1c0.7,0,1.2-0.1,1.7-0.4
			s0.9-0.8,1.1-1.3v-5.7c-0.3-0.6-0.7-0.9-1.1-1.2c-0.4-0.3-1-0.4-1.7-0.4s-1.3,0.2-1.8,0.6c-0.4,0.4-0.8,1-1,1.7s-0.3,1.6-0.3,2.6
			V53c0,1.2,0.2,2.2,0.8,3C612.4,56.8,613.2,57.1,614.2,57.1z"/>
		<path d="M626.8,59c-1.3,0-2.2-0.3-2.9-0.9c-0.7-0.7-1-1.6-1-2.7c0-0.8,0.2-1.4,0.7-2c0.4-0.6,1-1,1.9-1.3c0.8-0.3,1.8-0.4,2.9-0.4
			h2.2v-1.2c0-0.8-0.2-1.3-0.7-1.8c-0.4-0.4-1.1-0.7-1.9-0.7c-0.6,0-1,0.1-1.3,0.2c-0.3,0.1-0.8,0.3-1,0.6l-0.2,1.7h-1.8v-2.8
			c0.6-0.4,1.2-0.8,1.9-1c0.8-0.2,1.6-0.3,2.4-0.3c1.4,0,2.7,0.3,3.6,1.1c0.9,0.8,1.2,1.8,1.2,3.1v5.9c0,0.1,0,0.3,0,0.4
			c0,0.1,0,0.3,0,0.4l1.2,0.1v1.4h-3.2c-0.1-0.3-0.1-0.7-0.1-0.9s-0.1-0.6-0.1-0.8c-0.4,0.6-1,1-1.7,1.3
			C628.1,58.8,627.5,59,626.8,59z M627.1,57.1c0.8,0,1.4-0.2,2-0.6c0.7-0.3,1-0.8,1.3-1.3V53h-2.3c-1,0-1.8,0.2-2.3,0.8
			c-0.6,0.4-0.8,1-0.8,1.7c0,0.6,0.2,1,0.6,1.2C625.9,56.9,626.3,57.1,627.1,57.1z"/>
	</g>
</g>
</svg>
