<?xml version="1.0" encoding="utf-8"?>
<!-- Generator: Adobe Illustrator 24.0.3, SVG Export Plug-In . SVG Version: 6.00 Build 0)  -->
<svg version="1.1" id="Capa_1" xmlns="http://www.w3.org/2000/svg" xmlns:xlink="http://www.w3.org/1999/xlink" x="0px" y="0px"
	 viewBox="0 0 1616.1 395.1" style="enable-background:new 0 0 1616.1 395.1;" xml:space="preserve">
<style type="text/css">
	.st0{fill:#5C554A;}
	.st1{fill:#7A7063;}
	.st2{fill:#3C3832;}
	.st3{fill:none;stroke:#4D4D4D;stroke-miterlimit:10;}
	.st4{fill:none;stroke:#4D4D4D;stroke-miterlimit:10;stroke-dasharray:6.2229,6.2229;}
	.st5{fill:none;stroke:#4D4D4D;stroke-miterlimit:10;stroke-dasharray:5.9593,5.9593;}
	.st6{display:none;opacity:0.49;}
	.st7{display:inline;}
	.st8{fill:none;stroke:#4D4D4D;stroke-miterlimit:10;stroke-dasharray:6;}
</style>
<path class="st0" d="M507.5,319.6l21.6-17.7c0.8-0.6,1.7-1.1,2.6-1.3c3.6-0.8,12.7-3,16.7-6.3c4.6-3.8,34.4-28,38.9-31.6
	c0.4-0.3,0.8-0.6,1.2-0.8l31-14.7c0.8-0.4,1.7-0.6,2.7-0.6H633c1.2,0,2.3-0.3,3.3-0.9l30.5-19c0.6-0.4,1.3-0.7,2-0.8l22.1-4.6
	c0.5-0.1,0.9-0.3,1.4-0.5l24.6-11.6c1.6-0.8,2.8-2.2,3.3-3.9c0.7-2.4,1.9-5.6,3.5-5.6c2,0,14.1-8.4,18.3-11.3
	c0.9-0.7,1.7-1.6,2.1-2.6l3.2-7.6c0.6-1.5,1.9-2.7,3.4-3.3l35.6-14.4c0.4-0.2,0.9-0.4,1.3-0.7l24.9-17.7l21.4-15.3
	c1.1-0.8,2.3-1.2,3.6-1.2h7c2.5,0,4.8-1.5,5.7-3.8l6.3-15.2c0.2-0.5,0.4-0.9,0.7-1.3l10.4-14.1c1.8-2.5,5.1-3.2,7.9-1.8
	c7.3,3.8,20.9,11.1,23.3,14c1.5,1.9,5.3,2.9,9,3.5s7-2.3,7.1-6c0.1-3.1,6.2-6.5,6.2-6.5c8.4-0.7,28.2,8.8,33.9,11.6
	c1,0.5,2.1,0.7,3.3,0.6l18.1-1.4c0.5,0,1,0,1.5,0.1c3,0.5,14.5,2.3,17.4,2.3c2.6,0,17.5,2.6,23.6,3.6c1.7,0.3,3.5-0.1,4.8-1.2
	c4.6-3.5,15.6-11.5,20.1-11.5c5.8,0,22.2-11.5,22.2-11.5l13.2-9.6c1-0.7,2.3-1.2,3.6-1.2c5.4-0.1,19.9,0.1,21.9,4.2
	c2.5,4.9,14.8,18.1,17.3,28.8s13.2,18.9,13.2,18.9l21.1,18c0.7,0.6,1.5,1,2.4,1.3l9,2.4c1.3,0.3,2.4,1.1,3.2,2.1l5.3,6.4
	c0.6,0.7,1.4,1.3,2.2,1.7c2.7,1.2,8.5,3.3,11,0.2c2.9-3.7,15.1-7.3,17.6-8.1c0.3-0.1,0.6-0.2,1-0.2l12-1.5c0.4-0.1,0.9-0.1,1.3,0
	c2.8,0.3,12.9,1.6,15.8,6.5c3.1,5.5,26.3,31.7,28.6,34.3c0.1,0.1,0.2,0.3,0.4,0.5l10.1,13.9c1.7,2.3,4.8,3.2,7.4,2.1l3.6-1.5
	c1.2-0.5,2.1-1.3,2.8-2.3c2.9-4.4,11.1-16.7,13.8-17.3c3-0.7,10,4.6,11.3,5.6c0.2,0.1,0.3,0.2,0.5,0.4c1.7,1,10,5.9,13.7,1.5
	c3-3.6,9.4-4.6,12.7-4.8c1.3-0.1,2.6,0.2,3.7,0.9l12.8,7.8c0.2,0.2,0.5,0.3,0.7,0.5l8.7,7.2l10.9,8.2c1.4,1.1,3.2,1.5,4.9,1.1l2-0.4
	c2.2-0.4,4.4,0.3,5.8,1.9l0.9,1c2.3,2.5,6.2,2.8,8.7,0.5l7.4-6.6c1.7-1.5,4.1-2,6.3-1.2l31.1,11.5c2,0.7,3.4,2.4,3.9,4.4
	c1,4.3,3.4,12,8.4,18.2c6.9,8.4,65.1,36.6,73.8,40.8c0.7,0.3,1.4,0.8,1.9,1.4l28.2,31.1c1.4,1.5,1.9,3.6,1.4,5.6l-2.2,9.3
	c-0.7,2.8-3.2,4.8-6,4.8h-1050c-5.5,0-8.3-6.5-4.5-10.5l6.2-6.5C507.1,320,507.3,319.8,507.5,319.6z"/>
<path class="st1" d="M285.9,290.9l63-47l22.4-4.3l53.4-51.2l38.4-14.9l21.4-4.8c0,0,64.1-9.4,76.9-32.9c0,0,50.7-11.9,56.6-11.9
	c5.9,0,38.4,4.8,41.6,5.9c3.2,1.1,20.3,4.4,23.5,4.8c22.1,2.7,21.9-0.5,21.9-0.5s10.1-4.3,11.7-3.2c1.6,1.1,12.8,5.9,12.8,5.9
	l46.4,19.2l21.9,4.3l57.3,17.7c0,0,61,38,67.4,55.1s61.9,53.8,61.9,53.8l31.5,49.4L249,338.4L285.9,290.9z"/>
<path class="st2" d="M157.5,314l30.3-19.4l6.9-1l5.9-7.7l2.8-2.2h5.5l24.2-17.6l3.7-2.5l5.6-5.5l6.6-1.5l4.9-1l6.9,2.5h6.5l6.3,3.5
	l3.3,0.7l4.5,0.5l17.7-8.5l6.7-4.6h7.9l7.9-3.8h8.3l13.8,5.7l24.4,22.6l4.7,0.5l24.4,22.6c0,0,8.7,8.4,10.2,13.7
	c0.5,1.7,16.3,10.5,19.1,10.9c4.8,0.7,6.4,16.3,6.4,16.3l-48.4-0.1l0,0H237.6l-90.5,0.3l0,0l3.9-15.9L157.5,314z"/>
<g>
	<g>
		<line class="st3" x1="168.3" y1="244.7" x2="171.3" y2="244.7"/>
		<line class="st4" x1="177.5" y1="244.7" x2="323.7" y2="244.7"/>
		<line class="st3" x1="326.8" y1="244.7" x2="329.8" y2="244.7"/>
	</g>
</g>
<g>
	<g>
		<line class="st3" x1="174.7" y1="122.1" x2="177.7" y2="122.1"/>
		<line class="st5" x1="183.7" y1="122.1" x2="633.6" y2="122.1"/>
		<line class="st3" x1="636.6" y1="122.1" x2="639.6" y2="122.1"/>
	</g>
</g>
<g class="st6">
	<g class="st7">
		<path d="M64.1,125.5v-1.2l4.2-4.7c0.5-0.6,0.9-1,1.2-1.4c0.3-0.4,0.5-0.8,0.6-1.1s0.2-0.7,0.2-1c0-0.6-0.2-1.2-0.6-1.6
			s-0.9-0.7-1.7-0.7c-0.8,0-1.3,0.2-1.8,0.7s-0.6,1.1-0.6,1.9h-1.7v-0.1c0-0.7,0.1-1.4,0.5-2c0.3-0.6,0.8-1.1,1.4-1.4
			c0.6-0.3,1.4-0.5,2.2-0.5s1.5,0.2,2.1,0.5s1,0.7,1.3,1.3s0.5,1.1,0.5,1.8c0,0.5-0.1,0.9-0.3,1.4s-0.5,0.9-0.8,1.4s-0.8,1-1.3,1.5
			l-3.4,3.7l0,0h4.5l0.1-1.5h1.5v2.8h-8.1V125.5z"/>
		<path d="M78,125.5v-1.1l1.4-0.2v-1.6h-5.7v-1l5.6-8.9h1.8v8.5H83v1.4h-1.8v1.6l1.4,0.2v1.1H78z M75.6,121.2h3.9v-6h-0.1l-0.2,0.5
			L75.6,121.2z"/>
		<path d="M88.8,125.7c-1.3,0-2.2-0.4-3-1.3s-1.1-2.1-1.1-3.8v-3c0-1.6,0.4-2.9,1.1-3.8s1.7-1.3,3-1.3s2.3,0.4,3,1.3
			s1.1,2.1,1.1,3.8v3c0,1.6-0.4,2.9-1.1,3.8C91,125.2,90,125.7,88.8,125.7z M88.8,124.3c0.8,0,1.3-0.3,1.7-0.8s0.6-1.4,0.6-2.5v-3.8
			c0-1.1-0.2-1.9-0.6-2.5s-1-0.8-1.8-0.8s-1.3,0.3-1.7,0.8s-0.6,1.4-0.6,2.5v3.8c0,1.1,0.2,1.9,0.6,2.5
			C87.4,124,88,124.3,88.8,124.3z"/>
		<path d="M98.5,125.7c-0.7,0-1.4-0.1-1.9-0.4s-1-0.7-1.3-1.2s-0.5-1.2-0.5-1.9v-0.1h1.6c0,0.7,0.2,1.2,0.6,1.6s0.9,0.6,1.6,0.6
			s1.3-0.3,1.7-0.8s0.6-1.2,0.6-2.1c0-0.8-0.2-1.5-0.6-2s-1-0.8-1.7-0.8s-1.2,0.1-1.5,0.3s-0.5,0.5-0.7,0.9l-1.4-0.1l0.7-7h6.8v2.5
			h-1.3l-0.2-1h-3.8l-0.4,3.6c0.2-0.1,0.4-0.3,0.6-0.4s0.4-0.2,0.7-0.3s0.5-0.1,0.8-0.1c0.8,0,1.5,0.2,2,0.5s1,0.8,1.3,1.5
			s0.5,1.4,0.5,2.3s-0.2,1.6-0.5,2.2s-0.8,1.1-1.4,1.5C100.1,125.5,99.3,125.7,98.5,125.7z"/>
		<path d="M108.5,125.5v-1.1l1.4-0.2v-6.8l-1.4-0.2V116h3l0.1,1.2c0.3-0.5,0.7-0.8,1.2-1s1-0.4,1.7-0.4s1.2,0.1,1.6,0.4
			s0.8,0.7,1,1.3c0.3-0.5,0.7-1,1.2-1.3s1.1-0.5,1.7-0.5c1,0,1.7,0.3,2.3,1s0.8,1.7,0.8,3v4.3l1.4,0.2v1.1H120v-1.1l1.4-0.2v-4.4
			c0-0.9-0.2-1.6-0.5-2s-0.8-0.6-1.4-0.6s-1.1,0.2-1.5,0.6s-0.6,1-0.6,1.6v4.7l1.4,0.2v1.1h-4.6v-1.1l1.4-0.2v-4.4
			c0-0.9-0.2-1.5-0.5-2c-0.3-0.4-0.8-0.6-1.4-0.6c-0.5,0-1,0.1-1.3,0.3s-0.6,0.5-0.8,0.9v5.7l1.4,0.2v1.1h-4.5V125.5z"/>
		<path d="M129.7,125.7c-0.6,0-1.2-0.1-1.8-0.2s-1.1-0.3-1.8-0.6v-2.3h1.3l0.3,1.4c0.3,0.1,0.6,0.2,1,0.3c0.3,0.1,0.6,0.1,1,0.1
			c0.7,0,1.2-0.1,1.5-0.4s0.5-0.6,0.5-1s-0.2-0.7-0.5-1s-0.9-0.5-1.7-0.7c-1.1-0.3-2-0.6-2.5-1.1c-0.5-0.4-0.8-1-0.8-1.8
			c0-0.5,0.1-1,0.4-1.4s0.7-0.7,1.2-1c0.5-0.3,1.2-0.4,1.9-0.4s1.3,0.1,1.9,0.2s1,0.4,1.3,0.7l0.1,2.2h-1.3l-0.3-1.3
			c-0.2-0.2-0.4-0.3-0.7-0.4s-0.6-0.1-1-0.1c-0.5,0-1,0.1-1.3,0.4s-0.5,0.6-0.5,0.9c0,0.2,0,0.4,0.1,0.6s0.3,0.3,0.6,0.4
			s0.7,0.3,1.2,0.4c1.3,0.3,2.2,0.7,2.8,1.2s0.8,1.1,0.8,1.8c0,0.8-0.3,1.5-0.9,2C131.9,125.4,131,125.7,129.7,125.7z"/>
		<path d="M135.5,125.5v-1.8h1.7v1.8H135.5z"/>
		<path d="M139.2,125.5v-1.1l1.4-0.2v-6.8l-1.4-0.2V116h3l0.1,1.4c0.3-0.5,0.7-0.9,1.2-1.2s1-0.4,1.6-0.4c1,0,1.8,0.3,2.4,0.9
			c0.6,0.6,0.8,1.5,0.8,2.8v4.6l1.4,0.2v1.1h-4.6v-1.1l1.4-0.2v-4.6c0-0.8-0.2-1.4-0.5-1.8s-0.8-0.5-1.5-0.5c-0.5,0-0.9,0.1-1.3,0.4
			s-0.7,0.6-0.9,1v5.6l1.4,0.2v1.1H139.2z"/>
		<path d="M151.6,125.5v-1.8h1.7v1.8H151.6z"/>
		<path d="M155.3,125.5v-1.1l1.4-0.2v-6.8l-1.4-0.2V116h3l0.1,1.2c0.3-0.5,0.7-0.8,1.2-1s1-0.4,1.7-0.4s1.2,0.1,1.6,0.4
			s0.8,0.7,1,1.3c0.3-0.5,0.7-1,1.2-1.3s1.1-0.5,1.7-0.5c1,0,1.7,0.3,2.3,1s0.8,1.7,0.8,3v4.3l1.4,0.2v1.1h-4.6v-1.1l1.4-0.2v-4.4
			c0-0.9-0.2-1.6-0.5-2s-0.8-0.6-1.4-0.6c-0.6,0-1.1,0.2-1.5,0.6s-0.6,1-0.6,1.6v4.7l1.4,0.2v1.1h-4.6v-1.1l1.4-0.2v-4.4
			c0-0.9-0.2-1.5-0.5-2c-0.3-0.4-0.8-0.6-1.4-0.6c-0.5,0-1,0.1-1.3,0.3s-0.6,0.5-0.8,0.9v5.7l1.4,0.2v1.1h-4.4V125.5z"/>
	</g>
</g>
<g class="st6">
	<g class="st7">
		<path d="M67.7,248.3c-0.4,0-0.9,0-1.4-0.1s-0.9-0.2-1.3-0.4l0.3-1.3c0.4,0.2,0.7,0.3,1.1,0.4c0.4,0.1,0.8,0.1,1.3,0.1
			c0.8,0,1.5-0.3,2-1c0.5-0.6,0.7-1.7,0.8-3.1l0,0c-0.2,0.4-0.6,0.7-1,0.9s-0.9,0.3-1.4,0.3c-0.8,0-1.5-0.2-2.2-0.5
			c-0.7-0.3-1.1-0.8-1.4-1.5s-0.5-1.5-0.5-2.4s0.2-1.7,0.5-2.4c0.3-0.7,0.8-1.2,1.4-1.6c0.6-0.4,1.3-0.6,2-0.6
			c0.9,0,1.7,0.2,2.3,0.6c0.6,0.4,1.1,0.9,1.5,1.7s0.5,1.6,0.5,2.7v2.3c0,1.3-0.2,2.4-0.6,3.3s-0.9,1.5-1.6,2S68.6,248.3,67.7,248.3
			z M68,242.7c0.6,0,1.2-0.1,1.6-0.4s0.7-0.6,0.9-1.1v-1.4c0-1.1-0.2-2-0.6-2.6s-1.1-0.9-1.9-0.9c-0.4,0-0.8,0.1-1.2,0.4
			c-0.3,0.3-0.6,0.6-0.8,1.1s-0.3,1-0.3,1.7c0,0.6,0.1,1.2,0.3,1.6c0.2,0.5,0.4,0.8,0.8,1.1S67.5,242.7,68,242.7z"/>
		<path d="M78.8,248.3c-0.8,0-1.6-0.2-2.2-0.6s-1.2-1-1.5-1.8s-0.6-1.7-0.6-2.8v-1.7c0-1.4,0.2-2.5,0.6-3.4s1-1.6,1.7-2.1
			s1.5-0.7,2.5-0.7c0.4,0,0.9,0,1.3,0.1s0.8,0.2,1.1,0.4l-0.3,1.3c-0.3-0.1-0.6-0.2-0.9-0.3s-0.7-0.1-1.1-0.1c-0.9,0-1.6,0.3-2.1,1
			s-0.8,1.7-0.8,3.1l0,0c0.3-0.3,0.7-0.5,1.2-0.7s1-0.3,1.5-0.3c0.8,0,1.4,0.2,2,0.5c0.6,0.4,1,0.9,1.3,1.5s0.5,1.4,0.5,2.2
			c0,0.9-0.2,1.7-0.5,2.3s-0.8,1.2-1.4,1.6S79.6,248.3,78.8,248.3z M78.8,246.9c0.5,0,0.9-0.1,1.2-0.4s0.6-0.7,0.8-1.1
			s0.3-1,0.3-1.6c0-0.8-0.2-1.5-0.6-2.1s-1-0.8-1.8-0.8c-0.4,0-0.7,0.1-1.1,0.2c-0.3,0.1-0.6,0.3-0.8,0.5c-0.2,0.2-0.4,0.4-0.6,0.7
			v1c0,1.2,0.2,2.1,0.7,2.7S78,246.9,78.8,246.9z"/>
		<path d="M88,248.3c-0.7,0-1.4-0.1-1.9-0.4s-1-0.7-1.3-1.2s-0.5-1.2-0.5-1.9v-0.1h1.6c0,0.7,0.2,1.2,0.6,1.6s0.9,0.6,1.6,0.6
			s1.3-0.3,1.7-0.8s0.6-1.2,0.6-2.1c0-0.8-0.2-1.5-0.6-2s-1-0.8-1.7-0.8s-1.2,0.1-1.5,0.3s-0.5,0.5-0.7,0.9l-1.4-0.1l0.7-7H92v2.5
			h-1.3l-0.2-1h-3.8l-0.4,3.6c0.2-0.1,0.4-0.3,0.6-0.4s0.4-0.2,0.7-0.3s0.5-0.1,0.8-0.1c0.8,0,1.5,0.2,2,0.5s1,0.8,1.3,1.5
			s0.5,1.4,0.5,2.3c0,0.9-0.2,1.6-0.5,2.2s-0.8,1.1-1.4,1.5C89.6,248.1,88.9,248.3,88,248.3z"/>
		<path d="M98.1,248.1V247l1.4-0.2V240l-1.4-0.2v-1.1h3l0.1,1.2c0.3-0.5,0.7-0.8,1.2-1s1-0.4,1.7-0.4s1.2,0.1,1.6,0.4s0.8,0.7,1,1.3
			c0.3-0.5,0.7-1,1.2-1.3s1.1-0.5,1.7-0.5c1,0,1.7,0.3,2.3,1s0.8,1.7,0.8,3v4.3l1.4,0.2v1.1h-4.6v-1l1.4-0.2v-4.4
			c0-0.9-0.2-1.6-0.5-2s-0.8-0.6-1.4-0.6s-1.1,0.2-1.5,0.6c-0.4,0.4-0.6,1-0.6,1.6v4.7l1.4,0.2v1.1h-4.6v-1l1.4-0.2v-4.4
			c0-0.9-0.2-1.5-0.5-2c-0.3-0.4-0.8-0.6-1.4-0.6c-0.5,0-1,0.1-1.3,0.3s-0.6,0.5-0.8,0.9v5.7l1.4,0.2v1.1h-4.4V248.1z"/>
		<path d="M119.3,248.3c-0.6,0-1.2-0.1-1.8-0.2s-1.1-0.3-1.8-0.6v-2.3h1.3l0.3,1.4c0.3,0.1,0.6,0.2,1,0.3c0.3,0.1,0.6,0.1,1,0.1
			c0.7,0,1.2-0.1,1.5-0.4s0.5-0.6,0.5-1s-0.2-0.7-0.5-1s-0.9-0.5-1.7-0.7c-1.1-0.3-2-0.6-2.5-1.1c-0.5-0.4-0.8-1-0.8-1.8
			c0-0.5,0.1-1,0.4-1.4s0.7-0.7,1.2-1s1.2-0.4,1.9-0.4c0.7,0,1.3,0.1,1.9,0.2s1,0.4,1.3,0.7l0.1,2.2h-1.3L121,240
			c-0.2-0.2-0.4-0.3-0.7-0.4s-0.6-0.1-1-0.1c-0.5,0-1,0.1-1.3,0.4s-0.5,0.6-0.5,0.9c0,0.2,0,0.4,0.1,0.6s0.3,0.3,0.6,0.4
			c0.3,0.1,0.7,0.3,1.2,0.4c1.3,0.3,2.2,0.7,2.8,1.2s0.8,1.1,0.8,1.8c0,0.8-0.3,1.5-0.9,2C121.5,248,120.6,248.3,119.3,248.3z"/>
		<path d="M125,248.1v-1.8h1.7v1.8H125z"/>
		<path d="M128.7,248.1V247l1.4-0.2V240l-1.4-0.2v-1.1h3l0.1,1.4c0.3-0.5,0.7-0.9,1.2-1.2s1-0.4,1.6-0.4c1,0,1.8,0.3,2.4,0.9
			c0.6,0.6,0.8,1.5,0.8,2.8v4.6l1.4,0.2v1.1h-4.6V247l1.4-0.2v-4.6c0-0.8-0.2-1.4-0.5-1.8s-0.8-0.5-1.5-0.5c-0.5,0-0.9,0.1-1.3,0.4
			s-0.7,0.6-0.9,1v5.6l1.4,0.2v1.1L128.7,248.1L128.7,248.1z"/>
		<path d="M141.2,248.1v-1.8h1.7v1.8H141.2z"/>
		<path d="M144.9,248.1V247l1.4-0.2V240l-1.4-0.2v-1.1h3l0.1,1.2c0.3-0.5,0.7-0.8,1.2-1s1-0.4,1.7-0.4s1.2,0.1,1.6,0.4
			s0.8,0.7,1,1.3c0.3-0.5,0.7-1,1.2-1.3s1.1-0.5,1.7-0.5c1,0,1.7,0.3,2.3,1s0.8,1.7,0.8,3v4.3l1.4,0.2v1.1h-4.6v-1l1.4-0.2v-4.4
			c0-0.9-0.2-1.6-0.5-2s-0.8-0.6-1.4-0.6c-0.6,0-1.1,0.2-1.5,0.6c-0.4,0.4-0.6,1-0.6,1.6v4.7l1.4,0.2v1.1h-4.6v-1l1.4-0.2v-4.4
			c0-0.9-0.2-1.5-0.5-2c-0.3-0.4-0.8-0.6-1.4-0.6c-0.5,0-1,0.1-1.3,0.3s-0.6,0.5-0.8,0.9v5.7l1.4,0.2v1.1h-4.4V248.1z"/>
	</g>
</g>
<g class="st6">
	<g class="st7">
		<path d="M202.9,230.1l-5-13.5l-1.2-0.2v-1.3h4.7v1.3l-1.4,0.2l3.3,9.5l0.3,1.2h0.1l0.4-1.2l3.5-9.5l-1.5-0.2v-1.3h4.7v1.3
			l-1.2,0.2l-5,13.5H202.9z"/>
		<path d="M217.2,230.3c-1,0-1.9-0.2-2.7-0.7c-0.7-0.5-1.3-1.1-1.7-2s-0.6-1.8-0.6-2.9v-0.2c0-1.1,0.2-2.1,0.6-2.9
			c0.4-0.9,1-1.5,1.7-2s1.6-0.7,2.6-0.7s1.9,0.2,2.7,0.7c0.7,0.5,1.3,1.2,1.7,2s0.6,1.8,0.6,2.9v0.2c0,1.1-0.2,2.1-0.6,2.9
			c-0.4,0.9-1,1.5-1.7,2S218.3,230.3,217.2,230.3z M217.2,228.8c0.6,0,1.2-0.2,1.6-0.5c0.4-0.4,0.8-0.8,1-1.4
			c0.2-0.6,0.3-1.3,0.3-2.1v-0.2c0-0.8-0.1-1.5-0.3-2.1s-0.6-1.1-1-1.4c-0.4-0.4-1-0.5-1.6-0.5s-1.2,0.2-1.6,0.5
			c-0.4,0.4-0.8,0.8-1,1.4c-0.2,0.6-0.3,1.3-0.3,2.1v0.2c0,0.8,0.1,1.5,0.3,2.1s0.5,1.1,1,1.4C216,228.6,216.6,228.8,217.2,228.8z"
			/>
		<path d="M223.6,230.1v-1.3l1.7-0.3v-12.8l-1.7-0.3v-1.3h3.7v14.4l1.7,0.3v1.3L223.6,230.1L223.6,230.1z"/>
		<path d="M235.5,230.3c-1,0-1.9-0.2-2.6-0.7c-0.7-0.5-1.3-1.1-1.7-2s-0.6-1.8-0.6-2.9v-0.4c0-1.1,0.2-2,0.6-2.8s1-1.5,1.7-2
			s1.6-0.7,2.7-0.7c0.9,0,1.7,0.1,2.4,0.4c0.7,0.3,1.2,0.7,1.7,1.2l0.1,2.7H238l-0.3-1.9c-0.2-0.2-0.5-0.4-0.9-0.6s-0.8-0.2-1.2-0.2
			c-0.6,0-1.1,0.2-1.6,0.5c-0.5,0.4-0.8,0.8-1.1,1.4s-0.4,1.3-0.4,2v0.4c0,0.8,0.1,1.5,0.4,2.1c0.2,0.6,0.6,1.1,1,1.4
			c0.4,0.3,1,0.5,1.6,0.5c0.7,0,1.3-0.2,1.7-0.6s0.7-0.9,0.8-1.5h1.8v0.1c0,0.6-0.2,1.2-0.6,1.8c-0.3,0.6-0.8,1-1.5,1.3
			C237.2,230.2,236.4,230.3,235.5,230.3z"/>
		<path d="M245,230.3c-1.2,0-2-0.3-2.6-0.8c-0.6-0.6-0.9-1.4-0.9-2.4c0-0.7,0.2-1.3,0.6-1.8c0.4-0.5,0.9-0.9,1.7-1.2
			c0.7-0.3,1.6-0.4,2.6-0.4h2v-1.1c0-0.7-0.2-1.2-0.6-1.6s-1-0.6-1.7-0.6c-0.5,0-0.9,0.1-1.2,0.2c-0.3,0.1-0.7,0.3-0.9,0.5l-0.2,1.5
			h-1.6V220c0.5-0.4,1.1-0.7,1.7-0.9c0.7-0.2,1.4-0.3,2.2-0.3c1.3,0,2.4,0.3,3.2,1s1.1,1.6,1.1,2.8v5.3c0,0.1,0,0.3,0,0.4
			c0,0.1,0,0.3,0,0.4l1.1,0.1v1.3h-2.9c-0.1-0.3-0.1-0.6-0.1-0.8s-0.1-0.5-0.1-0.7c-0.4,0.5-0.9,0.9-1.5,1.2
			C246.3,230.2,245.6,230.3,245,230.3z M245.3,228.6c0.7,0,1.3-0.2,1.8-0.5c0.6-0.3,1-0.7,1.2-1.2v-2h-2.1c-0.9,0-1.6,0.2-2.1,0.7
			c-0.5,0.4-0.7,0.9-0.7,1.5c0,0.5,0.2,0.9,0.5,1.1C244.2,228.5,244.7,228.6,245.3,228.6z M244.9,216.9l1.9-2.8h2.4v0.1l-2.8,2.7
			H244.9L244.9,216.9z"/>
		<path d="M253,230.1v-1.3l1.7-0.3v-7.9l-1.7-0.3V219h3.5l0.1,1.7c0.4-0.6,0.8-1,1.4-1.4c0.6-0.3,1.2-0.5,1.9-0.5
			c1.2,0,2.1,0.4,2.8,1.1c0.7,0.7,1,1.8,1,3.2v5.4l1.7,0.3v1.3H260v-1.3l1.7-0.3v-5.4c0-1-0.2-1.7-0.6-2.1c-0.4-0.4-1-0.6-1.8-0.6
			c-0.6,0-1.1,0.1-1.5,0.4s-0.8,0.7-1.1,1.1v6.5l1.7,0.3v1.3H253V230.1z"/>
		<path d="M278.8,230.3c-1.5,0-2.7-0.3-3.7-1s-1.8-1.6-2.3-2.7c-0.5-1.1-0.8-2.4-0.8-3.9v-0.2c0-1.5,0.3-2.8,0.8-3.9
			c0.5-1.1,1.3-2,2.3-2.7s2.2-1,3.5-1c1,0,1.8,0.2,2.6,0.5s1.5,0.7,2,1.1v3.2h-1.6l-0.2-2.4c-0.2-0.2-0.5-0.3-0.8-0.4
			c-0.3-0.1-0.6-0.2-0.9-0.3s-0.7-0.1-1.1-0.1c-1,0-1.8,0.3-2.5,0.8s-1.2,1.2-1.5,2.1s-0.5,1.9-0.5,3.1v0.2c0,1.2,0.2,2.3,0.6,3.2
			s0.9,1.6,1.6,2c0.7,0.5,1.6,0.7,2.6,0.7c0.5,0,0.9-0.1,1.4-0.2s0.8-0.3,1.1-0.5l0.2-2.1h1.6v3.2c-0.6,0.3-1.2,0.6-2,0.8
			C280.4,230.2,279.6,230.3,278.8,230.3z"/>
		<path d="M285,230.1v-1.3l1.7-0.3v-12.8l-1.7-0.3v-1.3h3.7v6.4c0.4-0.5,0.9-0.9,1.4-1.2c0.6-0.3,1.2-0.4,1.8-0.4
			c1.2,0,2.1,0.4,2.8,1.1s1,1.8,1,3.3v5.4l1.7,0.3v1.3H292V229l1.7-0.3v-5.4c0-0.9-0.2-1.6-0.6-2s-1-0.7-1.8-0.7
			c-0.6,0-1.1,0.1-1.5,0.4c-0.5,0.3-0.8,0.6-1.1,1.1v6.6l1.7,0.3v1.3H285V230.1z"/>
		<path d="M302.3,230.3c-1.2,0-2-0.3-2.6-0.8c-0.6-0.6-0.9-1.4-0.9-2.4c0-0.7,0.2-1.3,0.6-1.8s0.9-0.9,1.7-1.2
			c0.7-0.3,1.6-0.4,2.6-0.4h2v-1.1c0-0.7-0.2-1.2-0.6-1.6c-0.4-0.4-1-0.6-1.7-0.6c-0.5,0-0.9,0.1-1.2,0.2c-0.3,0.1-0.7,0.3-0.9,0.5
			l-0.2,1.5h-1.6V220c0.5-0.4,1.1-0.7,1.7-0.9c0.7-0.2,1.4-0.3,2.2-0.3c1.3,0,2.4,0.3,3.2,1s1.1,1.6,1.1,2.8v5.3c0,0.1,0,0.3,0,0.4
			c0,0.1,0,0.3,0,0.4l1.1,0.1v1.3h-2.9c-0.1-0.3-0.1-0.6-0.1-0.8s-0.1-0.5-0.1-0.7c-0.4,0.5-0.9,0.9-1.5,1.2
			C303.6,230.2,302.9,230.3,302.3,230.3z M302.6,228.6c0.7,0,1.3-0.2,1.8-0.5c0.6-0.3,0.9-0.7,1.2-1.2v-2h-2.1
			c-0.9,0-1.6,0.2-2.1,0.7c-0.5,0.4-0.7,0.9-0.7,1.5c0,0.5,0.2,0.9,0.5,1.1C301.5,228.5,302,228.6,302.6,228.6z"/>
		<path d="M310.2,230.1v-1.3l1.7-0.3v-7.9l-1.7-0.3V219h3.7v9.5l1.7,0.3v1.3H310.2z M311.8,216.3v-2.2h2.1v2.2H311.8z"/>
		<path d="M320.9,230.3c-0.8,0-1.5-0.2-2-0.7s-0.7-1.3-0.7-2.3v-6.7h-1.8V219h1.8v-2.7h2v2.7h2.4v1.5h-2.4v6.7
			c0,0.5,0.1,0.9,0.3,1.2c0.2,0.3,0.5,0.4,0.9,0.4c0.2,0,0.5,0,0.8-0.1c0.3,0,0.5-0.1,0.7-0.1l0.3,1.3c-0.3,0.1-0.7,0.2-1.1,0.2
			C321.7,230.3,321.3,230.3,320.9,230.3z"/>
		<path d="M329.5,230.3c-1,0-1.9-0.2-2.7-0.7c-0.8-0.5-1.3-1.1-1.8-2c-0.4-0.8-0.6-1.8-0.6-2.9v-0.5c0-1.1,0.2-2,0.7-2.8
			c0.4-0.8,1-1.5,1.7-2s1.5-0.7,2.4-0.7c1,0,1.8,0.2,2.5,0.6c0.7,0.4,1.2,1,1.5,1.7s0.5,1.6,0.5,2.6v1.3h-7.2v0.1
			c0,0.7,0.1,1.3,0.4,1.9c0.2,0.6,0.6,1,1,1.3s1,0.5,1.6,0.5c0.7,0,1.3-0.1,1.8-0.3s1-0.5,1.3-0.8l0.8,1.3c-0.4,0.4-0.9,0.7-1.6,1
			C331.2,230.2,330.4,230.3,329.5,230.3z M326.6,223.5h5.1v-0.3c0-0.5-0.1-1-0.3-1.4c-0.2-0.4-0.5-0.8-0.8-1
			c-0.4-0.2-0.8-0.4-1.4-0.4c-0.5,0-0.9,0.1-1.2,0.4c-0.4,0.3-0.7,0.6-0.9,1.1S326.7,222.8,326.6,223.5L326.6,223.5z M328,216.9
			l1.9-2.8h2.4v0.1l-2.8,2.7H328L328,216.9z"/>
		<path d="M335.3,230.1v-1.3l1.7-0.3v-7.9l-1.7-0.3V219h3.5l0.1,1.7c0.4-0.6,0.8-1,1.4-1.4c0.6-0.3,1.2-0.5,1.9-0.5
			c1.2,0,2.1,0.4,2.8,1.1c0.7,0.7,1,1.8,1,3.2v5.4l1.7,0.3v1.3h-5.4v-1.3l1.7-0.3v-5.4c0-1-0.2-1.7-0.6-2.1c-0.4-0.4-1-0.6-1.8-0.6
			c-0.6,0-1.1,0.1-1.5,0.4c-0.4,0.3-0.8,0.7-1.1,1.1v6.5l1.7,0.3v1.3h-5.4V230.1z"/>
	</g>
</g>
<g class="st6">
	<g class="st7">
		<path d="M259.9,367.3v-1.1l2-0.2v-9.6h-2v-1.1l3.7-0.8V366l2,0.2v1.1L259.9,367.3L259.9,367.3z"/>
		<path d="M271.2,367.5c-0.8,0-1.6-0.1-2.2-0.4s-1.1-0.7-1.5-1.2s-0.5-1.2-0.5-2c0-0.7,0.2-1.4,0.7-1.9s1-1,1.8-1.2
			c-0.6-0.2-1.1-0.6-1.5-1.1s-0.5-1.1-0.5-1.8c0-0.8,0.2-1.4,0.5-1.9s0.8-0.9,1.3-1.2s1.2-0.4,2-0.4s1.4,0.1,2,0.4s1,0.7,1.3,1.2
			s0.5,1.2,0.5,1.9c0,0.7-0.2,1.3-0.6,1.8s-0.9,0.9-1.5,1.1c0.7,0.3,1.3,0.7,1.8,1.2s0.7,1.2,0.7,1.9c0,0.8-0.2,1.5-0.5,2
			s-0.8,1-1.5,1.2C272.7,367.4,272,367.5,271.2,367.5z M271.2,366.2c0.5,0,0.9-0.1,1.3-0.3s0.7-0.5,0.9-0.8s0.3-0.8,0.3-1.2
			c0-0.5-0.1-0.9-0.3-1.2s-0.5-0.6-0.9-0.9s-0.8-0.3-1.3-0.3s-0.9,0.1-1.3,0.3s-0.6,0.5-0.9,0.8c-0.2,0.4-0.3,0.8-0.3,1.3
			c0,0.7,0.2,1.3,0.7,1.7C269.9,366,270.5,366.2,271.2,366.2z M271.2,360.1c0.4,0,0.8-0.1,1.1-0.3c0.3-0.2,0.6-0.4,0.7-0.8
			s0.3-0.7,0.3-1.1s-0.1-0.8-0.3-1.1s-0.4-0.6-0.7-0.8c-0.3-0.2-0.7-0.3-1.1-0.3c-0.6,0-1.1,0.2-1.5,0.6s-0.6,0.9-0.6,1.6
			s0.2,1.2,0.6,1.6S270.6,360.1,271.2,360.1z"/>
		<path d="M277.3,370.1l-1-0.7c0.3-0.4,0.5-0.9,0.6-1.3s0.2-0.9,0.2-1.4v-1.3h1.7v1.3c0,0.6-0.1,1.2-0.4,1.8
			S277.8,369.7,277.3,370.1z"/>
		<path d="M284.3,367.5c-0.7,0-1.4-0.1-1.9-0.4s-1-0.7-1.3-1.2s-0.5-1.2-0.5-1.9v-0.1h1.6c0,0.7,0.2,1.2,0.6,1.6s0.9,0.6,1.6,0.6
			s1.3-0.3,1.7-0.8s0.6-1.2,0.6-2.1c0-0.8-0.2-1.5-0.6-2s-1-0.8-1.7-0.8s-1.2,0.1-1.5,0.3s-0.5,0.5-0.7,0.9l-1.4-0.1l0.7-7h6.8v2.5
			H287l-0.2-1H283l-0.4,3.6c0.2-0.1,0.4-0.3,0.6-0.4s0.4-0.2,0.7-0.3s0.5-0.1,0.8-0.1c0.8,0,1.5,0.2,2,0.5s1,0.8,1.3,1.5
			s0.5,1.4,0.5,2.3s-0.2,1.6-0.5,2.2s-0.8,1.1-1.4,1.5C285.9,367.3,285.2,367.5,284.3,367.5z"/>
		<path d="M294.2,367.3v-1.1l1.4-0.2v-11l-1.4-0.2v-1.1h3.2V366l1.4,0.2v1.1L294.2,367.3L294.2,367.3z M297.3,364.6l-0.6-1.4
			l4.1-4.1V359l-1-0.1v-1.1h4.1v1.1l-1.2,0.2L297.3,364.6z M300.4,367.3v-1.1l1-0.1l0,0l-2.8-3.6l0.9-1.4l3.8,4.9l1.4,0.2v1.1H300.4
			z"/>
		<path d="M305.6,367.3v-1.1l1.4-0.2v-6.8l-1.4-0.2v-1.1h3l0.1,1.2c0.3-0.5,0.7-0.8,1.2-1s1-0.4,1.7-0.4s1.2,0.1,1.6,0.4
			s0.8,0.7,1,1.3c0.3-0.5,0.7-1,1.2-1.3s1.1-0.5,1.7-0.5c1,0,1.7,0.3,2.3,1s0.8,1.7,0.8,3v4.3l1.4,0.2v1.1H317v-1.1l1.4-0.2v-4.4
			c0-0.9-0.2-1.6-0.5-2s-0.8-0.6-1.4-0.6s-1.1,0.2-1.5,0.6s-0.6,1-0.6,1.6v4.7l1.4,0.2v1.1h-4.6V366l1.4-0.2v-4.4
			c0-0.9-0.2-1.5-0.5-2c-0.3-0.4-0.8-0.6-1.4-0.6c-0.5,0-1,0.1-1.3,0.3s-0.6,0.5-0.8,0.9v5.7l1.4,0.2v1.1h-4.4V367.3z"/>
	</g>
</g>
<line class="st8" x1="147" y1="347.5" x2="432.8" y2="347.5"/>
<line class="st3" x1="147" y1="351.7" x2="147" y2="339.8"/>
<line class="st3" x1="432.8" y1="351.7" x2="432.8" y2="339.8"/>
<g class="st6">
	<g class="st7">
		<path d="M62.1,79.6v-1.2l4.2-4.7c0.5-0.6,0.9-1,1.2-1.4s0.5-0.8,0.6-1.1s0.2-0.7,0.2-1c0-0.6-0.2-1.2-0.6-1.6S66.7,68,66,68
			c-0.8,0-1.3,0.2-1.8,0.7s-0.6,1.1-0.6,1.9h-1.7v-0.1c0-0.7,0.1-1.4,0.5-2s0.8-1.1,1.4-1.4s1.4-0.5,2.2-0.5s1.5,0.2,2.1,0.5
			s1,0.7,1.3,1.3s0.5,1.1,0.5,1.8c0,0.5-0.1,0.9-0.3,1.4s-0.5,0.9-0.8,1.4s-0.8,1-1.3,1.5l-3.4,3.7l0,0h4.5l0.1-1.5h1.5v2.8
			L62.1,79.6L62.1,79.6z"/>
		<path d="M76.2,79.8c-0.8,0-1.6-0.1-2.2-0.4s-1.1-0.7-1.5-1.2S72,77,72,76.2c0-0.7,0.2-1.4,0.7-1.9s1-1,1.8-1.2
			c-0.6-0.2-1.1-0.6-1.5-1.1s-0.5-1.1-0.5-1.8c0-0.8,0.2-1.4,0.5-1.9s0.8-0.9,1.3-1.2s1.2-0.4,2-0.4s1.4,0.1,2,0.4s1,0.7,1.3,1.2
			s0.5,1.2,0.5,1.9c0,0.7-0.2,1.3-0.6,1.8s-0.9,0.9-1.5,1.1c0.7,0.3,1.3,0.7,1.8,1.2s0.7,1.2,0.7,1.9c0,0.8-0.2,1.5-0.5,2
			s-0.8,1-1.5,1.2S77,79.8,76.2,79.8z M76.2,78.5c0.5,0,0.9-0.1,1.3-0.3s0.7-0.5,0.9-0.8s0.3-0.8,0.3-1.2c0-0.5-0.1-0.9-0.3-1.2
			s-0.5-0.6-0.9-0.9s-0.8-0.3-1.3-0.3s-0.9,0.1-1.3,0.3s-0.6,0.5-0.9,0.8s-0.3,0.8-0.3,1.3c0,0.7,0.2,1.3,0.7,1.7
			S75.4,78.5,76.2,78.5z M76.2,72.4c0.4,0,0.8-0.1,1.1-0.3s0.6-0.4,0.7-0.8s0.3-0.7,0.3-1.1s-0.1-0.8-0.3-1.1s-0.4-0.6-0.7-0.8
			S76.5,68,76.1,68c-0.6,0-1.1,0.2-1.5,0.6S74,69.5,74,70.2s0.2,1.2,0.6,1.6S75.5,72.4,76.2,72.4z"/>
		<path d="M86,79.6v-1.1l1.4-0.2v-1.6h-5.7v-1l5.6-8.9h1.8v8.5h1.8v1.4h-1.8v1.6l1.4,0.2v1.1H86z M83.5,75.3h3.9v-6h-0.1l-0.2,0.5
			L83.5,75.3z"/>
		<path d="M96.1,79.8c-0.7,0-1.4-0.1-1.9-0.4s-1-0.7-1.3-1.2s-0.5-1.2-0.5-1.9v-0.1H94c0,0.7,0.2,1.2,0.6,1.6s0.9,0.6,1.6,0.6
			s1.3-0.3,1.7-0.8s0.6-1.2,0.6-2.1c0-0.8-0.2-1.5-0.6-2s-1-0.8-1.7-0.8S95,72.8,94.7,73s-0.6,0.6-0.7,1l-1.4-0.1l0.7-7h6.8v2.5
			h-1.3l-0.2-1h-3.8L94.3,72c0.2-0.1,0.4-0.3,0.6-0.4s0.4-0.2,0.7-0.3s0.5-0.1,0.8-0.1c0.8,0,1.5,0.2,2,0.5s1,0.8,1.3,1.5
			s0.5,1.4,0.5,2.3s-0.2,1.6-0.5,2.2s-0.8,1.1-1.4,1.5S97,79.8,96.1,79.8z"/>
		<path d="M106.2,79.6v-1.1l1.4-0.2v-6.8l-1.4-0.2v-1.1h3l0.1,1.2c0.3-0.5,0.7-0.8,1.2-1s1-0.4,1.7-0.4s1.2,0.1,1.6,0.4
			s0.8,0.7,1,1.3c0.3-0.5,0.7-1,1.2-1.3s1.1-0.5,1.7-0.5c1,0,1.7,0.3,2.3,1s0.8,1.7,0.8,3v4.3l1.4,0.2v1.1h-4.6v-1.1l1.4-0.2v-4.4
			c0-0.9-0.2-1.6-0.5-2s-0.8-0.6-1.4-0.6s-1.1,0.2-1.5,0.6s-0.6,1-0.6,1.6v4.7l1.4,0.2v1.1h-4.6v-1.1l1.4-0.2v-4.4
			c0-0.9-0.2-1.5-0.5-2s-0.8-0.6-1.4-0.6c-0.5,0-1,0.1-1.3,0.3s-0.6,0.5-0.8,0.9V78l1.4,0.2v1.1h-4.4V79.6z"/>
		<path d="M127.4,79.8c-0.6,0-1.2-0.1-1.8-0.2s-1.1-0.3-1.8-0.6v-2.3h1.3l0.3,1.4c0.3,0.1,0.6,0.2,1,0.3s0.6,0.1,1,0.1
			c0.7,0,1.2-0.1,1.5-0.4s0.5-0.6,0.5-1s-0.2-0.7-0.5-1s-0.9-0.5-1.7-0.7c-1.1-0.3-2-0.6-2.5-1.1s-0.8-1-0.8-1.8
			c0-0.5,0.1-1,0.4-1.4s0.7-0.7,1.2-1s1.2-0.4,1.9-0.4c0.7,0,1.3,0.1,1.9,0.2s1,0.4,1.3,0.7l0.1,2.2h-1.3l-0.3-1.3
			c-0.2-0.2-0.4-0.3-0.7-0.4s-0.6-0.1-1-0.1c-0.5,0-1,0.1-1.3,0.4s-0.5,0.6-0.5,0.9c0,0.2,0,0.4,0.1,0.6s0.3,0.3,0.6,0.4
			s0.7,0.3,1.2,0.4c1.3,0.3,2.2,0.7,2.8,1.2s0.8,1.1,0.8,1.8c0,0.8-0.3,1.5-0.9,2S128.7,79.8,127.4,79.8z"/>
		<path d="M133.2,79.6v-1.8h1.7v1.8H133.2z"/>
		<path d="M136.9,79.6v-1.1l1.4-0.2v-6.8l-1.4-0.2v-1.1h3l0.1,1.4c0.3-0.5,0.7-0.9,1.2-1.2s1-0.4,1.6-0.4c1,0,1.8,0.3,2.4,0.9
			s0.8,1.5,0.8,2.8v4.6l1.4,0.2v1.1h-4.6v-1.1l1.4-0.2v-4.6c0-0.8-0.2-1.4-0.5-1.8s-0.8-0.5-1.5-0.5c-0.5,0-0.9,0.1-1.3,0.4
			s-0.7,0.6-0.9,1v5.6l1.4,0.2v1.1h-4.5V79.6z"/>
		<path d="M149.3,79.6v-1.8h1.7v1.8H149.3z"/>
		<path d="M153,79.6v-1.1l1.4-0.2v-6.8l-1.4-0.2v-1.1h3l0.1,1.2c0.3-0.5,0.7-0.8,1.2-1s1-0.4,1.7-0.4s1.2,0.1,1.6,0.4s0.8,0.7,1,1.3
			c0.3-0.5,0.7-1,1.2-1.3s1.1-0.5,1.7-0.5c1,0,1.7,0.3,2.3,1s0.8,1.7,0.8,3v4.3l1.4,0.2v1.1h-4.6v-1.1l1.4-0.2v-4.4
			c0-0.9-0.2-1.6-0.5-2s-0.8-0.6-1.4-0.6c-0.6,0-1.1,0.2-1.5,0.6s-0.6,1-0.6,1.6v4.7l1.4,0.2v1.1h-4.6v-1.1l1.4-0.2v-4.4
			c0-0.9-0.2-1.5-0.5-2s-0.8-0.6-1.4-0.6c-0.5,0-1,0.1-1.3,0.3s-0.6,0.5-0.8,0.9V78l1.4,0.2v1.1H153V79.6z"/>
	</g>
</g>
<line class="st8" x1="1094.4" y1="76.3" x2="174.7" y2="76.3"/>
<g class="st6">
	<g class="st7">
		<path d="M892,57.6c-1.5,0-2.7-0.3-3.7-1s-1.8-1.6-2.3-2.7c-0.5-1.1-0.8-2.4-0.8-3.9v-0.2c0-1.5,0.3-2.8,0.8-3.9
			c0.5-1.1,1.3-2,2.3-2.7s2.2-1,3.5-1c1,0,1.8,0.2,2.6,0.5s1.5,0.7,2,1.1V47h-1.6l-0.2-2.4c-0.2-0.2-0.5-0.3-0.8-0.4
			c-0.3-0.1-0.6-0.2-0.9-0.3c-0.3-0.1-0.7-0.1-1.1-0.1c-1,0-1.8,0.3-2.5,0.8s-1.2,1.2-1.5,2.1s-0.5,1.9-0.5,3.1V50
			c0,1.2,0.2,2.3,0.6,3.2c0.4,0.9,0.9,1.6,1.6,2c0.7,0.5,1.6,0.7,2.6,0.7c0.5,0,0.9-0.1,1.4-0.2s0.8-0.3,1.1-0.5l0.2-2.1h1.6v3.2
			c-0.6,0.3-1.2,0.6-2,0.8C893.6,57.5,892.8,57.6,892,57.6z"/>
		<path d="M903.4,57.6c-1,0-1.9-0.2-2.7-0.7s-1.3-1.1-1.8-2c-0.4-0.8-0.6-1.8-0.6-2.9v-0.5c0-1.1,0.2-2,0.7-2.8c0.4-0.8,1-1.5,1.7-2
			s1.5-0.7,2.4-0.7c1,0,1.8,0.2,2.5,0.6c0.7,0.4,1.2,1,1.5,1.7s0.5,1.6,0.5,2.6v1.3h-7.2v0.1c0,0.7,0.1,1.3,0.4,1.9
			c0.2,0.6,0.6,1,1,1.3s1,0.5,1.6,0.5c0.7,0,1.3-0.1,1.8-0.3s1-0.5,1.3-0.8l0.8,1.3c-0.4,0.4-0.9,0.7-1.6,1
			C905.1,57.4,904.3,57.6,903.4,57.6z M900.5,50.7h5.1v-0.3c0-0.5-0.1-1-0.3-1.4s-0.5-0.8-0.8-1c-0.4-0.2-0.8-0.4-1.4-0.4
			c-0.5,0-0.9,0.1-1.2,0.4c-0.4,0.3-0.7,0.6-0.9,1.1S900.6,50.1,900.5,50.7L900.5,50.7z"/>
		<path d="M909.2,57.4v-1.3l1.7-0.3v-7.9l-1.7-0.3v-1.3h3.5l0.2,1.4v0.2c0.3-0.6,0.7-1,1.2-1.3s1-0.5,1.6-0.5c0.2,0,0.4,0,0.7,0.1
			c0.2,0,0.4,0.1,0.5,0.1l-0.3,1.9l-1.4-0.1c-0.5,0-1,0.1-1.3,0.4c-0.4,0.3-0.6,0.6-0.8,1.1v6.3l1.7,0.3v1.3h-5.6V57.4z"/>
		<path d="M918,57.4v-1.3l1.7-0.3v-7.9l-1.7-0.3v-1.3h3.5l0.2,1.4v0.2c0.3-0.6,0.7-1,1.2-1.3s1-0.5,1.6-0.5c0.2,0,0.4,0,0.7,0.1
			c0.2,0,0.4,0.1,0.5,0.1l-0.3,1.9l-1.4-0.1c-0.5,0-1,0.1-1.3,0.4c-0.4,0.3-0.6,0.6-0.8,1.1v6.3l1.7,0.3v1.3H918V57.4z"/>
		<path d="M931.8,57.6c-1,0-1.9-0.2-2.7-0.7c-0.7-0.5-1.3-1.1-1.7-2s-0.6-1.8-0.6-2.9v-0.2c0-1.1,0.2-2.1,0.6-2.9
			c0.4-0.9,1-1.5,1.7-2s1.6-0.7,2.6-0.7s1.9,0.2,2.7,0.7c0.7,0.5,1.3,1.2,1.7,2s0.6,1.8,0.6,2.9V52c0,1.1-0.2,2.1-0.6,2.9
			c-0.4,0.9-1,1.5-1.7,2S932.8,57.6,931.8,57.6z M931.8,56c0.6,0,1.2-0.2,1.6-0.5c0.4-0.4,0.8-0.8,1-1.4c0.2-0.6,0.3-1.3,0.3-2.1
			v-0.2c0-0.8-0.1-1.5-0.3-2.1s-0.6-1.1-1-1.4c-0.4-0.4-1-0.5-1.6-0.5s-1.2,0.2-1.6,0.5c-0.4,0.4-0.8,0.8-1,1.4
			c-0.2,0.6-0.3,1.3-0.3,2.1V52c0,0.8,0.1,1.5,0.3,2.1s0.5,1.1,1,1.4C930.6,55.8,931.1,56,931.8,56z"/>
		<path d="M943.6,57.4v-1.3l1.7-0.3V44l-1.7-0.3v-1.3h1.7h5.2c1.1,0,2,0.2,2.7,0.6c0.8,0.4,1.3,0.9,1.7,1.6s0.6,1.5,0.6,2.3
			c0,0.9-0.2,1.7-0.6,2.4s-1,1.2-1.7,1.6s-1.7,0.6-2.7,0.6h-3.2v4.4l1.7,0.3v1.3L943.6,57.4L943.6,57.4z M947.2,49.8h3.2
			c1,0,1.8-0.3,2.3-0.8s0.8-1.2,0.8-2.1s-0.3-1.5-0.8-2.1s-1.3-0.8-2.3-0.8h-3.2V49.8z"/>
		<path d="M960.4,57.6c-1.2,0-2-0.3-2.6-0.8c-0.6-0.6-0.9-1.4-0.9-2.4c0-0.7,0.2-1.3,0.6-1.8c0.4-0.5,0.9-0.9,1.7-1.2
			c0.7-0.3,1.6-0.4,2.6-0.4h2v-1.1c0-0.7-0.2-1.2-0.6-1.6c-0.4-0.4-1-0.6-1.7-0.6c-0.5,0-0.9,0.1-1.2,0.2c-0.3,0.1-0.7,0.3-0.9,0.5
			l-0.2,1.5h-1.6v-2.5c0.5-0.4,1.1-0.7,1.7-0.9c0.7-0.2,1.4-0.3,2.2-0.3c1.3,0,2.4,0.3,3.2,1s1.1,1.6,1.1,2.8v5.3c0,0.1,0,0.3,0,0.4
			c0,0.1,0,0.3,0,0.4l1.1,0.1v1.3H964c-0.1-0.3-0.1-0.6-0.1-0.8s-0.1-0.5-0.1-0.7c-0.4,0.5-0.9,0.9-1.5,1.2
			C961.7,57.4,961,57.6,960.4,57.6z M960.7,55.9c0.7,0,1.3-0.2,1.8-0.5c0.6-0.3,1-0.7,1.2-1.2v-2h-2.1c-0.9,0-1.6,0.2-2.1,0.7
			c-0.5,0.4-0.7,0.9-0.7,1.5c0,0.5,0.2,0.9,0.5,1.1C959.6,55.7,960.1,55.9,960.7,55.9z"/>
		<path d="M968.3,57.4v-1.3l1.7-0.3v-7.9l-1.7-0.3v-1.3h3.7v9.5l1.7,0.3v1.3H968.3z M969.9,43.5v-2.2h2.1v2.2H969.9z"/>
		<path d="M975.1,57.4v-1.3l1.7-0.3v-7.9l-1.7-0.3v-1.3h3.5l0.1,1.7c0.4-0.6,0.8-1,1.4-1.4c0.6-0.3,1.2-0.5,1.9-0.5
			c1.2,0,2.1,0.4,2.8,1.1c0.7,0.7,1,1.8,1,3.2v5.4l1.7,0.3v1.3h-5.4v-1.3l1.7-0.3v-5.4c0-1-0.2-1.7-0.6-2.1c-0.4-0.4-1-0.6-1.8-0.6
			c-0.6,0-1.1,0.1-1.5,0.4c-0.4,0.3-0.8,0.7-1.1,1.1v6.5l1.7,0.3v1.3L975.1,57.4L975.1,57.4z"/>
		<path d="M993.9,57.6c-1,0-1.9-0.2-2.7-0.7s-1.3-1.1-1.8-2c-0.4-0.8-0.6-1.8-0.6-2.9v-0.5c0-1.1,0.2-2,0.7-2.8c0.4-0.8,1-1.5,1.7-2
			s1.5-0.7,2.4-0.7c1,0,1.8,0.2,2.5,0.6c0.7,0.4,1.2,1,1.5,1.7s0.5,1.6,0.5,2.6v1.3h-7.2v0.1c0,0.7,0.1,1.3,0.4,1.9
			c0.2,0.6,0.6,1,1,1.3s1,0.5,1.6,0.5c0.7,0,1.3-0.1,1.8-0.3s1-0.5,1.3-0.8l0.8,1.3c-0.4,0.4-0.9,0.7-1.6,1
			C995.6,57.4,994.8,57.6,993.9,57.6z M991,50.7h5.1v-0.3c0-0.5-0.1-1-0.3-1.4s-0.5-0.8-0.8-1c-0.4-0.2-0.8-0.4-1.4-0.4
			c-0.5,0-0.9,0.1-1.2,0.4c-0.4,0.3-0.7,0.6-0.9,1.1S991.1,50.1,991,50.7L991,50.7z"/>
		<path d="M1011.7,57.6c-1.4,0-2.6-0.3-3.6-1c-1-0.6-1.8-1.5-2.3-2.7s-0.8-2.4-0.8-3.9v-0.2c0-1.5,0.3-2.8,0.8-4
			c0.6-1.1,1.3-2,2.3-2.7s2-1,3.3-1c1.2,0,2.1,0.1,3,0.4c0.8,0.3,1.5,0.6,2.1,1.1v3h-1.7l-0.2-2.2c-0.3-0.2-0.7-0.4-1.2-0.5
			s-1.1-0.2-1.7-0.2c-0.9,0-1.6,0.2-2.3,0.7s-1.2,1.2-1.6,2.1c-0.4,0.9-0.6,1.9-0.6,3.1V50c0,1.2,0.2,2.2,0.5,3.1
			c0.4,0.9,0.9,1.6,1.6,2.1c0.7,0.5,1.6,0.7,2.6,0.7c0.7,0,1.3-0.1,1.7-0.2c0.5-0.1,0.9-0.3,1.2-0.5v-3.5l-2.9-0.1v-1.5h4.9V56
			c-0.4,0.4-1,0.8-1.9,1.1C1014.1,57.4,1013,57.6,1011.7,57.6z"/>
		<path d="M1018.7,57.4v-1.3l1.7-0.3v-7.9l-1.7-0.3v-1.3h3.5l0.2,1.4v0.2c0.3-0.6,0.7-1,1.2-1.3c0.5-0.3,1-0.5,1.6-0.5
			c0.2,0,0.4,0,0.7,0.1c0.2,0,0.4,0.1,0.5,0.1l-0.3,1.9l-1.4-0.1c-0.5,0-1,0.1-1.3,0.4c-0.4,0.3-0.6,0.6-0.8,1.1v6.3l1.7,0.3v1.3
			h-5.6V57.4z"/>
		<path d="M1031.1,57.6c-1.2,0-2-0.3-2.6-0.8c-0.6-0.6-0.9-1.4-0.9-2.4c0-0.7,0.2-1.3,0.6-1.8s0.9-0.9,1.7-1.2
			c0.7-0.3,1.6-0.4,2.6-0.4h2v-1.1c0-0.7-0.2-1.2-0.6-1.6c-0.4-0.4-1-0.6-1.7-0.6c-0.5,0-0.9,0.1-1.2,0.2c-0.3,0.1-0.7,0.3-0.9,0.5
			l-0.2,1.5h-1.6v-2.5c0.5-0.4,1.1-0.7,1.7-0.9c0.7-0.2,1.4-0.3,2.2-0.3c1.3,0,2.4,0.3,3.2,1s1.1,1.6,1.1,2.8v5.3c0,0.1,0,0.3,0,0.4
			c0,0.1,0,0.3,0,0.4l1.1,0.1v1.3h-2.9c-0.1-0.3-0.1-0.6-0.1-0.8s-0.1-0.5-0.1-0.7c-0.4,0.5-0.9,0.9-1.5,1.2
			C1032.4,57.4,1031.7,57.6,1031.1,57.6z M1031.4,55.9c0.7,0,1.3-0.2,1.8-0.5c0.6-0.3,1-0.7,1.2-1.2v-2h-2.1c-0.9,0-1.6,0.2-2.1,0.7
			c-0.5,0.4-0.7,0.9-0.7,1.5c0,0.5,0.2,0.9,0.5,1.1C1030.3,55.7,1030.8,55.9,1031.4,55.9z"/>
		<path d="M1039.1,57.4v-1.3l1.7-0.3v-7.9l-1.7-0.3v-1.3h3.5l0.1,1.7c0.4-0.6,0.8-1,1.4-1.4c0.6-0.3,1.2-0.5,1.9-0.5
			c1.2,0,2.1,0.4,2.8,1.1c0.7,0.7,1,1.8,1,3.2v5.4l1.7,0.3v1.3h-5.4v-1.3l1.7-0.3v-5.4c0-1-0.2-1.7-0.6-2.1c-0.4-0.4-1-0.6-1.8-0.6
			c-0.6,0-1.1,0.1-1.5,0.4c-0.4,0.3-0.8,0.7-1.1,1.1v6.5l1.7,0.3v1.3L1039.1,57.4L1039.1,57.4z"/>
		<path d="M1057.2,57.6c-0.9,0-1.7-0.2-2.3-0.7c-0.6-0.4-1.1-1.1-1.5-1.9c-0.3-0.8-0.5-1.7-0.5-2.8V52c0-1.2,0.2-2.2,0.5-3.1
			s0.8-1.6,1.5-2.1c0.6-0.5,1.4-0.7,2.3-0.7c0.7,0,1.2,0.1,1.7,0.4c0.5,0.2,0.9,0.6,1.3,1.1v-4.5l-1.7-0.3v-1.3h1.7h2v14.4l1.7,0.3
			v1.3h-3.4l-0.2-1.3c-0.4,0.5-0.8,0.9-1.3,1.1C1058.5,57.4,1057.9,57.6,1057.2,57.6z M1057.7,55.9c0.6,0,1.1-0.1,1.5-0.4
			c0.4-0.3,0.7-0.7,1-1.2v-5.1c-0.3-0.5-0.6-0.8-1-1.1s-0.9-0.4-1.5-0.4s-1.2,0.2-1.6,0.5c-0.4,0.4-0.7,0.9-0.9,1.5
			c-0.2,0.6-0.3,1.4-0.3,2.3v0.2c0,1.1,0.2,2,0.7,2.7S1056.8,55.9,1057.7,55.9z"/>
		<path d="M1070.4,57.6c-1,0-1.9-0.2-2.7-0.7c-0.8-0.5-1.3-1.1-1.8-2c-0.4-0.8-0.6-1.8-0.6-2.9v-0.5c0-1.1,0.2-2,0.7-2.8
			c0.4-0.8,1-1.5,1.7-2s1.5-0.7,2.4-0.7c1,0,1.8,0.2,2.5,0.6c0.7,0.4,1.2,1,1.5,1.7s0.5,1.6,0.5,2.6v1.3h-7.2v0.1
			c0,0.7,0.1,1.3,0.4,1.9c0.2,0.6,0.6,1,1,1.3s1,0.5,1.6,0.5c0.7,0,1.3-0.1,1.8-0.3s1-0.5,1.3-0.8l0.8,1.3c-0.4,0.4-0.9,0.7-1.6,1
			C1072.1,57.4,1071.3,57.6,1070.4,57.6z M1067.5,50.7h5.1v-0.3c0-0.5-0.1-1-0.3-1.4c-0.2-0.4-0.5-0.8-0.8-1
			c-0.4-0.2-0.8-0.4-1.4-0.4c-0.5,0-0.9,0.1-1.2,0.4c-0.4,0.3-0.7,0.6-0.9,1.1S1067.6,50.1,1067.5,50.7L1067.5,50.7z"/>
	</g>
</g>
<g class="st6">
	<g class="st7">
		<path d="M477.3,105.5l-5-13.5l-1.2-0.2v-1.3h4.7v1.3l-1.4,0.2l3.3,9.5l0.3,1.2h0.1l0.4-1.2L482,92l-1.5-0.2v-1.3h4.7v1.3L484,92
			l-5,13.5H477.3z"/>
		<path d="M491.6,105.7c-1,0-1.9-0.2-2.7-0.7c-0.7-0.5-1.3-1.1-1.7-2c-0.4-0.9-0.6-1.8-0.6-2.9v-0.2c0-1.1,0.2-2.1,0.6-2.9
			c0.4-0.9,1-1.5,1.7-2s1.6-0.7,2.6-0.7s1.9,0.2,2.7,0.7c0.7,0.5,1.3,1.2,1.7,2s0.6,1.8,0.6,2.9v0.2c0,1.1-0.2,2.1-0.6,2.9
			c-0.4,0.9-1,1.5-1.7,2S492.6,105.7,491.6,105.7z M491.6,104.1c0.6,0,1.2-0.2,1.6-0.5c0.4-0.4,0.8-0.8,1-1.4s0.3-1.3,0.3-2.1v-0.2
			c0-0.8-0.1-1.5-0.3-2.1c-0.2-0.6-0.6-1.1-1-1.4c-0.4-0.4-1-0.5-1.6-0.5s-1.2,0.2-1.6,0.5c-0.4,0.4-0.8,0.8-1,1.4s-0.3,1.3-0.3,2.1
			v0.2c0,0.8,0.1,1.5,0.3,2.1c0.2,0.6,0.5,1.1,1,1.4C490.4,104,491,104.1,491.6,104.1z"/>
		<path d="M498,105.5v-1.3l1.7-0.3V91.1l-1.7-0.3v-1.3h3.7v14.4l1.7,0.3v1.3H498z"/>
		<path d="M509.9,105.7c-1,0-1.9-0.2-2.6-0.7s-1.3-1.1-1.7-2s-0.6-1.8-0.6-2.9v-0.4c0-1.1,0.2-2,0.6-2.8s1-1.5,1.7-2
			s1.6-0.7,2.7-0.7c0.9,0,1.7,0.1,2.4,0.4s1.2,0.7,1.7,1.2l0.1,2.7h-1.6l-0.3-1.9c-0.2-0.2-0.5-0.4-0.9-0.6s-0.8-0.2-1.2-0.2
			c-0.6,0-1.1,0.2-1.6,0.5c-0.5,0.4-0.8,0.8-1.1,1.4s-0.4,1.3-0.4,2v0.4c0,0.8,0.1,1.5,0.4,2.1c0.2,0.6,0.6,1.1,1,1.4s1,0.5,1.6,0.5
			c0.7,0,1.3-0.2,1.7-0.6s0.7-0.9,0.8-1.5h1.8v0.1c0,0.6-0.2,1.2-0.6,1.8c-0.3,0.6-0.8,1-1.5,1.3
			C511.6,105.5,510.8,105.7,509.9,105.7z"/>
		<path d="M519.4,105.7c-1.2,0-2-0.3-2.6-0.8c-0.6-0.6-0.9-1.4-0.9-2.4c0-0.7,0.2-1.3,0.6-1.8c0.4-0.5,0.9-0.9,1.7-1.2
			c0.7-0.3,1.6-0.4,2.6-0.4h2V98c0-0.7-0.2-1.2-0.6-1.6c-0.4-0.4-1-0.6-1.7-0.6c-0.5,0-0.9,0.1-1.2,0.2s-0.7,0.3-0.9,0.5L518,98
			h-1.6v-2.5c0.5-0.4,1.1-0.7,1.7-0.9c0.7-0.2,1.4-0.3,2.2-0.3c1.3,0,2.4,0.3,3.2,1s1.1,1.6,1.1,2.8v5.3c0,0.1,0,0.3,0,0.4
			s0,0.3,0,0.4l1.1,0.1v1.3h-2.9c-0.1-0.3-0.1-0.6-0.1-0.8c0-0.2-0.1-0.5-0.1-0.7c-0.4,0.5-0.9,0.9-1.5,1.2
			C520.7,105.5,520,105.7,519.4,105.7z M519.7,104c0.7,0,1.3-0.2,1.8-0.5c0.6-0.3,1-0.7,1.2-1.2v-2h-2.1c-0.9,0-1.6,0.2-2.1,0.7
			c-0.5,0.4-0.7,0.9-0.7,1.5c0,0.5,0.2,0.9,0.5,1.1C518.6,103.9,519.1,104,519.7,104z M519.3,92.3l1.9-2.8h2.4v0.1l-2.8,2.7
			L519.3,92.3L519.3,92.3z"/>
		<path d="M527.4,105.5v-1.3l1.7-0.3V96l-1.7-0.3v-1.3h3.5l0.1,1.7c0.4-0.6,0.8-1,1.4-1.4c0.6-0.3,1.2-0.5,1.9-0.5
			c1.2,0,2.1,0.4,2.8,1.1s1,1.8,1,3.2v5.4l1.7,0.3v1.3h-5.4v-1.3l1.7-0.3v-5.4c0-1-0.2-1.7-0.6-2.1c-0.4-0.4-1-0.6-1.8-0.6
			c-0.6,0-1.1,0.1-1.5,0.4s-0.8,0.7-1.1,1.1v6.5l1.7,0.3v1.3h-5.4V105.5z"/>
		<path d="M546.6,105.5v-1.3l1.7-0.3V92.2l-1.7-0.3v-1.3h1.7h2.7l4.8,11.3h0.1l4.7-11.3h4.5v1.3l-1.7,0.3V104l1.7,0.3v1.3h-5.4v-1.3
			l1.8-0.3v-4.3v-6.3h-0.1l-4.9,11.6h-1.3l-5-11.6h-0.1l0.1,6.2v4.3l1.8,0.3v1.3H546.6z"/>
		<path d="M566.6,105.5v-1.3l1.7-0.3V96l-1.7-0.3v-1.3h3.7v9.5l1.7,0.3v1.3H566.6z M568.2,91.7v-2.2h2.1v2.2H568.2z"/>
		<path d="M578.4,105.7c-1,0-1.9-0.2-2.6-0.7c-0.7-0.5-1.3-1.1-1.7-2s-0.6-1.8-0.6-2.9v-0.4c0-1.1,0.2-2,0.6-2.8s1-1.5,1.7-2
			s1.6-0.7,2.7-0.7c0.9,0,1.7,0.1,2.4,0.4s1.2,0.7,1.7,1.2l0.1,2.7h-1.6l-0.3-1.9c-0.2-0.2-0.5-0.4-0.9-0.6s-0.8-0.2-1.2-0.2
			c-0.6,0-1.1,0.2-1.6,0.5c-0.5,0.4-0.8,0.8-1.1,1.4s-0.4,1.3-0.4,2v0.4c0,0.8,0.1,1.5,0.4,2.1c0.2,0.6,0.6,1.1,1,1.4s1,0.5,1.6,0.5
			c0.7,0,1.3-0.2,1.7-0.6s0.7-0.9,0.8-1.5h1.8v0.1c0,0.6-0.2,1.2-0.6,1.8c-0.3,0.6-0.8,1-1.5,1.3
			C580.1,105.5,579.3,105.7,578.4,105.7z"/>
		<path d="M584.1,105.5v-1.3l1.7-0.3V91.1l-1.7-0.3v-1.3h3.7v6.4c0.4-0.5,0.9-0.9,1.4-1.2c0.6-0.3,1.2-0.4,1.8-0.4
			c1.2,0,2.1,0.4,2.8,1.1s1,1.8,1,3.3v5.4l1.7,0.3v1.3h-5.4v-1.3l1.7-0.3v-5.4c0-0.9-0.2-1.6-0.6-2c-0.4-0.4-1-0.7-1.8-0.7
			c-0.6,0-1.1,0.1-1.5,0.4c-0.5,0.3-0.8,0.6-1.1,1.1v6.6l1.7,0.3v1.3h-5.4V105.5z"/>
		<path d="M597.7,105.5v-1.3l1.7-0.3V96l-1.7-0.3v-1.3h3.7v9.5l1.7,0.3v1.3H597.7z M599.3,91.7v-2.2h2.1v2.2H599.3z"/>
		<path d="M604.5,105.5v-1.3l1.7-0.3V96l-1.7-0.3v-1.3h3.5l0.1,1.7c0.4-0.6,0.8-1,1.4-1.4c0.6-0.3,1.2-0.5,1.9-0.5
			c1.2,0,2.1,0.4,2.8,1.1s1,1.8,1,3.2v5.4l1.7,0.3v1.3h-5.4v-1.3l1.7-0.3v-5.4c0-1-0.2-1.7-0.6-2.1c-0.4-0.4-1-0.6-1.8-0.6
			c-0.6,0-1.1,0.1-1.5,0.4s-0.8,0.7-1.1,1.1v6.5l1.7,0.3v1.3h-5.4V105.5z"/>
		<path d="M618.3,105.5v-1.3l1.7-0.3V96l-1.7-0.3v-1.3h3.5l0.1,1.4c0.4-0.5,0.8-0.9,1.4-1.2s1.2-0.4,1.9-0.4s1.4,0.2,1.9,0.5
			s0.9,0.9,1.2,1.5c0.3-0.6,0.8-1.1,1.4-1.5s1.2-0.6,2-0.6c1.1,0,2,0.4,2.7,1.2c0.7,0.8,1,1.9,1,3.5v5.1l1.7,0.3v1.3h-5.4v-1.3
			l1.7-0.3v-5.1c0-1.1-0.2-1.9-0.6-2.3c-0.4-0.5-0.9-0.7-1.7-0.7c-0.7,0-1.3,0.2-1.7,0.7s-0.7,1.1-0.7,1.9v5.5l1.7,0.3v1.3H625v-1.3
			l1.7-0.3v-5.1c0-1-0.2-1.8-0.6-2.3c-0.4-0.5-0.9-0.7-1.7-0.7c-0.6,0-1.1,0.1-1.5,0.4s-0.7,0.6-0.9,1.1v6.6l1.7,0.3v1.3H618.3z"/>
		<path d="M642.1,105.7c-1.2,0-2-0.3-2.6-0.8c-0.6-0.6-0.9-1.4-0.9-2.4c0-0.7,0.2-1.3,0.6-1.8c0.4-0.5,0.9-0.9,1.7-1.2
			c0.7-0.3,1.6-0.4,2.6-0.4h2V98c0-0.7-0.2-1.2-0.6-1.6c-0.4-0.4-1-0.6-1.7-0.6c-0.5,0-0.9,0.1-1.2,0.2s-0.7,0.3-0.9,0.5l-0.2,1.5
			h-1.6v-2.5c0.5-0.4,1.1-0.7,1.7-0.9c0.7-0.2,1.4-0.3,2.2-0.3c1.3,0,2.4,0.3,3.2,1s1.1,1.6,1.1,2.8v5.3c0,0.1,0,0.3,0,0.4
			s0,0.3,0,0.4l1.1,0.1v1.3h-2.9c-0.1-0.3-0.1-0.6-0.1-0.8c0-0.2-0.1-0.5-0.1-0.7c-0.4,0.5-0.9,0.9-1.5,1.2
			C643.4,105.5,642.8,105.7,642.1,105.7z M642.4,104c0.7,0,1.3-0.2,1.8-0.5c0.6-0.3,1-0.7,1.2-1.2v-2h-2.1c-0.9,0-1.6,0.2-2.1,0.7
			c-0.5,0.4-0.7,0.9-0.7,1.5c0,0.5,0.2,0.9,0.5,1.1C641.4,103.9,641.8,104,642.4,104z"/>
		<path d="M649.9,105.5v-1.3l1.7-0.3V91.1l-1.7-0.3v-1.3h3.7v6.4c0.4-0.5,0.9-0.9,1.4-1.2c0.6-0.3,1.2-0.4,1.8-0.4
			c1.2,0,2.1,0.4,2.8,1.1s1,1.8,1,3.3v5.4l1.7,0.3v1.3h-5.4v-1.3l1.7-0.3v-5.4c0-0.9-0.2-1.6-0.6-2c-0.4-0.4-1-0.7-1.8-0.7
			c-0.6,0-1.1,0.1-1.5,0.4c-0.5,0.3-0.8,0.6-1.1,1.1v6.6l1.7,0.3v1.3h-5.4V105.5z"/>
		<path d="M668.5,105.7c-1.2,0-2.1-0.4-2.8-1.2c-0.7-0.8-1-2-1-3.6v-5l-1.3-0.3v-1.3h1.3h2v6.6c0,1.2,0.2,2,0.5,2.4s0.9,0.7,1.6,0.7
			c0.7,0,1.3-0.1,1.8-0.4s0.8-0.7,1.1-1.2V96l-1.5-0.3v-1.3h1.5h2v9.5l1.3,0.3v1.3h-3.1l-0.1-1.6c-0.3,0.6-0.8,1.1-1.3,1.4
			C669.9,105.5,669.2,105.7,668.5,105.7z"/>
		<path d="M676.3,105.5v-1.3l1.7-0.3V96l-1.7-0.3v-1.3h3.7v9.5l1.7,0.3v1.3H676.3z M677.9,91.7v-2.2h2.1v2.2H677.9z"/>
		<path d="M687.4,105.7c-0.9,0-1.7-0.2-2.3-0.7c-0.6-0.4-1.1-1.1-1.5-1.9c-0.3-0.8-0.5-1.7-0.5-2.8v-0.2c0-1.2,0.2-2.2,0.5-3.1
			s0.8-1.6,1.5-2.1c0.6-0.5,1.4-0.7,2.3-0.7c0.7,0,1.2,0.1,1.7,0.4c0.5,0.2,0.9,0.6,1.3,1.1v-4.5l-1.7-0.3v-1.3h1.7h2V104l1.7,0.3
			v1.3h-3.4l-0.2-1.3c-0.4,0.5-0.8,0.9-1.3,1.1S688.1,105.7,687.4,105.7z M688,104.1c0.6,0,1.1-0.1,1.5-0.4s0.7-0.7,1-1.2v-5.1
			c-0.3-0.5-0.6-0.8-1-1.1s-0.9-0.4-1.5-0.4s-1.2,0.2-1.6,0.5c-0.4,0.4-0.7,0.9-0.9,1.5s-0.3,1.4-0.3,2.3v0.2c0,1.1,0.2,2,0.7,2.7
			S687,104.1,688,104.1z"/>
		<path d="M699.2,105.7c-1.2,0-2-0.3-2.6-0.8c-0.6-0.6-0.9-1.4-0.9-2.4c0-0.7,0.2-1.3,0.6-1.8c0.4-0.5,0.9-0.9,1.7-1.2
			c0.7-0.3,1.6-0.4,2.6-0.4h2V98c0-0.7-0.2-1.2-0.6-1.6c-0.4-0.4-1-0.6-1.7-0.6c-0.5,0-0.9,0.1-1.2,0.2s-0.7,0.3-0.9,0.5L698,98
			h-1.6v-2.5c0.5-0.4,1.1-0.7,1.7-0.9c0.7-0.2,1.4-0.3,2.2-0.3c1.3,0,2.4,0.3,3.2,1s1.1,1.6,1.1,2.8v5.3c0,0.1,0,0.3,0,0.4
			s0,0.3,0,0.4l1.1,0.1v1.3h-2.9c-0.1-0.3-0.1-0.6-0.1-0.8c0-0.2-0.1-0.5-0.1-0.7c-0.4,0.5-0.9,0.9-1.5,1.2
			C700.4,105.5,699.8,105.7,699.2,105.7z M699.5,104c0.7,0,1.3-0.2,1.8-0.5c0.6-0.3,1-0.7,1.2-1.2v-2h-2.1c-0.9,0-1.6,0.2-2.1,0.7
			c-0.5,0.4-0.7,0.9-0.7,1.5c0,0.5,0.2,0.9,0.5,1.1C698.4,103.9,698.8,104,699.5,104z"/>
	</g>
</g>
<g>
	<g>
		<path d="M50.4,125.4V124l4.7-5.2c0.6-0.7,1-1.1,1.3-1.6c0.3-0.4,0.6-0.9,0.7-1.2c0.1-0.3,0.2-0.8,0.2-1.1c0-0.7-0.2-1.3-0.7-1.8
			c-0.4-0.4-1-0.8-1.9-0.8s-1.4,0.2-2,0.8c-0.6,0.6-0.7,1.2-0.7,2.1h-1.8v-0.1c0-0.8,0.1-1.6,0.6-2.2c0.3-0.7,0.9-1.2,1.6-1.6
			c0.7-0.3,1.6-0.6,2.4-0.6c0.9,0,1.7,0.2,2.3,0.6c0.7,0.3,1.1,0.8,1.4,1.4c0.3,0.7,0.6,1.2,0.6,2c0,0.6-0.1,1-0.3,1.6
			s-0.6,1-0.9,1.6c-0.3,0.6-0.9,1.1-1.4,1.7l-3.8,4.1l0,0h5l0.1-1.7h1.7v3.1h-9.1V125.4z"/>
		<path d="M66,125.4v-1.2l1.6-0.2v-1.8h-6.3V121l6.2-9.9h2v9.5h2v1.6h-2v1.8l1.6,0.2v1.2H66z M63.2,120.6h4.3v-6.7h-0.1l-0.2,0.6
			L63.2,120.6z"/>
		<path d="M77.9,125.6c-1.4,0-2.4-0.4-3.3-1.4c-0.9-1-1.2-2.3-1.2-4.2v-3.3c0-1.8,0.4-3.2,1.2-4.2s1.9-1.4,3.3-1.4s2.6,0.4,3.3,1.4
			c0.8,1,1.2,2.3,1.2,4.2v3.3c0,1.8-0.4,3.2-1.2,4.2C80.4,125,79.3,125.6,77.9,125.6z M77.9,124c0.9,0,1.4-0.3,1.9-0.9
			c0.4-0.6,0.7-1.6,0.7-2.8v-4.2c0-1.2-0.2-2.1-0.7-2.8c-0.4-0.7-1.1-0.9-2-0.9s-1.4,0.3-1.9,0.9s-0.7,1.6-0.7,2.8v4.2
			c0,1.2,0.2,2.1,0.7,2.8C76.4,123.7,77,124,77.9,124z"/>
		<path d="M88.6,125.6c-0.8,0-1.6-0.1-2.1-0.4c-0.6-0.3-1.1-0.8-1.4-1.3c-0.3-0.6-0.6-1.3-0.6-2.1v-0.1h1.8c0,0.8,0.2,1.3,0.7,1.8
			s1,0.7,1.8,0.7c0.8,0,1.4-0.3,1.9-0.9c0.4-0.6,0.7-1.3,0.7-2.3c0-0.9-0.2-1.7-0.7-2.2c-0.4-0.6-1.1-0.9-1.9-0.9
			c-0.8,0-1.3,0.1-1.7,0.3c-0.3,0.2-0.6,0.6-0.8,1l-1.6-0.1l0.8-7.8h7.6v2.8h-1.4l-0.2-1.1h-4.2l-0.4,4c0.2-0.1,0.4-0.3,0.7-0.4
			c0.2-0.1,0.4-0.2,0.8-0.3c0.3-0.1,0.6-0.1,0.9-0.1c0.9,0,1.7,0.2,2.2,0.6c0.6,0.3,1.1,0.9,1.4,1.7s0.6,1.6,0.6,2.6
			s-0.2,1.8-0.6,2.4c-0.3,0.7-0.9,1.2-1.6,1.7C90.4,125.4,89.6,125.6,88.6,125.6z"/>
		<path d="M99.9,125.4v-1.2l1.6-0.2v-7.6l-1.6-0.2v-1.3h3.3l0.1,1.3c0.3-0.6,0.8-0.9,1.3-1.1c0.6-0.2,1.1-0.4,1.9-0.4
			s1.3,0.1,1.8,0.4c0.4,0.3,0.9,0.8,1.1,1.4c0.3-0.6,0.8-1.1,1.3-1.4c0.6-0.3,1.2-0.6,1.9-0.6c1.1,0,1.9,0.3,2.6,1.1
			c0.7,0.8,0.9,1.9,0.9,3.3v4.8l1.6,0.2v1.2h-5.1v-1.2l1.6-0.2v-4.9c0-1-0.2-1.8-0.6-2.2c-0.3-0.4-0.9-0.7-1.6-0.7
			c-0.7,0-1.2,0.2-1.7,0.7c-0.4,0.4-0.7,1.1-0.7,1.8v5.2l1.6,0.2v1.2h-5.1v-1.2l1.6-0.2v-4.9c0-1-0.2-1.7-0.6-2.2
			c-0.3-0.4-0.9-0.7-1.6-0.7c-0.6,0-1.1,0.1-1.4,0.3c-0.3,0.2-0.7,0.6-0.9,1v6.3l1.6,0.2v1.2h-4.9V125.4z"/>
		<path d="M123.5,125.6c-0.7,0-1.3-0.1-2-0.2c-0.7-0.1-1.2-0.3-2-0.7v-2.6h1.4l0.3,1.6c0.3,0.1,0.7,0.2,1.1,0.3
			c0.3,0.1,0.7,0.1,1.1,0.1c0.8,0,1.3-0.1,1.7-0.4c0.3-0.3,0.6-0.7,0.6-1.1s-0.2-0.8-0.6-1.1c-0.3-0.3-1-0.6-1.9-0.8
			c-1.2-0.3-2.2-0.7-2.8-1.2c-0.6-0.4-0.9-1.1-0.9-2c0-0.6,0.1-1.1,0.4-1.6s0.8-0.8,1.3-1.1c0.6-0.3,1.3-0.4,2.1-0.4
			c0.8,0,1.4,0.1,2.1,0.2c0.7,0.1,1.1,0.4,1.4,0.8l0.1,2.4h-1.4l-0.3-1.4c-0.2-0.2-0.4-0.3-0.8-0.4c-0.3-0.1-0.7-0.1-1.1-0.1
			c-0.6,0-1.1,0.1-1.4,0.4c-0.3,0.3-0.6,0.7-0.6,1c0,0.2,0,0.4,0.1,0.7c0.1,0.2,0.3,0.3,0.7,0.4c0.3,0.1,0.8,0.3,1.3,0.4
			c1.4,0.3,2.4,0.8,3.1,1.3c0.7,0.6,0.9,1.2,0.9,2c0,0.9-0.3,1.7-1,2.2C125.9,125.3,124.9,125.6,123.5,125.6z"/>
		<path d="M129.8,125.4v-2h1.9v2H129.8z"/>
		<path d="M133.9,125.4v-1.2l1.6-0.2v-7.6l-1.6-0.2v-1.3h3.3l0.1,1.6c0.3-0.6,0.8-1,1.3-1.3c0.6-0.3,1.1-0.4,1.8-0.4
			c1.1,0,2,0.3,2.7,1c0.7,0.7,0.9,1.7,0.9,3.1v5.1l1.6,0.2v1.2h-5.1V124l1.6-0.2v-5.1c0-0.9-0.2-1.6-0.6-2c-0.3-0.4-0.9-0.6-1.7-0.6
			c-0.6,0-1,0.1-1.4,0.4c-0.4,0.3-0.8,0.7-1,1.1v6.2l1.6,0.2v1.2H133.9z"/>
		<path d="M147.8,125.4v-2h1.9v2H147.8z"/>
		<path d="M151.9,125.4v-1.2l1.6-0.2v-7.6l-1.6-0.2v-1.3h3.3l0.1,1.3c0.3-0.6,0.8-0.9,1.3-1.1c0.6-0.2,1.1-0.4,1.9-0.4
			s1.3,0.1,1.8,0.4c0.4,0.3,0.9,0.8,1.1,1.4c0.3-0.6,0.8-1.1,1.3-1.4c0.6-0.3,1.2-0.6,1.9-0.6c1.1,0,1.9,0.3,2.6,1.1
			c0.7,0.8,0.9,1.9,0.9,3.3v4.8l1.6,0.2v1.2h-5.1v-1.2l1.6-0.2v-4.9c0-1-0.2-1.8-0.6-2.2c-0.3-0.4-0.9-0.7-1.6-0.7
			c-0.7,0-1.2,0.2-1.7,0.7c-0.4,0.4-0.7,1.1-0.7,1.8v5.2l1.6,0.2v1.2h-5.1v-1.2l1.6-0.2v-4.9c0-1-0.2-1.7-0.6-2.2
			c-0.3-0.4-0.9-0.7-1.6-0.7c-0.6,0-1.1,0.1-1.4,0.3c-0.3,0.2-0.7,0.6-0.9,1v6.3l1.6,0.2v1.2h-4.9V125.4z"/>
	</g>
</g>
<g>
	<g>
		<path d="M53.4,248.8c-0.4,0-1,0-1.6-0.1c-0.6-0.1-1-0.2-1.4-0.4l0.3-1.4c0.4,0.2,0.8,0.3,1.2,0.4c0.4,0.1,0.9,0.1,1.4,0.1
			c0.9,0,1.7-0.3,2.2-1.1c0.6-0.7,0.8-1.9,0.9-3.4l0,0c-0.2,0.4-0.7,0.8-1.1,1c-0.4,0.2-1,0.3-1.6,0.3c-0.9,0-1.7-0.2-2.4-0.6
			c-0.8-0.3-1.2-0.9-1.6-1.7s-0.6-1.7-0.6-2.7s0.2-1.9,0.6-2.7c0.3-0.8,0.9-1.3,1.6-1.8c0.7-0.4,1.4-0.7,2.2-0.7
			c1,0,1.9,0.2,2.6,0.7s1.2,1,1.7,1.9s0.6,1.8,0.6,3v2.6c0,1.4-0.2,2.7-0.7,3.7s-1,1.7-1.8,2.2C55.2,248.7,54.4,248.8,53.4,248.8z
			 M53.7,242.5c0.7,0,1.3-0.1,1.8-0.4c0.4-0.3,0.8-0.7,1-1.2v-1.6c0-1.2-0.2-2.2-0.7-2.9c-0.4-0.7-1.2-1-2.1-1
			c-0.4,0-0.9,0.1-1.3,0.4c-0.3,0.3-0.7,0.7-0.9,1.2c-0.2,0.6-0.3,1.1-0.3,1.9c0,0.7,0.1,1.3,0.3,1.8c0.2,0.6,0.4,0.9,0.9,1.2
			C52.8,242.3,53.1,242.5,53.7,242.5z"/>
		<path d="M65.6,248.8c-0.9,0-1.8-0.2-2.4-0.7c-0.7-0.4-1.3-1.1-1.7-2s-0.7-1.9-0.7-3.1v-1.9c0-1.6,0.2-2.8,0.7-3.8
			c0.4-1,1.1-1.8,1.9-2.3c0.8-0.6,1.7-0.8,2.8-0.8c0.4,0,1,0,1.4,0.1c0.4,0.1,0.9,0.2,1.2,0.4l-0.3,1.4c-0.3-0.1-0.7-0.2-1-0.3
			s-0.8-0.1-1.2-0.1c-1,0-1.8,0.3-2.3,1.1c-0.6,0.8-0.9,1.9-0.9,3.4l0,0c0.3-0.3,0.8-0.6,1.3-0.8c0.6-0.2,1.1-0.3,1.7-0.3
			c0.9,0,1.6,0.2,2.2,0.6c0.7,0.4,1.1,1,1.4,1.7c0.3,0.7,0.6,1.6,0.6,2.4c0,1-0.2,1.9-0.6,2.6c-0.3,0.7-0.9,1.3-1.6,1.8
			C67.5,248.7,66.5,248.8,65.6,248.8z M65.6,247.2c0.6,0,1-0.1,1.3-0.4c0.3-0.3,0.7-0.8,0.9-1.2s0.3-1.1,0.3-1.8
			c0-0.9-0.2-1.7-0.7-2.3c-0.4-0.7-1.1-0.9-2-0.9c-0.4,0-0.8,0.1-1.2,0.2c-0.3,0.1-0.7,0.3-0.9,0.6c-0.2,0.2-0.4,0.4-0.7,0.8v1.1
			c0,1.3,0.2,2.3,0.8,3C64,246.9,64.8,247.2,65.6,247.2z"/>
		<path d="M75.9,248.8c-0.8,0-1.6-0.1-2.1-0.4c-0.6-0.3-1.1-0.8-1.4-1.3c-0.3-0.6-0.6-1.3-0.6-2.1v-0.1h1.8c0,0.8,0.2,1.3,0.7,1.8
			c0.4,0.4,1,0.7,1.8,0.7s1.4-0.3,1.9-0.9c0.4-0.6,0.7-1.3,0.7-2.3c0-0.9-0.2-1.7-0.7-2.2s-1.1-0.9-1.9-0.9s-1.3,0.1-1.7,0.3
			c-0.3,0.2-0.6,0.6-0.8,1l-1.6-0.1l0.8-7.8h7.5v2.8h-1.4l-0.2-1.1h-4.2l-0.4,4c0.2-0.1,0.4-0.3,0.7-0.4c0.2-0.1,0.4-0.2,0.8-0.3
			c0.3-0.1,0.6-0.1,0.9-0.1c0.9,0,1.7,0.2,2.2,0.6c0.6,0.3,1.1,0.9,1.4,1.7c0.3,0.8,0.6,1.6,0.6,2.6c0,1-0.2,1.8-0.6,2.4
			c-0.3,0.7-0.9,1.2-1.6,1.7C77.7,248.6,76.9,248.8,75.9,248.8z"/>
		<path d="M87.1,248.6v-1.2l1.6-0.2v-7.6l-1.6-0.2v-1.2h3.3l0.1,1.3c0.3-0.6,0.8-0.9,1.3-1.1c0.6-0.2,1.1-0.4,1.9-0.4
			s1.3,0.1,1.8,0.4c0.4,0.3,0.9,0.8,1.1,1.4c0.3-0.6,0.8-1.1,1.3-1.4c0.6-0.3,1.2-0.6,1.9-0.6c1.1,0,1.9,0.3,2.6,1.1
			c0.7,0.8,0.9,1.9,0.9,3.3v4.8l1.6,0.2v1.2h-5.1v-1.1l1.6-0.2v-4.9c0-1-0.2-1.8-0.6-2.2c-0.3-0.4-0.9-0.7-1.6-0.7
			c-0.7,0-1.2,0.2-1.7,0.7c-0.4,0.4-0.7,1.1-0.7,1.8v5.2l1.6,0.2v1.2h-5.1v-1.1l1.6-0.2v-4.9c0-1-0.2-1.7-0.6-2.2
			c-0.3-0.4-0.9-0.7-1.6-0.7c-0.6,0-1.1,0.1-1.4,0.3s-0.7,0.6-0.9,1v6.3l1.6,0.2v1.2h-4.9V248.6z"/>
		<path d="M110.6,248.8c-0.7,0-1.3-0.1-2-0.2c-0.7-0.1-1.2-0.3-2-0.7v-2.6h1.4l0.3,1.6c0.3,0.1,0.7,0.2,1.1,0.3
			c0.3,0.1,0.7,0.1,1.1,0.1c0.8,0,1.3-0.1,1.7-0.4c0.3-0.3,0.6-0.7,0.6-1.1c0-0.4-0.2-0.8-0.6-1.1s-1-0.6-1.9-0.8
			c-1.2-0.3-2.2-0.7-2.8-1.2c-0.6-0.4-0.9-1.1-0.9-2c0-0.6,0.1-1.1,0.4-1.6c0.3-0.4,0.8-0.8,1.3-1.1s1.3-0.4,2.1-0.4
			s1.4,0.1,2.1,0.2s1.1,0.4,1.4,0.8l0.1,2.4h-1.4l-0.3-1.4c-0.2-0.2-0.4-0.3-0.8-0.4s-0.7-0.1-1.1-0.1c-0.6,0-1.1,0.1-1.4,0.4
			c-0.3,0.3-0.6,0.7-0.6,1c0,0.2,0,0.4,0.1,0.7c0.1,0.2,0.3,0.3,0.7,0.4c0.3,0.1,0.8,0.3,1.3,0.4c1.4,0.3,2.4,0.8,3.1,1.3
			c0.7,0.6,0.9,1.2,0.9,2c0,0.9-0.3,1.7-1,2.2C113.1,248.4,112.1,248.8,110.6,248.8z"/>
		<path d="M117.1,248.6v-2h1.9v2H117.1z"/>
		<path d="M121.2,248.6v-1.2l1.6-0.2v-7.6l-1.6-0.2v-1.2h3.3l0.1,1.6c0.3-0.6,0.8-1,1.3-1.3c0.6-0.3,1.1-0.4,1.8-0.4
			c1.1,0,2,0.3,2.7,1c0.7,0.7,0.9,1.7,0.9,3.1v5.1l1.6,0.2v1.2h-5.1v-1.2l1.6-0.2V242c0-0.9-0.2-1.6-0.6-2c-0.3-0.4-0.9-0.6-1.7-0.6
			c-0.6,0-1,0.1-1.4,0.4c-0.4,0.3-0.8,0.7-1,1.1v6.2l1.6,0.2v1.2h-5V248.6z"/>
		<path d="M135,248.6v-2h1.9v2H135z"/>
		<path d="M139.1,248.6v-1.2l1.6-0.2v-7.6l-1.6-0.2v-1.2h3.3l0.1,1.3c0.3-0.6,0.8-0.9,1.3-1.1c0.6-0.2,1.1-0.4,1.9-0.4
			c0.8,0,1.3,0.1,1.8,0.4c0.4,0.3,0.9,0.8,1.1,1.4c0.3-0.6,0.8-1.1,1.3-1.4c0.6-0.3,1.2-0.6,1.9-0.6c1.1,0,1.9,0.3,2.6,1.1
			c0.7,0.8,0.9,1.9,0.9,3.3v4.8l1.6,0.2v1.2h-5.1v-1.1l1.6-0.2v-4.9c0-1-0.2-1.8-0.6-2.2c-0.3-0.4-0.9-0.7-1.6-0.7
			c-0.7,0-1.2,0.2-1.7,0.7c-0.4,0.4-0.7,1.1-0.7,1.8v5.2l1.6,0.2v1.2h-5.1v-1.1l1.6-0.2v-4.9c0-1-0.2-1.7-0.6-2.2
			c-0.3-0.4-0.9-0.7-1.6-0.7c-0.6,0-1.1,0.1-1.4,0.3c-0.3,0.2-0.7,0.6-0.9,1v6.3l1.6,0.2v1.2h-4.9V248.6z"/>
	</g>
</g>
<g>
	<g>
		<path d="M187.1,229.6l-5.6-15l-1.3-0.2v-1.4h5.2v1.4l-1.6,0.2l3.7,10.6l0.3,1.3h0.1l0.4-1.3l3.9-10.6l-1.7-0.2v-1.4h5.2v1.4
			l-1.3,0.2l-5.6,15H187.1z"/>
		<path d="M203.1,229.8c-1.1,0-2.1-0.2-3-0.8c-0.8-0.6-1.4-1.2-1.9-2.2c-0.4-1-0.7-2-0.7-3.2v-0.2c0-1.2,0.2-2.3,0.7-3.2
			c0.4-1,1.1-1.7,1.9-2.2s1.8-0.8,2.9-0.8s2.1,0.2,3,0.8c0.8,0.6,1.4,1.3,1.9,2.2c0.4,0.9,0.7,2,0.7,3.2v0.2c0,1.2-0.2,2.3-0.7,3.2
			c-0.4,1-1.1,1.7-1.9,2.2C205.2,229.6,204.2,229.8,203.1,229.8z M203.1,228c0.7,0,1.3-0.2,1.8-0.6c0.4-0.4,0.9-0.9,1.1-1.6
			s0.3-1.4,0.3-2.3v-0.2c0-0.9-0.1-1.7-0.3-2.3s-0.7-1.2-1.1-1.6c-0.4-0.4-1.1-0.6-1.8-0.6s-1.3,0.2-1.8,0.6
			c-0.4,0.4-0.9,0.9-1.1,1.6s-0.3,1.4-0.3,2.3v0.2c0,0.9,0.1,1.7,0.3,2.3s0.6,1.2,1.1,1.6C201.8,227.8,202.3,228,203.1,228z"/>
		<path d="M210.2,229.6v-1.4l1.9-0.3v-14.3l-1.9-0.3v-1.4h4.1v16l1.9,0.3v1.4h-6V229.6z"/>
		<path d="M223.3,229.8c-1.1,0-2.1-0.2-2.9-0.8c-0.8-0.6-1.4-1.2-1.9-2.2c-0.4-1-0.7-2-0.7-3.2v-0.4c0-1.2,0.2-2.2,0.7-3.1
			c0.4-0.9,1.1-1.7,1.9-2.2c0.8-0.6,1.8-0.8,3-0.8c1,0,1.9,0.1,2.7,0.4c0.8,0.3,1.3,0.8,1.9,1.3l0.1,3h-2l-0.3-2.1
			c-0.2-0.2-0.6-0.4-1-0.7c-0.4-0.2-0.9-0.2-1.3-0.2c-0.7,0-1.2,0.2-1.8,0.6c-0.6,0.4-0.9,0.9-1.2,1.6c-0.3,0.7-0.4,1.4-0.4,2.2v0.4
			c0,0.9,0.1,1.7,0.4,2.3c0.2,0.7,0.7,1.2,1.1,1.6c0.4,0.3,1.1,0.6,1.8,0.6c0.8,0,1.4-0.2,1.9-0.7c0.4-0.4,0.8-1,0.9-1.7h2v0.1
			c0,0.7-0.2,1.3-0.7,2c-0.3,0.7-0.9,1.1-1.7,1.4C225.2,229.6,224.3,229.8,223.3,229.8z"/>
		<path d="M233.9,229.8c-1.3,0-2.2-0.3-2.9-0.9c-0.7-0.7-1-1.6-1-2.7c0-0.8,0.2-1.4,0.7-2c0.4-0.6,1-1,1.9-1.3
			c0.8-0.3,1.8-0.4,2.9-0.4h2.2v-1.2c0-0.8-0.2-1.3-0.7-1.8c-0.4-0.4-1.1-0.7-1.9-0.7c-0.6,0-1,0.1-1.3,0.2c-0.3,0.1-0.8,0.3-1,0.6
			l-0.2,1.7h-1.8v-2.8c0.6-0.4,1.2-0.8,1.9-1c0.8-0.2,1.6-0.3,2.4-0.3c1.4,0,2.7,0.3,3.6,1.1c0.9,0.8,1.2,1.8,1.2,3.1v5.9
			c0,0.1,0,0.3,0,0.4c0,0.1,0,0.3,0,0.4l1.2,0.1v1.4h-3.2c-0.1-0.3-0.1-0.7-0.1-0.9s-0.1-0.6-0.1-0.8c-0.4,0.6-1,1-1.7,1.3
			C235.4,229.6,234.7,229.8,233.9,229.8z M234.2,227.9c0.8,0,1.4-0.2,2-0.6c0.7-0.3,1.1-0.8,1.3-1.3v-2.2h-2.3c-1,0-1.8,0.2-2.3,0.8
			c-0.6,0.4-0.8,1-0.8,1.7c0,0.6,0.2,1,0.6,1.2C233.1,227.7,233.6,227.9,234.2,227.9z M233.8,214.8l2.1-3.1h2.7v0.1l-3.1,3H233.8
			L233.8,214.8z"/>
		<path d="M242.8,229.6v-1.4l1.9-0.3V219l-1.9-0.3v-1.4h3.9l0.1,1.9c0.4-0.7,0.9-1.1,1.6-1.6c0.7-0.3,1.3-0.6,2.1-0.6
			c1.3,0,2.3,0.4,3.1,1.2s1.1,2,1.1,3.6v6l1.9,0.3v1.4h-6v-1.4l1.9-0.3v-6c0-1.1-0.2-1.9-0.7-2.3s-1.1-0.7-2-0.7
			c-0.7,0-1.2,0.1-1.7,0.4c-0.4,0.3-0.9,0.8-1.2,1.2v7.2l1.9,0.3v1.4h-6V229.6z"/>
		<path d="M271.6,229.8c-1.7,0-3-0.3-4.1-1.1c-1.1-0.8-2-1.8-2.6-3c-0.6-1.2-0.9-2.7-0.9-4.3v-0.2c0-1.7,0.3-3.1,0.9-4.3
			c0.6-1.2,1.4-2.2,2.6-3c1.1-0.8,2.4-1.1,3.9-1.1c1.1,0,2,0.2,2.9,0.6c0.9,0.3,1.7,0.8,2.2,1.2v3.6h-1.8l-0.2-2.7
			c-0.2-0.2-0.6-0.3-0.9-0.4c-0.3-0.1-0.7-0.2-1-0.3c-0.3-0.1-0.8-0.1-1.2-0.1c-1.1,0-2,0.3-2.8,0.9c-0.8,0.6-1.3,1.3-1.7,2.3
			s-0.6,2.1-0.6,3.4v0.2c0,1.3,0.2,2.6,0.7,3.6c0.4,1,1,1.8,1.8,2.2c0.8,0.6,1.8,0.8,2.9,0.8c0.6,0,1-0.1,1.6-0.2s0.9-0.3,1.2-0.6
			l0.2-2.3h1.8v3.6c-0.7,0.3-1.3,0.7-2.2,0.9C273.4,229.7,272.5,229.8,271.6,229.8z"/>
		<path d="M278.4,229.6v-1.4l1.9-0.3v-14.3l-1.9-0.3v-1.4h4.1v7.1c0.4-0.6,1-1,1.6-1.3c0.7-0.3,1.3-0.4,2-0.4c1.3,0,2.3,0.4,3.1,1.2
			s1.1,2,1.1,3.7v6l1.9,0.3v1.4h-6v-1.4l1.9-0.3v-6c0-1-0.2-1.8-0.7-2.2s-1.1-0.8-2-0.8c-0.7,0-1.2,0.1-1.7,0.4
			c-0.6,0.3-0.9,0.7-1.2,1.2v7.3l1.9,0.3v1.4h-6V229.6z"/>
		<path d="M297.6,229.8c-1.3,0-2.2-0.3-2.9-0.9c-0.7-0.7-1-1.6-1-2.7c0-0.8,0.2-1.4,0.7-2c0.4-0.6,1-1,1.9-1.3
			c0.8-0.3,1.8-0.4,2.9-0.4h2.2v-1.2c0-0.8-0.2-1.3-0.7-1.8s-1.1-0.7-1.9-0.7c-0.6,0-1,0.1-1.3,0.2c-0.3,0.1-0.8,0.3-1,0.6l-0.2,1.7
			h-1.8v-2.8c0.6-0.4,1.2-0.8,1.9-1c0.8-0.2,1.6-0.3,2.4-0.3c1.4,0,2.7,0.3,3.6,1.1c0.9,0.8,1.2,1.8,1.2,3.1v5.9c0,0.1,0,0.3,0,0.4
			c0,0.1,0,0.3,0,0.4l1.2,0.1v1.4h-3.2c-0.1-0.3-0.1-0.7-0.1-0.9s-0.1-0.6-0.1-0.8c-0.4,0.6-1,1-1.7,1.3
			C299.1,229.6,298.4,229.8,297.6,229.8z M298,227.9c0.8,0,1.4-0.2,2-0.6c0.7-0.3,1-0.8,1.3-1.3v-2.2H299c-1,0-1.8,0.2-2.3,0.8
			c-0.6,0.4-0.8,1-0.8,1.7c0,0.6,0.2,1,0.6,1.2C296.9,227.7,297.3,227.9,298,227.9z"/>
		<path d="M306.5,229.6v-1.4l1.9-0.3V219l-1.9-0.3v-1.4h4.1v10.6l1.9,0.3v1.4H306.5z M308.3,214.1v-2.4h2.3v2.4H308.3z"/>
		<path d="M318.4,229.7c-0.9,0-1.7-0.2-2.2-0.8c-0.6-0.6-0.8-1.4-0.8-2.6v-7.5h-2v-1.7h2v-3h2.2v3h2.7v1.7h-2.7v7.5
			c0,0.6,0.1,1,0.3,1.3c0.2,0.3,0.6,0.4,1,0.4c0.2,0,0.6,0,0.9-0.1c0.3,0,0.6-0.1,0.8-0.1l0.3,1.4c-0.3,0.1-0.8,0.2-1.2,0.2
			C319.2,229.7,318.8,229.7,318.4,229.7z"/>
		<path d="M328,229.8c-1.1,0-2.1-0.2-3-0.8c-0.9-0.6-1.4-1.2-2-2.2c-0.4-0.9-0.7-2-0.7-3.2V223c0-1.2,0.2-2.2,0.8-3.1
			c0.4-0.9,1.1-1.7,1.9-2.2c0.8-0.6,1.7-0.8,2.7-0.8c1.1,0,2,0.2,2.8,0.7s1.3,1.1,1.7,1.9c0.3,0.8,0.6,1.8,0.6,2.9v1.4h-8v0.1
			c0,0.8,0.1,1.4,0.4,2.1c0.2,0.7,0.7,1.1,1.1,1.4c0.4,0.3,1.1,0.6,1.8,0.6c0.8,0,1.4-0.1,2-0.3s1.1-0.6,1.4-0.9l0.9,1.4
			c-0.4,0.4-1,0.8-1.8,1.1C329.9,229.6,329,229.8,328,229.8z M324.8,222.1h5.7v-0.3c0-0.6-0.1-1.1-0.3-1.6c-0.2-0.4-0.6-0.9-0.9-1.1
			c-0.4-0.2-0.9-0.4-1.6-0.4c-0.6,0-1,0.1-1.3,0.4c-0.4,0.3-0.8,0.7-1,1.2S324.8,221.4,324.8,222.1L324.8,222.1z M326.2,214.8
			l2.1-3.1h2.7v0.1l-3.1,3H326.2L326.2,214.8z"/>
		<path d="M334.5,229.6v-1.4l1.9-0.3V219l-1.9-0.3v-1.4h3.9l0.1,1.9c0.4-0.7,0.9-1.1,1.6-1.6c0.7-0.3,1.3-0.6,2.1-0.6
			c1.3,0,2.3,0.4,3.1,1.2c0.8,0.8,1.1,2,1.1,3.6v6l1.9,0.3v1.4h-6v-1.4l1.9-0.3v-6c0-1.1-0.2-1.9-0.7-2.3c-0.4-0.4-1.1-0.7-2-0.7
			c-0.7,0-1.2,0.1-1.7,0.4c-0.4,0.3-0.9,0.8-1.2,1.2v7.2l1.9,0.3v1.4h-6V229.6z"/>
	</g>
</g>
<g>
	<g>
		<path d="M256.8,368v-1.2l2.2-0.2v-10.7h-2.2v-1.2l4.1-0.9v12.8l2.2,0.2v1.2L256.8,368L256.8,368z"/>
		<path d="M269.4,368.2c-0.9,0-1.8-0.1-2.4-0.4c-0.7-0.3-1.2-0.8-1.7-1.3s-0.6-1.3-0.6-2.2c0-0.8,0.2-1.6,0.8-2.1s1.1-1.1,2-1.3
			c-0.7-0.2-1.2-0.7-1.7-1.2c-0.4-0.6-0.6-1.2-0.6-2c0-0.9,0.2-1.6,0.6-2.1c0.3-0.6,0.9-1,1.4-1.3c0.6-0.3,1.3-0.4,2.2-0.4
			s1.6,0.1,2.2,0.4s1.1,0.8,1.4,1.3c0.3,0.6,0.6,1.3,0.6,2.1c0,0.8-0.2,1.4-0.7,2c-0.4,0.6-1,1-1.7,1.2c0.8,0.3,1.4,0.8,2,1.3
			c0.6,0.6,0.8,1.3,0.8,2.1c0,0.9-0.2,1.7-0.6,2.2s-0.9,1.1-1.7,1.3C271.2,368.1,270.4,368.2,269.4,368.2z M269.4,366.8
			c0.6,0,1-0.1,1.4-0.3s0.8-0.6,1-0.9c0.2-0.3,0.3-0.9,0.3-1.3c0-0.6-0.1-1-0.3-1.3s-0.6-0.7-1-1s-0.9-0.3-1.4-0.3s-1,0.1-1.4,0.3
			c-0.4,0.2-0.7,0.6-1,0.9c-0.2,0.4-0.3,0.9-0.3,1.4c0,0.8,0.2,1.4,0.8,1.9C267.9,366.5,268.6,366.8,269.4,366.8z M269.4,360
			c0.4,0,0.9-0.1,1.2-0.3c0.3-0.2,0.7-0.4,0.8-0.9c0.1-0.4,0.3-0.8,0.3-1.2s-0.1-0.9-0.3-1.2c-0.2-0.3-0.4-0.7-0.8-0.9
			c-0.3-0.2-0.8-0.3-1.2-0.3c-0.7,0-1.2,0.2-1.7,0.7s-0.7,1-0.7,1.8s0.2,1.3,0.7,1.8S268.7,360,269.4,360z"/>
		<path d="M276.3,371.1l-1.1-0.8c0.3-0.4,0.6-1,0.7-1.4c0.1-0.4,0.2-1,0.2-1.6v-1.4h1.9v1.4c0,0.7-0.1,1.3-0.4,2
			C277.2,370,276.8,370.7,276.3,371.1z"/>
		<path d="M283.9,368.2c-0.8,0-1.6-0.1-2.1-0.4c-0.6-0.3-1.1-0.8-1.4-1.3s-0.6-1.3-0.6-2.1v-0.1h1.8c0,0.8,0.2,1.3,0.7,1.8
			c0.4,0.4,1,0.7,1.8,0.7c0.8,0,1.4-0.3,1.9-0.9c0.4-0.6,0.7-1.3,0.7-2.3c0-0.9-0.2-1.7-0.7-2.2c-0.4-0.6-1.1-0.9-1.9-0.9
			c-0.8,0-1.3,0.1-1.7,0.3s-0.6,0.6-0.8,1l-1.6-0.1l0.8-7.8h7.6v2.8h-1.4l-0.2-1.1h-4.2l-0.4,4c0.2-0.1,0.4-0.3,0.7-0.4
			c0.2-0.1,0.4-0.2,0.8-0.3c0.3-0.1,0.6-0.1,0.9-0.1c0.9,0,1.7,0.2,2.2,0.6c0.6,0.3,1.1,0.9,1.4,1.7c0.3,0.8,0.6,1.6,0.6,2.6
			s-0.2,1.8-0.6,2.4c-0.3,0.7-0.9,1.2-1.6,1.7C285.8,368,284.9,368.2,283.9,368.2z"/>
		<path d="M295.1,368v-1.2l1.6-0.2v-12.2l-1.6-0.2v-1.2h3.6v13.7l1.6,0.2v1.2L295.1,368L295.1,368z M298.4,365l-0.7-1.6l4.6-4.6
			v-0.1l-1.1-0.1v-1.2h4.6v1.2l-1.3,0.2L298.4,365z M301.8,368v-1.2l1.1-0.1l0,0l-3.1-4l1-1.6l4.2,5.4l1.6,0.2v1.2H301.8z"/>
		<path d="M307.7,368v-1.2l1.6-0.2V359l-1.6-0.2v-1.2h3.3l0.1,1.3c0.3-0.6,0.8-0.9,1.3-1.1c0.6-0.2,1.1-0.4,1.9-0.4s1.3,0.1,1.8,0.4
			c0.4,0.3,0.9,0.8,1.1,1.4c0.3-0.6,0.8-1.1,1.3-1.4c0.6-0.3,1.2-0.6,1.9-0.6c1.1,0,1.9,0.3,2.6,1.1c0.7,0.8,0.9,1.9,0.9,3.3v4.8
			l1.6,0.2v1.2h-5.1v-1.2l1.6-0.2v-4.9c0-1-0.2-1.8-0.6-2.2c-0.3-0.4-0.9-0.7-1.6-0.7c-0.7,0-1.2,0.2-1.7,0.7
			c-0.4,0.4-0.7,1.1-0.7,1.8v5.2l1.6,0.2v1.2H314v-1.2l1.6-0.2v-4.9c0-1-0.2-1.7-0.6-2.2c-0.3-0.4-0.9-0.7-1.6-0.7
			c-0.6,0-1.1,0.1-1.4,0.3c-0.3,0.2-0.7,0.6-0.9,1v6.3l1.6,0.2v1.2h-4.9V368z"/>
	</g>
</g>
<g>
	<g>
		<path d="M50,79.3V78l4.7-5.2c0.6-0.7,1-1.1,1.3-1.6c0.3-0.4,0.6-0.9,0.7-1.2c0.1-0.3,0.2-0.8,0.2-1.1c0-0.7-0.2-1.3-0.7-1.8
			s-1.1-0.7-1.9-0.7c-0.9,0-1.4,0.2-2,0.8c-0.6,0.6-0.7,1.2-0.7,2.1h-1.8v-0.1c0-0.8,0.1-1.6,0.6-2.2c0.4-0.7,0.9-1.2,1.6-1.6
			c0.7-0.3,1.6-0.6,2.4-0.6c0.9,0,1.7,0.2,2.3,0.6c0.7,0.3,1.1,0.8,1.4,1.4c0.3,0.7,0.6,1.2,0.6,2c0,0.6-0.1,1-0.3,1.6
			c-0.2,0.6-0.6,1-0.9,1.6c-0.3,0.6-0.9,1.1-1.4,1.7l-3.8,4.1l0,0h5l0.1-1.7h1.7v3.1H50V79.3z"/>
		<path d="M65.7,79.5c-0.9,0-1.8-0.1-2.4-0.4c-0.7-0.3-1.2-0.8-1.7-1.3c-0.4-0.6-0.6-1.3-0.6-2.2c0-0.8,0.2-1.6,0.8-2.1
			c0.6-0.6,1.1-1.1,2-1.3c-0.7-0.2-1.2-0.7-1.7-1.2c-0.4-0.6-0.6-1.2-0.6-2c0-0.9,0.2-1.6,0.6-2.1s0.9-1,1.4-1.3
			c0.6-0.3,1.3-0.4,2.2-0.4c0.9,0,1.6,0.1,2.2,0.4c0.7,0.3,1.1,0.8,1.4,1.3c0.3,0.6,0.6,1.3,0.6,2.1c0,0.8-0.2,1.4-0.7,2
			c-0.4,0.6-1,1-1.7,1.2c0.8,0.3,1.4,0.8,2,1.3c0.6,0.6,0.8,1.3,0.8,2.1c0,0.9-0.2,1.7-0.6,2.2c-0.3,0.6-0.9,1.1-1.7,1.3
			C67.5,79.3,66.6,79.5,65.7,79.5z M65.7,78.1c0.6,0,1-0.1,1.4-0.3c0.4-0.2,0.8-0.6,1-0.9c0.2-0.3,0.3-0.9,0.3-1.3
			c0-0.6-0.1-1-0.3-1.3c-0.2-0.3-0.6-0.7-1-1c-0.4-0.3-0.9-0.3-1.4-0.3s-1,0.1-1.4,0.3c-0.4,0.2-0.7,0.6-1,0.9
			c-0.3,0.3-0.3,0.9-0.3,1.4c0,0.8,0.2,1.4,0.8,1.9S64.9,78.1,65.7,78.1z M65.7,71.3c0.4,0,0.9-0.1,1.2-0.3c0.3-0.2,0.7-0.4,0.8-0.9
			c0.1-0.4,0.3-0.8,0.3-1.2c0-0.4-0.1-0.9-0.3-1.2s-0.4-0.7-0.8-0.9c-0.3-0.2-0.8-0.3-1.2-0.3c-0.7,0-1.2,0.2-1.7,0.7
			c-0.4,0.4-0.7,1-0.7,1.8c0,0.8,0.2,1.3,0.7,1.8C64.5,71.1,65,71.3,65.7,71.3z"/>
		<path d="M76.6,79.3v-1.2l1.6-0.2v-1.8h-6.3V75l6.2-9.9h2v9.5h2.1v1.6h-2v1.8l1.6,0.2v1.2H76.6z M73.9,74.5h4.3v-6.7h-0.1l-0.2,0.6
			L73.9,74.5z"/>
		<path d="M87.9,79.5c-0.8,0-1.6-0.1-2.1-0.4s-1.1-0.8-1.4-1.3s-0.6-1.3-0.6-2.1v-0.1h1.7c0,0.8,0.2,1.3,0.7,1.8s1,0.7,1.8,0.7
			c0.8,0,1.4-0.3,1.9-0.9s0.7-1.3,0.7-2.3c0-0.9-0.2-1.7-0.7-2.2c-0.4-0.6-1.1-0.9-1.9-0.9c-0.8,0-1.3,0.1-1.7,0.3s-0.6,0.7-0.8,1.1
			L83.9,73l0.8-7.8h7.6v2.8h-1.4l-0.2-1.1h-4.2l-0.4,4c0.2-0.1,0.4-0.3,0.7-0.4c0.2-0.1,0.4-0.2,0.8-0.3s0.6-0.1,0.9-0.1
			c0.9,0,1.7,0.2,2.2,0.6s1.1,0.9,1.4,1.7c0.3,0.8,0.6,1.6,0.6,2.6s-0.2,1.8-0.6,2.4c-0.3,0.7-0.9,1.2-1.6,1.7
			C89.7,79.3,88.9,79.5,87.9,79.5z"/>
		<path d="M99.1,79.3v-1.2l1.6-0.2v-7.6l-1.6-0.2v-1.2h3.3l0.1,1.3c0.3-0.6,0.8-0.9,1.3-1.1c0.6-0.2,1.1-0.4,1.9-0.4
			s1.3,0.1,1.8,0.4s0.9,0.8,1.1,1.4c0.3-0.6,0.8-1.1,1.3-1.4s1.2-0.6,1.9-0.6c1.1,0,1.9,0.3,2.6,1.1c0.7,0.8,0.9,1.9,0.9,3.3v4.8
			l1.6,0.2v1.2h-5.1V78l1.6-0.2v-4.9c0-1-0.2-1.8-0.6-2.2c-0.3-0.4-0.9-0.7-1.6-0.7c-0.7,0-1.2,0.2-1.7,0.7s-0.7,1.1-0.7,1.8v5.2
			l1.6,0.2v1.2h-4.9v-1.2l1.6-0.2v-4.9c0-1-0.2-1.7-0.6-2.2c-0.3-0.6-0.9-0.7-1.6-0.7c-0.6,0-1.1,0.1-1.4,0.3
			c-0.3,0.2-0.7,0.6-0.9,1v6.3l1.6,0.2V79h-5.1V79.3z"/>
		<path d="M122.7,79.5c-0.7,0-1.3-0.1-2-0.2c-0.7-0.1-1.2-0.3-2-0.7v-2.6h1.4l0.3,1.6c0.3,0.1,0.7,0.2,1.1,0.3
			c0.4,0.1,0.7,0.1,1.1,0.1c0.8,0,1.3-0.1,1.7-0.4c0.3-0.3,0.6-0.7,0.6-1.1c0-0.4-0.2-0.8-0.6-1.1c-0.3-0.3-1-0.6-1.9-0.8
			c-1.2-0.3-2.2-0.7-2.8-1.2c-0.6-0.6-0.9-1.1-0.9-2c0-0.6,0.1-1.1,0.4-1.6c0.3-0.4,0.8-0.8,1.3-1.1c0.6-0.3,1.3-0.4,2.1-0.4
			s1.4,0.1,2.1,0.2c0.7,0.1,1.1,0.4,1.4,0.8l0.1,2.4H125l-0.3-1.4c-0.2-0.2-0.4-0.3-0.8-0.4c-0.3-0.1-0.7-0.1-1.1-0.1
			c-0.6,0-1.1,0.1-1.4,0.4c-0.3,0.3-0.6,0.7-0.6,1c0,0.2,0,0.4,0.1,0.7c0.1,0.2,0.3,0.3,0.7,0.4c0.3,0.1,0.8,0.3,1.3,0.4
			c1.4,0.3,2.4,0.8,3.1,1.3c0.7,0.6,0.9,1.2,0.9,2c0,0.9-0.3,1.7-1,2.2C125.2,78.8,124.1,79.5,122.7,79.5z"/>
		<path d="M129.1,79.3v-2h1.9v2H129.1z"/>
		<path d="M133.2,79.3v-1.2l1.6-0.2v-7.6l-1.6-0.2v-1.2h3.3l0.1,1.6c0.3-0.6,0.8-1,1.3-1.3c0.6-0.3,1.1-0.4,1.8-0.4
			c1.1,0,2,0.3,2.7,1s0.9,1.7,0.9,3.1v5.1l1.6,0.2v1.2h-5.1v-1.2l1.6-0.2v-5.1c0-0.9-0.2-1.6-0.6-2s-0.9-0.6-1.7-0.6
			c-0.6,0-1,0.1-1.4,0.4s-0.8,0.7-1,1.1V78l1.6,0.2v1.2h-5V79.3z"/>
		<path d="M147,79.3v-2h1.9v2H147z"/>
		<path d="M151.2,79.3v-1.2l1.6-0.2v-7.6l-1.6-0.2v-1.2h3.3l0.1,1.3c0.3-0.6,0.8-0.9,1.3-1.1c0.6-0.2,1.1-0.4,1.9-0.4
			c0.8,0,1.3,0.1,1.8,0.4c0.4,0.3,0.9,0.8,1.1,1.4c0.3-0.6,0.8-1.1,1.3-1.4c0.6-0.3,1.2-0.6,1.9-0.6c1.1,0,1.9,0.3,2.6,1.1
			c0.7,0.8,0.9,1.9,0.9,3.3v4.8L169,78v1.2h-5.1V78l1.6-0.2v-4.9c0-1-0.2-1.8-0.6-2.2s-0.9-0.7-1.6-0.7c-0.7,0-1.2,0.2-1.7,0.7
			c-0.4,0.4-0.7,1.1-0.7,1.8v5.2l1.6,0.2v1.2h-5.1v-1.2l1.6-0.2v-4.9c0-1-0.2-1.7-0.6-2.2c-0.3-0.6-0.9-0.7-1.6-0.7
			c-0.6,0-1.1,0.1-1.4,0.3c-0.3,0.2-0.7,0.6-0.9,1v6.3l1.6,0.2V79h-4.9V79.3z"/>
	</g>
</g>
<g>
	<g>
		<path d="M889,57.7c-1.7,0-3-0.3-4.1-1.1c-1.1-0.8-2-1.8-2.6-3c-0.6-1.2-0.9-2.7-0.9-4.3v-0.2c0-1.7,0.3-3.1,0.9-4.3
			c0.6-1.2,1.4-2.2,2.6-3s2.4-1.1,3.9-1.1c1.1,0,2,0.2,2.9,0.6c0.9,0.3,1.7,0.8,2.2,1.2V46h-1.8l-0.2-2.7c-0.2-0.2-0.6-0.3-0.9-0.4
			s-0.7-0.2-1-0.3c-0.3-0.1-0.8-0.1-1.2-0.1c-1.1,0-2,0.3-2.8,0.9c-0.8,0.6-1.3,1.3-1.7,2.3c-0.3,1-0.6,2.1-0.6,3.4v0.2
			c0,1.3,0.2,2.6,0.7,3.6c0.4,1,1,1.8,1.8,2.2c0.8,0.6,1.8,0.8,2.9,0.8c0.6,0,1-0.1,1.6-0.2c0.6-0.1,0.9-0.3,1.2-0.6l0.2-2.3h1.8
			v3.6c-0.7,0.3-1.3,0.7-2.2,0.9C890.8,57.6,889.9,57.7,889,57.7z"/>
		<path d="M901.7,57.7c-1.1,0-2.1-0.2-3-0.8c-0.9-0.6-1.4-1.2-2-2.2c-0.4-0.9-0.7-2-0.7-3.2V51c0-1.2,0.2-2.2,0.8-3.1
			c0.4-0.9,1.1-1.7,1.9-2.2c0.8-0.6,1.7-0.8,2.7-0.8c1.1,0,2,0.2,2.8,0.7c0.8,0.4,1.3,1.1,1.7,1.9c0.3,0.8,0.6,1.8,0.6,2.9v1.4h-8
			v0.1c0,0.8,0.1,1.4,0.4,2.1c0.2,0.7,0.7,1.1,1.1,1.4c0.4,0.3,1.1,0.6,1.8,0.6c0.8,0,1.4-0.1,2-0.3c0.6-0.2,1.1-0.6,1.4-0.9
			l0.9,1.4c-0.4,0.4-1,0.8-1.8,1.1C903.6,57.5,902.8,57.7,901.7,57.7z M898.4,50.1h5.7v-0.3c0-0.6-0.1-1.1-0.3-1.6
			c-0.2-0.4-0.6-0.9-0.9-1.1c-0.4-0.2-0.9-0.4-1.6-0.4c-0.6,0-1,0.1-1.3,0.4c-0.4,0.3-0.8,0.7-1,1.2
			C898.8,48.8,898.6,49.4,898.4,50.1L898.4,50.1z"/>
		<path d="M908.1,57.5v-1.4l1.9-0.3V47l-1.9-0.3v-1.4h3.9l0.2,1.6V47c0.3-0.7,0.8-1.1,1.3-1.4c0.6-0.3,1.1-0.6,1.8-0.6
			c0.2,0,0.4,0,0.8,0.1c0.2,0,0.4,0.1,0.6,0.1l-0.3,2.1l-1.6-0.1c-0.6,0-1.1,0.1-1.4,0.4c-0.4,0.3-0.7,0.7-0.9,1.2v7l1.9,0.3v1.4
			h-6.2V57.5z"/>
		<path d="M917.9,57.5v-1.4l1.9-0.3V47l-1.9-0.3v-1.4h3.9l0.2,1.6V47c0.3-0.7,0.8-1.1,1.3-1.4c0.6-0.3,1.1-0.6,1.8-0.6
			c0.2,0,0.4,0,0.8,0.1c0.2,0,0.4,0.1,0.6,0.1l-0.3,2.1l-1.6-0.1c-0.6,0-1.1,0.1-1.4,0.4c-0.4,0.3-0.7,0.7-0.9,1.2v7l1.9,0.3v1.4
			h-6.2V57.5z"/>
		<path d="M933.3,57.7c-1.1,0-2.1-0.2-3-0.8c-0.8-0.6-1.4-1.2-1.9-2.2c-0.4-1-0.7-2-0.7-3.2v-0.2c0-1.2,0.2-2.3,0.7-3.2
			c0.4-1,1.1-1.7,1.9-2.2c0.8-0.6,1.8-0.8,2.9-0.8s2.1,0.2,3,0.8c0.8,0.6,1.4,1.3,1.9,2.2c0.4,0.9,0.7,2,0.7,3.2v0.2
			c0,1.2-0.2,2.3-0.7,3.2c-0.4,1-1.1,1.7-1.9,2.2S934.4,57.7,933.3,57.7z M933.3,56c0.7,0,1.3-0.2,1.8-0.6c0.4-0.4,0.9-0.9,1.1-1.6
			c0.2-0.7,0.3-1.4,0.3-2.3v-0.2c0-0.9-0.1-1.7-0.3-2.3c-0.2-0.7-0.7-1.2-1.1-1.6c-0.4-0.4-1.1-0.6-1.8-0.6c-0.7,0-1.3,0.2-1.8,0.6
			c-0.4,0.4-0.9,0.9-1.1,1.6c-0.2,0.7-0.3,1.4-0.3,2.3v0.2c0,0.9,0.1,1.7,0.3,2.3c0.2,0.7,0.6,1.2,1.1,1.6
			C931.9,55.7,932.5,56,933.3,56z"/>
		<path d="M946.4,57.5v-1.4l1.9-0.3V42.6l-1.9-0.3v-1.4h1.9h5.8c1.2,0,2.2,0.2,3,0.7c0.9,0.4,1.4,1,1.9,1.8c0.4,0.8,0.7,1.7,0.7,2.6
			c0,1-0.2,1.9-0.7,2.7c-0.4,0.8-1.1,1.3-1.9,1.8s-1.9,0.7-3,0.7h-3.6v4.9l1.9,0.3v1.4h-6V57.5z M950.5,49.1h3.6
			c1.1,0,2-0.3,2.6-0.9c0.6-0.6,0.9-1.3,0.9-2.3s-0.3-1.7-0.9-2.3s-1.4-0.9-2.6-0.9h-3.6V49.1z"/>
		<path d="M965.1,57.7c-1.3,0-2.2-0.3-2.9-0.9c-0.7-0.7-1-1.6-1-2.7c0-0.8,0.2-1.4,0.7-2c0.4-0.6,1-1,1.9-1.3
			c0.8-0.3,1.8-0.4,2.9-0.4h2.2v-1.2c0-0.8-0.2-1.3-0.7-1.8c-0.4-0.4-1.1-0.7-1.9-0.7c-0.6,0-1,0.1-1.3,0.2s-0.8,0.3-1,0.6l-0.2,1.7
			h-1.8v-2.8c0.6-0.4,1.2-0.8,1.9-1c0.8-0.2,1.6-0.3,2.4-0.3c1.4,0,2.7,0.3,3.6,1.1c0.9,0.8,1.2,1.8,1.2,3.1v5.9c0,0.1,0,0.3,0,0.4
			c0,0.1,0,0.3,0,0.4l1.2,0.1v1.4h-3.2c-0.1-0.3-0.1-0.7-0.1-0.9s-0.1-0.6-0.1-0.8c-0.4,0.6-1,1-1.7,1.3
			C966.5,57.5,965.8,57.7,965.1,57.7z M965.4,55.9c0.8,0,1.4-0.2,2-0.6c0.7-0.3,1.1-0.8,1.3-1.3v-2.2h-2.3c-1,0-1.8,0.2-2.3,0.8
			c-0.6,0.4-0.8,1-0.8,1.7c0,0.6,0.2,1,0.6,1.2C964.2,55.6,964.7,55.9,965.4,55.9z"/>
		<path d="M973.8,57.5v-1.4l1.9-0.3V47l-1.9-0.3v-1.4h4.1v10.6l1.9,0.3v1.4H973.8z M975.6,42.1v-2.4h2.3v2.4H975.6z"/>
		<path d="M981.4,57.5v-1.4l1.9-0.3V47l-1.9-0.3v-1.4h3.9l0.1,1.9c0.4-0.7,0.9-1.1,1.6-1.6c0.7-0.3,1.3-0.6,2.1-0.6
			c1.3,0,2.3,0.4,3.1,1.2s1.1,2,1.1,3.6v6l1.9,0.3v1.4h-6v-1.4l1.9-0.3v-6c0-1.1-0.2-1.9-0.7-2.3c-0.4-0.4-1.1-0.7-2-0.7
			c-0.7,0-1.2,0.1-1.7,0.4c-0.4,0.3-0.9,0.8-1.2,1.2v7.2l1.9,0.3v1.4h-6V57.5z"/>
		<path d="M1002.3,57.7c-1.1,0-2.1-0.2-3-0.8c-0.9-0.6-1.4-1.2-2-2.2c-0.6-1-0.7-2-0.7-3.2V51c0-1.2,0.2-2.2,0.8-3.1
			c0.4-0.9,1.1-1.7,1.9-2.2s1.7-0.8,2.7-0.8c1.1,0,2,0.2,2.8,0.7c0.8,0.4,1.3,1.1,1.7,1.9c0.3,0.8,0.6,1.8,0.6,2.9v1.4h-8v0.1
			c0,0.8,0.1,1.4,0.4,2.1c0.2,0.7,0.7,1.1,1.1,1.4c0.4,0.3,1.1,0.6,1.8,0.6c0.8,0,1.4-0.1,2-0.3c0.6-0.2,1.1-0.6,1.4-0.9l0.9,1.4
			c-0.4,0.4-1,0.8-1.8,1.1C1004.2,57.5,1003.3,57.7,1002.3,57.7z M999.1,50.1h5.7v-0.3c0-0.6-0.1-1.1-0.3-1.6
			c-0.2-0.4-0.6-0.9-0.9-1.1c-0.4-0.2-0.9-0.4-1.6-0.4c-0.6,0-1,0.1-1.3,0.4c-0.4,0.3-0.8,0.7-1,1.2
			C999.4,48.8,999.2,49.4,999.1,50.1L999.1,50.1z"/>
		<path d="M1022.2,57.7c-1.6,0-2.9-0.3-4-1.1c-1.1-0.7-2-1.7-2.6-3c-0.6-1.3-0.9-2.7-0.9-4.3v-0.2c0-1.7,0.3-3.1,0.9-4.4
			c0.7-1.2,1.4-2.2,2.6-3c1.1-0.8,2.2-1.1,3.7-1.1c1.3,0,2.3,0.1,3.3,0.4c0.9,0.3,1.7,0.7,2.3,1.2v3.3h-1.9l-0.2-2.4
			c-0.3-0.2-0.8-0.4-1.3-0.6c-0.6-0.1-1.2-0.2-1.9-0.2c-1,0-1.8,0.2-2.6,0.8c-0.8,0.6-1.3,1.3-1.8,2.3c-0.4,1-0.7,2.1-0.7,3.4v0.4
			c0,1.3,0.2,2.4,0.6,3.4c0.4,1,1,1.8,1.8,2.3c0.8,0.6,1.8,0.8,2.9,0.8c0.8,0,1.4-0.1,1.9-0.2c0.6-0.1,1-0.3,1.3-0.6v-3.9l-3.2-0.1
			v-1.7h5.4V56c-0.4,0.4-1.1,0.9-2.1,1.2C1024.8,57.5,1023.7,57.7,1022.2,57.7z"/>
		<path d="M1029.9,57.5v-1.4l1.9-0.3V47l-1.9-0.3v-1.4h3.9l0.2,1.6V47c0.3-0.7,0.8-1.1,1.3-1.4c0.6-0.3,1.1-0.6,1.8-0.6
			c0.2,0,0.4,0,0.8,0.1c0.2,0,0.4,0.1,0.6,0.1l-0.3,2.1l-1.6-0.1c-0.6,0-1.1,0.1-1.4,0.4c-0.4,0.3-0.7,0.7-0.9,1.2v7l1.9,0.3v1.4
			h-6.2V57.5z"/>
		<path d="M1043.7,57.7c-1.3,0-2.2-0.3-2.9-0.9c-0.7-0.7-1-1.6-1-2.7c0-0.8,0.2-1.4,0.7-2c0.4-0.6,1-1,1.9-1.3
			c0.8-0.3,1.8-0.4,2.9-0.4h2.2v-1.2c0-0.8-0.2-1.3-0.7-1.8c-0.4-0.4-1.1-0.7-1.9-0.7c-0.6,0-1,0.1-1.3,0.2s-0.8,0.3-1,0.6l-0.2,1.7
			h-1.8v-2.8c0.6-0.4,1.2-0.8,1.9-1c0.8-0.2,1.6-0.3,2.4-0.3c1.4,0,2.7,0.3,3.6,1.1c0.9,0.8,1.2,1.8,1.2,3.1v5.9c0,0.1,0,0.3,0,0.4
			c0,0.1,0,0.3,0,0.4l1.2,0.1v1.4h-3.2c-0.1-0.3-0.1-0.7-0.1-0.9s-0.1-0.6-0.1-0.8c-0.4,0.6-1,1-1.7,1.3
			C1045.1,57.5,1044.5,57.7,1043.7,57.7z M1044,55.9c0.8,0,1.4-0.2,2-0.6c0.7-0.3,1.1-0.8,1.3-1.3v-2.2h-2.3c-1,0-1.8,0.2-2.3,0.8
			c-0.6,0.4-0.8,1-0.8,1.7c0,0.6,0.2,1,0.6,1.2C1042.8,55.6,1043.4,55.9,1044,55.9z"/>
		<path d="M1052.6,57.5v-1.4l1.9-0.3V47l-1.9-0.3v-1.4h3.9l0.1,1.9c0.4-0.7,0.9-1.1,1.6-1.6c0.7-0.3,1.3-0.6,2.1-0.6
			c1.3,0,2.3,0.4,3.1,1.2c0.8,0.8,1.1,2,1.1,3.6v6l1.9,0.3v1.4h-6v-1.4l1.9-0.3v-6c0-1.1-0.2-1.9-0.7-2.3c-0.4-0.4-1.1-0.7-2-0.7
			c-0.7,0-1.2,0.1-1.7,0.4c-0.4,0.3-0.9,0.8-1.2,1.2v7.2l1.9,0.3v1.4h-6V57.5z"/>
		<path d="M1072.7,57.7c-1,0-1.9-0.2-2.6-0.8c-0.7-0.4-1.2-1.2-1.7-2.1c-0.3-0.9-0.6-1.9-0.6-3.1v-0.2c0-1.3,0.2-2.4,0.6-3.4
			c0.3-1,0.9-1.8,1.7-2.3c0.7-0.6,1.6-0.8,2.6-0.8c0.8,0,1.3,0.1,1.9,0.4c0.6,0.2,1,0.7,1.4,1.2v-5l-1.9-0.3v-1.4h1.9h2.2v16
			l1.9,0.3v1.4h-3.8l-0.2-1.4c-0.4,0.6-0.9,1-1.4,1.2C1074.2,57.5,1073.5,57.7,1072.7,57.7z M1073.4,55.9c0.7,0,1.2-0.1,1.7-0.4
			c0.4-0.3,0.8-0.8,1.1-1.3v-5.7c-0.3-0.6-0.7-0.9-1.1-1.2c-0.4-0.3-1-0.4-1.7-0.4s-1.3,0.2-1.8,0.6c-0.4,0.4-0.8,1-1,1.7
			s-0.3,1.6-0.3,2.6v0.2c0,1.2,0.2,2.2,0.8,3C1071.6,55.5,1072.3,55.9,1073.4,55.9z"/>
		<path d="M1087.4,57.7c-1.1,0-2.1-0.2-3-0.8s-1.4-1.2-2-2.2c-0.4-0.9-0.7-2-0.7-3.2V51c0-1.2,0.2-2.2,0.8-3.1
			c0.4-0.9,1.1-1.7,1.9-2.2c0.8-0.6,1.7-0.8,2.7-0.8c1.1,0,2,0.2,2.8,0.7c0.8,0.4,1.3,1.1,1.7,1.9c0.3,0.8,0.6,1.8,0.6,2.9v1.4h-8
			v0.1c0,0.8,0.1,1.4,0.4,2.1c0.2,0.7,0.7,1.1,1.1,1.4c0.4,0.3,1.1,0.6,1.8,0.6c0.8,0,1.4-0.1,2-0.3c0.6-0.2,1.1-0.6,1.4-0.9
			l0.9,1.4c-0.4,0.4-1,0.8-1.8,1.1C1089.3,57.5,1088.4,57.7,1087.4,57.7z M1084.2,50.1h5.7v-0.3c0-0.6-0.1-1.1-0.3-1.6
			s-0.6-0.9-0.9-1.1c-0.4-0.2-0.9-0.4-1.6-0.4c-0.6,0-1,0.1-1.3,0.4c-0.4,0.3-0.8,0.7-1,1.2C1084.5,48.8,1084.3,49.4,1084.2,50.1
			L1084.2,50.1z"/>
	</g>
</g>
<g>
	<g>
		<path d="M460.9,105l-5.6-15l-1.3-0.2v-1.4h5.2v1.4l-1.6,0.2l3.7,10.6l0.3,1.3h0.1l0.4-1.3l3.9-10.6l-1.7-0.2v-1.4h5.2v1.4
			l-1.3,0.2l-5.6,15H460.9z"/>
		<path d="M476.8,105.3c-1.1,0-2.1-0.2-3-0.8c-0.8-0.6-1.4-1.2-1.9-2.2c-0.4-1-0.7-2-0.7-3.2v-0.2c0-1.2,0.2-2.3,0.7-3.2
			c0.4-1,1.1-1.7,1.9-2.2s1.8-0.8,2.9-0.8c1.1,0,2.1,0.2,3,0.8c0.8,0.6,1.4,1.3,1.9,2.2s0.7,2,0.7,3.2V99c0,1.2-0.2,2.3-0.7,3.2
			c-0.4,1-1.1,1.7-1.9,2.2S477.9,105.3,476.8,105.3z M476.8,103.5c0.7,0,1.3-0.2,1.8-0.6c0.4-0.4,0.9-0.9,1.1-1.6s0.3-1.4,0.3-2.3
			v-0.2c0-0.9-0.1-1.7-0.3-2.3c-0.2-0.7-0.7-1.2-1.1-1.6c-0.4-0.4-1.1-0.6-1.8-0.6s-1.3,0.2-1.8,0.6c-0.4,0.4-0.9,0.9-1.1,1.6
			c-0.2,0.7-0.3,1.4-0.3,2.3V99c0,0.9,0.1,1.7,0.3,2.3c0.2,0.7,0.6,1.2,1.1,1.6C475.4,103.3,476.1,103.5,476.8,103.5z"/>
		<path d="M483.9,105v-1.4l1.9-0.3V88.9l-1.9-0.3v-1.4h4.1v16l1.9,0.3v1.4h-6V105z"/>
		<path d="M497.1,105.3c-1.1,0-2.1-0.2-2.9-0.8s-1.4-1.2-1.9-2.2c-0.4-1-0.7-2-0.7-3.2v-0.4c0-1.2,0.2-2.2,0.7-3.1
			c0.4-0.9,1.1-1.7,1.9-2.2s1.8-0.8,3-0.8c1,0,1.9,0.1,2.7,0.4c0.8,0.3,1.3,0.8,1.9,1.3l0.1,3h-1.8l-0.3-2.1c-0.2-0.2-0.6-0.4-1-0.7
			c-0.4-0.2-0.9-0.2-1.3-0.2c-0.7,0-1.2,0.2-1.8,0.6c-0.6,0.4-0.9,0.9-1.2,1.6c-0.3,0.7-0.4,1.4-0.4,2.2V99c0,0.9,0.1,1.7,0.4,2.3
			c0.2,0.7,0.7,1.2,1.1,1.6c0.4,0.3,1.1,0.6,1.8,0.6c0.8,0,1.4-0.2,1.9-0.7c0.4-0.4,0.8-1,0.9-1.7h2v0.1c0,0.7-0.2,1.3-0.7,2
			c-0.3,0.7-0.9,1.1-1.7,1.4C499,105,498.1,105.3,497.1,105.3z"/>
		<path d="M507.7,105.3c-1.3,0-2.2-0.3-2.9-0.9c-0.7-0.7-1-1.6-1-2.7c0-0.8,0.2-1.4,0.7-2c0.4-0.6,1-1,1.9-1.3
			c0.8-0.3,1.8-0.4,2.9-0.4h2.2v-1.2c0-0.8-0.2-1.3-0.7-1.8s-1.1-0.7-1.9-0.7c-0.6,0-1,0.1-1.3,0.2c-0.3,0.1-0.8,0.3-1,0.6l-0.2,1.7
			h-1.8v-2.8c0.6-0.4,1.2-0.8,1.9-1c0.8-0.2,1.6-0.3,2.4-0.3c1.4,0,2.7,0.3,3.6,1.1c0.9,0.8,1.2,1.8,1.2,3.1v5.9c0,0.1,0,0.3,0,0.4
			c0,0.1,0,0.3,0,0.4l1.2,0.1v1.4h-3.2c-0.1-0.3-0.1-0.7-0.1-0.9s-0.1-0.6-0.1-0.8c-0.4,0.6-1,1-1.7,1.3
			C509.1,105,508.4,105.3,507.7,105.3z M508,103.4c0.8,0,1.4-0.2,2-0.6c0.7-0.3,1.1-0.8,1.3-1.3v-2.2H509c-1,0-1.8,0.2-2.3,0.8
			c-0.6,0.4-0.8,1-0.8,1.7c0,0.6,0.2,1,0.6,1.2S507.4,103.4,508,103.4z M507.6,90.3l2.1-3.1h2.7v0.1l-3.1,3H507.6L507.6,90.3z"/>
		<path d="M516.6,105v-1.4l1.9-0.3v-8.8l-1.9-0.3v-1.4h3.9l0.1,1.9c0.4-0.7,0.9-1.1,1.6-1.6c0.7-0.3,1.3-0.6,2.1-0.6
			c1.3,0,2.3,0.4,3.1,1.2c0.8,0.8,1.1,2,1.1,3.6v6l1.9,0.3v1.4h-6v-1.4l1.9-0.3v-6c0-1.1-0.2-1.9-0.7-2.3c-0.4-0.4-1.1-0.7-2-0.7
			c-0.7,0-1.2,0.1-1.7,0.4s-0.9,0.8-1.2,1.2v7.2l1.9,0.3v1.4h-6V105z"/>
		<path d="M537.9,105v-1.4l1.9-0.3V90.1l-1.9-0.3v-1.4h1.9h3l5.3,12.6h0.1l5.2-12.6h5v1.4l-1.9,0.3v13.1l1.9,0.3v1.4h-6.1v-1.4
			l2-0.3v-4.8v-7h-0.1l-5.3,12.9h-1.4l-5.6-12.9h-0.1l0.1,6.9v4.8l2,0.3v1.4h-6V105z"/>
		<path d="M560.2,105v-1.4l1.9-0.3v-8.8l-1.9-0.3v-1.4h4.1v10.6l1.9,0.3v1.4H560.2z M562,89.6v-2.4h2.3v2.4H562z"/>
		<path d="M573.3,105.3c-1.1,0-2.1-0.2-2.9-0.8s-1.4-1.2-1.9-2.2c-0.4-1-0.7-2-0.7-3.2v-0.4c0-1.2,0.2-2.2,0.7-3.1
			c0.4-0.9,1.1-1.7,1.9-2.2s1.8-0.8,3-0.8c1,0,1.9,0.1,2.7,0.4c0.8,0.3,1.3,0.8,1.9,1.3l0.1,3h-1.8l-0.3-2.1c-0.2-0.2-0.6-0.4-1-0.7
			c-0.3-0.1-0.9-0.2-1.3-0.2c-0.7,0-1.2,0.2-1.8,0.6c-0.6,0.4-0.9,0.9-1.2,1.6s-0.4,1.4-0.4,2.2V99c0,0.9,0.1,1.7,0.4,2.3
			c0.2,0.7,0.7,1.2,1.1,1.6c0.4,0.3,1.1,0.6,1.8,0.6c0.8,0,1.4-0.2,1.9-0.7c0.4-0.4,0.8-1,0.9-1.7h2v0.1c0,0.7-0.2,1.3-0.7,2
			c-0.3,0.7-0.9,1.1-1.7,1.4C575.2,105,574.3,105.3,573.3,105.3z"/>
		<path d="M579.6,105v-1.4l1.9-0.3V88.9l-1.9-0.3v-1.4h4.1v7.1c0.4-0.6,1-1,1.6-1.3c0.7-0.3,1.3-0.4,2-0.4c1.3,0,2.3,0.4,3.1,1.2
			c0.8,0.8,1.1,2,1.1,3.7v6l1.9,0.3v1.4h-6v-1.4l1.9-0.3v-6c0-1-0.2-1.8-0.7-2.2c-0.4-0.4-1.1-0.8-2-0.8c-0.7,0-1.2,0.1-1.7,0.4
			c-0.6,0.3-0.9,0.7-1.2,1.2v7.3l1.9,0.3v1.4h-6V105z"/>
		<path d="M594.8,105v-1.4l1.9-0.3v-8.8l-1.9-0.3v-1.4h4.1v10.6l1.9,0.3v1.4H594.8z M596.5,89.6v-2.4h2.3v2.4H596.5z"/>
		<path d="M602.3,105v-1.4l1.9-0.3v-8.8l-1.9-0.3v-1.4h3.9l0.1,1.9c0.4-0.7,0.9-1.1,1.6-1.6c0.7-0.3,1.3-0.6,2.1-0.6
			c1.3,0,2.3,0.4,3.1,1.2c0.8,0.8,1.1,2,1.1,3.6v6l1.9,0.3v1.4h-6v-1.4l1.9-0.3v-6c0-1.1-0.2-1.9-0.7-2.3c-0.4-0.4-1.1-0.7-2-0.7
			c-0.7,0-1.2,0.1-1.7,0.4s-0.9,0.8-1.2,1.2v7.2l1.9,0.3v1.4h-6V105z"/>
		<path d="M617.7,105v-1.4l1.9-0.3v-8.8l-1.9-0.3v-1.4h3.9l0.1,1.6c0.4-0.6,0.9-1,1.6-1.3c0.7-0.3,1.3-0.4,2.1-0.4s1.6,0.2,2.1,0.6
			c0.6,0.3,1,1,1.3,1.7c0.3-0.7,0.9-1.2,1.6-1.7c0.7-0.4,1.3-0.7,2.2-0.7c1.2,0,2.2,0.4,3,1.3c0.8,0.9,1.1,2.1,1.1,3.9v5.7l1.9,0.3
			v1.4h-6v-1.4l1.9-0.3v-5.7c0-1.2-0.2-2.1-0.7-2.6c-0.4-0.6-1-0.8-1.9-0.8c-0.8,0-1.4,0.2-1.9,0.8s-0.8,1.2-0.8,2.1v6.1l1.9,0.3
			v1.4h-6v-1.4l1.9-0.3v-5.7c0-1.1-0.2-2-0.7-2.6c-0.4-0.6-1-0.8-1.9-0.8c-0.7,0-1.2,0.1-1.7,0.4c-0.4,0.3-0.8,0.7-1,1.2v7.3
			l1.9,0.3v1.4C623.7,105,617.7,105,617.7,105z"/>
		<path d="M644.1,105.3c-1.3,0-2.2-0.3-2.9-0.9c-0.7-0.7-1-1.6-1-2.7c0-0.8,0.2-1.4,0.7-2c0.4-0.6,1-1,1.9-1.3
			c0.8-0.3,1.8-0.4,2.9-0.4h2.2v-1.2c0-0.8-0.2-1.3-0.7-1.8c-0.4-0.4-1.1-0.7-1.9-0.7c-0.6,0-1,0.1-1.3,0.2c-0.3,0.1-0.8,0.3-1,0.6
			l-0.2,1.7H641v-2.8c0.6-0.4,1.2-0.8,1.9-1c0.8-0.2,1.6-0.3,2.4-0.3c1.4,0,2.7,0.3,3.6,1.1c0.9,0.8,1.2,1.8,1.2,3.1v5.9
			c0,0.1,0,0.3,0,0.4c0,0.1,0,0.3,0,0.4l1.2,0.1v1.4h-3.2c-0.1-0.3-0.1-0.7-0.1-0.9s-0.1-0.6-0.1-0.8c-0.4,0.6-1,1-1.7,1.3
			C645.6,105,644.9,105.3,644.1,105.3z M644.5,103.4c0.8,0,1.4-0.2,2-0.6c0.7-0.3,1.1-0.8,1.3-1.3v-2.2h-2.3c-1,0-1.8,0.2-2.3,0.8
			c-0.6,0.4-0.8,1-0.8,1.7c0,0.6,0.2,1,0.6,1.2C643.4,103.2,643.8,103.4,644.5,103.4z"/>
		<path d="M652.8,105v-1.4l1.9-0.3V88.9l-1.9-0.3v-1.4h4.1v7.1c0.4-0.6,1-1,1.6-1.3c0.7-0.3,1.3-0.4,2-0.4c1.3,0,2.3,0.4,3.1,1.2
			c0.8,0.8,1.1,2,1.1,3.7v6l1.9,0.3v1.4h-6v-1.4l1.9-0.3v-6c0-1-0.2-1.8-0.7-2.2s-1.1-0.8-2-0.8c-0.7,0-1.2,0.1-1.7,0.4
			c-0.6,0.3-0.9,0.7-1.2,1.2v7.3l1.9,0.3v1.4h-6V105z"/>
		<path d="M673.5,105.3c-1.3,0-2.3-0.4-3.1-1.3s-1.1-2.2-1.1-4v-5.6l-1.4-0.3v-1.4h1.4h2.2v7.3c0,1.3,0.2,2.2,0.6,2.7
			c0.3,0.4,1,0.8,1.8,0.8c0.8,0,1.4-0.1,2-0.4s0.9-0.8,1.2-1.3v-7.1l-1.7-0.3v-1.4h1.7h2.2v10.6l1.4,0.3v1.4h-3.4l-0.1-1.8
			c-0.3,0.7-0.9,1.2-1.4,1.6C675.2,105.2,674.3,105.3,673.5,105.3z"/>
		<path d="M682.2,105v-1.4l1.9-0.3v-8.8l-1.9-0.3v-1.4h4.1v10.6l1.9,0.3v1.4H682.2z M684,89.6v-2.4h2.3v2.4H684z"/>
		<path d="M694.5,105.3c-1,0-1.9-0.2-2.6-0.8c-0.7-0.4-1.2-1.2-1.7-2.1c-0.3-0.9-0.6-1.9-0.6-3.1V99c0-1.3,0.2-2.4,0.6-3.4
			c0.3-1,0.9-1.8,1.7-2.3c0.8-0.6,1.6-0.8,2.6-0.8c0.8,0,1.3,0.1,1.9,0.4c0.6,0.2,1,0.7,1.4,1.2v-5l-1.9-0.3v-1.4h1.9h2.2v16
			l1.9,0.3v1.4h-3.8l-0.1-1.7c-0.4,0.6-0.9,1-1.4,1.2C696,105,695.3,105.3,694.5,105.3z M695.1,103.4c0.7,0,1.2-0.1,1.7-0.4
			s0.9-0.8,1.1-1.3v-5.7c-0.3-0.6-0.7-0.9-1.1-1.2c-0.4-0.3-1-0.4-1.7-0.4c-0.7,0-1.3,0.2-1.8,0.6c-0.4,0.4-0.8,1-1,1.7
			c-0.2,0.7-0.3,1.6-0.3,2.6v0.2c0,1.2,0.2,2.2,0.8,3C693.3,103,694.1,103.4,695.1,103.4z"/>
		<path d="M707.6,105.3c-1.3,0-2.2-0.3-2.9-0.9c-0.7-0.7-1-1.6-1-2.7c0-0.8,0.2-1.4,0.7-2c0.4-0.6,1-1,1.9-1.3
			c0.8-0.3,1.8-0.4,2.9-0.4h2.2v-1.2c0-0.8-0.2-1.3-0.7-1.8c-0.4-0.4-1.1-0.7-1.9-0.7c-0.6,0-1,0.1-1.3,0.2c-0.3,0.1-0.8,0.3-1,0.6
			l-0.2,1.7h-1.8v-2.8c0.6-0.4,1.2-0.8,1.9-1c0.8-0.2,1.6-0.3,2.4-0.3c1.4,0,2.7,0.3,3.6,1.1s1.2,1.8,1.2,3.1v5.9c0,0.1,0,0.3,0,0.4
			c0,0.1,0,0.3,0,0.4l1.2,0.1v1.4h-3.2c-0.1-0.3-0.1-0.7-0.1-0.9s-0.1-0.6-0.1-0.8c-0.4,0.6-1,1-1.7,1.3
			C709,105,708.3,105.3,707.6,105.3z M708,103.4c0.8,0,1.4-0.2,2-0.6c0.7-0.3,1-0.8,1.3-1.3v-2.2H709c-1,0-1.8,0.2-2.3,0.8
			c-0.6,0.4-0.8,1-0.8,1.7c0,0.6,0.2,1,0.6,1.2C706.8,103.2,707.2,103.4,708,103.4z"/>
	</g>
</g>
</svg>
