<?xml version="1.0" encoding="utf-8"?>
<!-- Generator: Adobe Illustrator 25.4.1, SVG Export Plug-In . SVG Version: 6.00 Build 0)  -->
<svg version="1.1" id="Layer_1" xmlns="http://www.w3.org/2000/svg" xmlns:xlink="http://www.w3.org/1999/xlink" x="0px" y="0px"
	 viewBox="0 0 747.7 443.8" style="enable-background:new 0 0 747.7 443.8;" xml:space="preserve">
<style type="text/css">
	.st0{fill:#A8BEB4;}
	.st1{fill:url(#SVGID_1_);}
	.st2{clip-path:url(#SVGID_00000057869860444467115760000002924324601942948507_);}
	.st3{fill:none;stroke:#92412A;stroke-miterlimit:10;}
	.st4{fill:#96442D;}
	.st5{fill:url(#SVGID_00000178175646302509477790000005325807357868386194_);}
</style>
<image style="overflow:visible;enable-background:new    ;" width="754" height="490" xlink:href="7F4B7965.png"  transform="matrix(0.8444 0 0 0.8444 92.1661 14.5843)">
</image>
<image style="overflow:visible;" width="1606" height="1748" xlink:href="7F4B7967.png"  transform="matrix(0.24 0 0 0.24 279.12 11.68)">
</image>
<rect x="18.2" y="15.2" class="st0" width="190.9" height="412.8"/>
<linearGradient id="SVGID_1_" gradientUnits="userSpaceOnUse" x1="-174.4" y1="-108.65" x2="-123.6" y2="-108.65" gradientTransform="matrix(6.123234e-17 -1 -1 -6.123234e-17 265.2 262.4)">
	<stop  offset="0" style="stop-color:#FFFFFF"/>
	<stop  offset="1" style="stop-color:#FFFFFF;stop-opacity:0"/>
</linearGradient>
<rect x="16.1" y="386" class="st1" width="715.4" height="50.8"/>
<g>
	<g>
		<defs>
			<circle id="SVGID_00000147214579419421499900000007372206137453548441_" cx="134.7" cy="145.8" r="102.1"/>
		</defs>
		<clipPath id="SVGID_00000070117144956657686100000009219808166542755460_">
			<use xlink:href="#SVGID_00000147214579419421499900000007372206137453548441_"  style="overflow:visible;"/>
		</clipPath>
		
			<g transform="matrix(1 0 0 1 9.536743e-07 0)" style="clip-path:url(#SVGID_00000070117144956657686100000009219808166542755460_);">
			
				<image style="overflow:visible;enable-background:new    ;" width="703" height="532" xlink:href="7F4B7962.png"  transform="matrix(0.3904 0 0 0.3904 15.4284 41.9343)">
			</image>
		</g>
	</g>
	<g>
		<circle id="SVGID_2_" class="st3" cx="134.7" cy="145.8" r="102.1"/>
	</g>
</g>
<g>
	<path class="st4" d="M132,271.3c-0.2,1.4-0.6,2.5-1.6,3.4c-0.9,0.9-2.2,1.2-3.7,1.2c-1.7,0-3.1-0.6-4-1.7s-1.4-2.6-1.4-4.7v-0.8
		c0-1.2,0.2-2.3,0.6-3.4c0.5-0.9,1.1-1.7,1.9-2.2c0.8-0.5,1.9-0.8,3-0.8c1.6,0,2.8,0.5,3.7,1.2c0.9,0.8,1.4,2,1.6,3.4h-2.6
		c0-0.9-0.3-1.6-0.8-1.9c-0.5-0.3-1.1-0.6-1.9-0.6c-0.9,0-1.6,0.3-2,0.9c-0.5,0.6-0.6,1.7-0.6,3.1v0.9c0,1.4,0.2,2.5,0.6,3.1
		c0.5,0.6,1.1,0.9,2,0.9c0.8,0,1.4-0.2,1.9-0.6c0.5-0.5,0.6-0.9,0.8-1.9h2.6V271.3z"/>
	<path class="st4" d="M136.2,266.9c0.6-0.8,1.6-1.2,2.6-1.2c2.2,0,3.3,1.2,3.3,3.7v6.4h-2.6v-6.2c0-0.6-0.2-0.9-0.3-1.2
		c-0.2-0.3-0.6-0.5-1.2-0.5c-0.8,0-1.4,0.3-1.7,0.9v7h-2.6v-14h2.6V266.9z"/>
	<path class="st4" d="M144.1,263.3c0-0.5,0.2-0.8,0.5-0.9s0.6-0.3,1.1-0.3c0.5,0,0.8,0.2,1.1,0.3c0.3,0.2,0.5,0.6,0.5,0.9
		c0,0.5-0.2,0.8-0.5,0.9c-0.3,0.2-0.6,0.3-1.1,0.3c-0.5,0-0.8-0.2-1.1-0.3S144.1,263.7,144.1,263.3z M146.9,275.8h-2.6V266h2.6
		V275.8z"/>
	<path class="st4" d="M151.9,275.8h-2.6v-14h2.6V275.8z"/>
	<path class="st4" d="M158.6,276c-1.4,0-2.6-0.5-3.6-1.4c-0.9-0.9-1.4-2-1.4-3.6v-0.3c0-0.9,0.2-1.9,0.6-2.6
		c0.5-0.8,0.9-1.4,1.6-1.9c0.6-0.5,1.6-0.6,2.3-0.6c1.4,0,2.3,0.5,3.1,1.2c0.8,0.8,1.1,2,1.1,3.6v1.1h-6.2c0.2,0.6,0.3,1.1,0.8,1.6
		c0.5,0.5,0.9,0.6,1.6,0.6c1.1,0,1.9-0.3,2.3-1.1l1.2,1.4c-0.5,0.6-0.9,0.9-1.6,1.2C159.9,275.5,159.4,276,158.6,276z M158.3,267.9
		c-0.5,0-0.9,0.2-1.2,0.5s-0.5,0.9-0.6,1.6h3.7v-0.2c0-0.6-0.2-1.1-0.5-1.4S158.8,267.9,158.3,267.9z"/>
	<path class="st4" d="M63.6,293.1h-2.6v5.1h-2.3V285h4.7c1.6,0,2.6,0.3,3.6,1.1c0.8,0.6,1.2,1.7,1.2,3c0,0.9-0.2,1.6-0.6,2.2
		s-1.1,1.1-1.9,1.4l3,5.6v0.2h-2.5L63.6,293.1z M60.9,291.2h2.3c0.8,0,1.4-0.2,1.9-0.6c0.5-0.5,0.6-0.9,0.6-1.6
		c0-0.8-0.2-1.2-0.6-1.7s-0.9-0.6-1.9-0.6h-2.5v4.5H60.9z"/>
	<path class="st4" d="M74.5,298.4c-1.4,0-2.5-0.5-3.4-1.4c-0.9-0.9-1.2-2-1.2-3.6v-0.2c0-0.9,0.2-1.9,0.6-2.6s0.9-1.4,1.6-1.9
		s1.4-0.6,2.3-0.6c1.4,0,2.3,0.5,3.1,1.2c0.8,0.8,1.1,2,1.1,3.6v0.9h-6.4c0,0.8,0.3,1.4,0.8,1.9c0.5,0.5,1.1,0.8,1.9,0.8
		c1.1,0,1.9-0.5,2.5-1.2l1.2,1.1c-0.5,0.6-0.9,1.1-1.6,1.4C76.4,298.1,75.3,298.4,74.5,298.4z M74.2,289.8c-0.6,0-1.1,0.2-1.4,0.6
		c-0.3,0.5-0.6,1.1-0.8,1.7h4.2V292c0-0.8-0.3-1.2-0.6-1.7C75.3,289.8,74.8,289.8,74.2,289.8z"/>
	<path class="st4" d="M79.8,293.1c0-1.6,0.3-2.8,1.1-3.7c0.8-0.9,1.7-1.4,2.8-1.4c1.1,0,2,0.5,2.6,1.2l0.2-0.9h2v9.5
		c0,1.2-0.5,2.3-1.2,3.1c-0.8,0.8-1.9,1.1-3.3,1.1c-0.8,0-1.4-0.2-2.2-0.5c-0.8-0.3-1.2-0.6-1.6-1.2l1.1-1.4
		c0.6,0.8,1.6,1.2,2.5,1.2c0.8,0,1.2-0.2,1.7-0.6c0.5-0.5,0.6-0.9,0.6-1.7v-0.6c-0.6,0.8-1.6,1.1-2.5,1.1c-1.1,0-2-0.5-2.8-1.4
		C80.1,295.9,79.8,294.8,79.8,293.1z M82,293.4c0,0.9,0.2,1.7,0.6,2.3s0.9,0.8,1.7,0.8c0.9,0,1.6-0.3,2-1.1v-4.4
		c-0.5-0.8-1.1-1.1-2-1.1c-0.8,0-1.2,0.3-1.7,0.9S82,292.2,82,293.4z"/>
	<path class="st4" d="M90.9,285.8c0-0.3,0.2-0.6,0.3-0.8s0.5-0.3,0.9-0.3c0.5,0,0.8,0.2,0.9,0.3s0.3,0.5,0.3,0.8
		c0,0.3-0.2,0.6-0.3,0.8c-0.2,0.2-0.5,0.3-0.9,0.3c-0.5,0-0.8-0.2-0.9-0.3C91,286.4,90.9,286.1,90.9,285.8z M93.2,298.2H91v-9.8h2.2
		V298.2z"/>
	<path class="st4" d="M95.1,293.1c0-0.9,0.2-1.9,0.6-2.6s0.9-1.4,1.6-1.7c0.6-0.3,1.6-0.6,2.3-0.6c1.4,0,2.3,0.5,3.3,1.2
		c0.9,0.8,1.2,2,1.4,3.4v0.5c0,0.9-0.2,1.9-0.6,2.6c-0.5,0.8-0.9,1.4-1.6,1.7c-0.6,0.3-1.6,0.6-2.3,0.6c-1.4,0-2.5-0.5-3.3-1.4
		C95.7,295.9,95.1,294.8,95.1,293.1L95.1,293.1z M97.4,293.4c0,1.1,0.2,1.9,0.6,2.3c0.5,0.5,0.9,0.9,1.7,0.9c0.8,0,1.4-0.3,1.7-0.9
		c0.3-0.6,0.6-1.4,0.6-2.5c0-0.9-0.2-1.7-0.6-2.3s-0.9-0.9-1.7-0.9c-0.8,0-1.2,0.3-1.7,0.9C97.6,291.5,97.4,292.2,97.4,293.4z
		 M100.4,284.2h2.5l-2.5,2.8h-1.7L100.4,284.2z"/>
	<path class="st4" d="M108.3,288.3v1.1c0.8-0.9,1.7-1.2,2.8-1.2c2,0,3.1,1.2,3.1,3.6v6.5H112v-6.4c0-0.6-0.2-1.1-0.5-1.4
		s-0.8-0.5-1.4-0.5c-0.9,0-1.6,0.5-2,1.2v7H106v-9.8h2.3V288.3z"/>
	<path class="st4" d="M120.8,293.1c0-1.6,0.3-2.8,1.1-3.7c0.8-0.9,1.7-1.4,2.8-1.4s1.9,0.3,2.5,1.1v-5h2.2v14h-2l-0.2-1.1
		c-0.6,0.8-1.6,1.2-2.6,1.2c-1.1,0-2-0.5-2.8-1.4C121.2,296.1,120.8,294.8,120.8,293.1z M123.1,293.4c0,0.9,0.2,1.7,0.6,2.3
		s0.9,0.8,1.7,0.8c0.9,0,1.6-0.5,2-1.2v-4.2c-0.5-0.8-1.1-1.2-2-1.2c-0.8,0-1.2,0.3-1.7,0.8C123.3,291.1,123.1,292.2,123.1,293.4z"
		/>
	<path class="st4" d="M136.2,298.4c-1.4,0-2.5-0.5-3.4-1.4c-0.9-0.9-1.2-2-1.2-3.6v-0.2c0-0.9,0.2-1.9,0.6-2.6s0.9-1.4,1.6-1.9
		s1.4-0.6,2.3-0.6c1.4,0,2.3,0.5,3.1,1.2c0.8,0.8,1.1,2,1.1,3.6v0.9h-6.4c0,0.8,0.3,1.4,0.8,1.9c0.5,0.5,1.1,0.8,1.9,0.8
		c1.1,0,1.9-0.5,2.5-1.2l1.2,1.1c-0.5,0.6-0.9,1.1-1.6,1.4C138.1,298.1,137,298.4,136.2,298.4z M135.9,289.8c-0.6,0-1.1,0.2-1.4,0.6
		c-0.3,0.5-0.6,1.1-0.8,1.7h4.2V292c0-0.8-0.3-1.2-0.6-1.7C137,289.8,136.5,289.8,135.9,289.8z"/>
	<path class="st4" d="M148.8,298.2h-2.2v-14h2.2V298.2z"/>
	<path class="st4" d="M150.8,293.1c0-0.9,0.2-1.9,0.6-2.6s0.9-1.4,1.6-1.7s1.6-0.6,2.3-0.6c1.4,0,2.3,0.5,3.3,1.2s1.2,2,1.4,3.4v0.5
		c0,0.9-0.2,1.9-0.6,2.6s-0.9,1.4-1.6,1.7c-0.6,0.3-1.6,0.6-2.3,0.6c-1.4,0-2.5-0.5-3.3-1.4C151.4,295.9,150.8,294.8,150.8,293.1
		L150.8,293.1z M153,293.4c0,1.1,0.2,1.9,0.6,2.3c0.5,0.5,0.9,0.9,1.7,0.9s1.4-0.3,1.7-0.9c0.3-0.6,0.6-1.4,0.6-2.5
		c0-0.9-0.2-1.7-0.6-2.3s-0.9-0.9-1.7-0.9s-1.2,0.3-1.7,0.9C153.2,291.5,153,292.2,153,293.4z"/>
	<path class="st4" d="M167.5,295.4c0-0.5-0.2-0.6-0.5-0.9s-0.9-0.3-1.6-0.6c-0.6-0.3-1.4-0.3-1.9-0.6c-1.1-0.5-1.7-1.2-1.7-2.3
		c0-0.8,0.3-1.6,1.1-2.2c0.8-0.6,1.6-0.9,2.8-0.9s2.2,0.3,2.8,0.9c0.6,0.6,1.1,1.4,1.1,2.3h-2.2c0-0.5-0.2-0.8-0.5-1.1
		c-0.3-0.3-0.8-0.5-1.2-0.5c-0.5,0-0.9,0.2-1.2,0.3c-0.3,0.2-0.5,0.5-0.5,0.9c0,0.3,0.2,0.6,0.5,0.8s0.9,0.3,1.7,0.6
		c0.8,0.3,1.6,0.5,2,0.6c0.5,0.2,0.9,0.6,1.1,0.9c0.2,0.3,0.3,0.8,0.3,1.4c0,0.9-0.3,1.6-1.1,2.2c-0.8,0.6-1.7,0.8-3,0.8
		c-0.8,0-1.6-0.2-2.2-0.5c-0.6-0.3-1.1-0.6-1.4-1.2c-0.3-0.6-0.5-1.1-0.5-1.7h2.2c0,0.5,0.2,0.9,0.6,1.2c0.5,0.3,0.8,0.5,1.4,0.5
		s1.1-0.2,1.4-0.3C167.5,295.9,167.5,295.9,167.5,295.4z"/>
	<path class="st4" d="M178.7,296.4h6.1v1.9h-8.4V285h2.3V296.4z"/>
	<path class="st4" d="M192.3,298.2c-0.2-0.2-0.2-0.5-0.3-0.9c-0.8,0.8-1.6,1.1-2.6,1.1c-0.9,0-1.9-0.3-2.5-0.8
		c-0.6-0.5-0.9-1.2-0.9-2c0-1.1,0.5-1.9,1.2-2.5c0.8-0.6,1.9-0.8,3.4-0.8h1.4v-0.6c0-0.5-0.2-0.9-0.5-1.2s-0.8-0.5-1.2-0.5
		c-0.5,0-0.9,0.2-1.2,0.3c-0.3,0.2-0.5,0.6-0.5,0.9h-2.2c0-0.5,0.2-1.1,0.5-1.6c0.3-0.5,0.8-0.8,1.4-1.1c0.6-0.3,1.2-0.5,2-0.5
		c1.1,0,2,0.3,2.8,0.9c0.8,0.6,1.1,1.4,1.1,2.5v4.5c0,0.9,0.2,1.6,0.3,2.2v0.2h-2.2V298.2z M189.8,296.5c0.5,0,0.8-0.2,1.2-0.3
		c0.5-0.2,0.6-0.5,0.9-0.9v-1.9h-1.2c-0.8,0-1.4,0.2-1.9,0.5c-0.5,0.3-0.6,0.6-0.6,1.2c0,0.5,0.2,0.8,0.5,1.1
		S189.3,296.5,189.8,296.5z"/>
	<path class="st4" d="M196,293.1c0-1.6,0.3-2.8,1.1-3.7c0.8-0.9,1.7-1.4,2.8-1.4s2,0.5,2.6,1.2l0.2-0.9h2v9.5c0,1.2-0.5,2.3-1.2,3.1
		c-0.8,0.8-1.9,1.1-3.3,1.1c-0.8,0-1.4-0.2-2.2-0.5c-0.8-0.3-1.2-0.6-1.6-1.2l1.1-1.4c0.6,0.8,1.6,1.2,2.5,1.2
		c0.8,0,1.2-0.2,1.7-0.6c0.5-0.5,0.6-0.9,0.6-1.7v-0.6c-0.6,0.8-1.6,1.1-2.5,1.1c-1.1,0-2-0.5-2.8-1.4
		C196.3,295.9,196,294.8,196,293.1z M198.2,293.4c0,0.9,0.2,1.7,0.6,2.3s0.9,0.8,1.7,0.8c0.9,0,1.6-0.3,2-1.1v-4.4
		c-0.5-0.8-1.1-1.1-2-1.1c-0.8,0-1.2,0.3-1.7,0.9C198.3,291.5,198.2,292.2,198.2,293.4z"/>
	<path class="st4" d="M206.6,293.1c0-0.9,0.2-1.9,0.6-2.6s0.9-1.4,1.6-1.7c0.6-0.3,1.6-0.6,2.3-0.6c1.4,0,2.3,0.5,3.3,1.2
		s1.2,2,1.4,3.4v0.5c0,0.9-0.2,1.9-0.6,2.6s-0.9,1.4-1.6,1.7c-0.6,0.3-1.6,0.6-2.3,0.6c-1.4,0-2.5-0.5-3.3-1.4
		C207.2,295.9,206.6,294.8,206.6,293.1L206.6,293.1z M208.8,293.4c0,1.1,0.2,1.9,0.6,2.3c0.5,0.5,0.9,0.9,1.7,0.9
		c0.8,0,1.4-0.3,1.7-0.9c0.3-0.6,0.6-1.4,0.6-2.5c0-0.9-0.2-1.7-0.6-2.3s-0.9-0.9-1.7-0.9c-0.8,0-1.2,0.3-1.7,0.9
		C208.9,291.5,208.8,292.2,208.8,293.4z"/>
	<path class="st4" d="M223.3,295.4c0-0.5-0.2-0.6-0.5-0.9s-0.9-0.3-1.6-0.6c-0.6-0.3-1.4-0.3-1.9-0.6c-1.1-0.5-1.7-1.2-1.7-2.3
		c0-0.8,0.3-1.6,1.1-2.2c0.8-0.6,1.6-0.9,2.8-0.9c1.2,0,2.2,0.3,2.8,0.9c0.6,0.6,1.1,1.4,1.1,2.3h-2.2c0-0.5-0.2-0.8-0.5-1.1
		c-0.3-0.3-0.8-0.5-1.2-0.5c-0.5,0-0.9,0.2-1.2,0.3c-0.3,0.2-0.5,0.5-0.5,0.9c0,0.3,0.2,0.6,0.5,0.8c0.3,0.2,0.9,0.3,1.7,0.6
		s1.6,0.5,2,0.6c0.5,0.2,0.9,0.6,1.1,0.9c0.2,0.3,0.3,0.8,0.3,1.4c0,0.9-0.3,1.6-1.1,2.2c-0.8,0.6-1.7,0.8-3,0.8
		c-0.8,0-1.6-0.2-2.2-0.5s-1.1-0.6-1.4-1.2c-0.3-0.6-0.5-1.1-0.5-1.7h2.2c0,0.5,0.2,0.9,0.6,1.2c0.5,0.3,0.8,0.5,1.4,0.5
		c0.6,0,1.1-0.2,1.4-0.3C223.3,295.9,223.3,295.9,223.3,295.4z"/>
</g>
<g>
	<path class="st4" d="M36.1,397.1l-2.8-0.8l0.5-1.7l2.8,1.1l-0.2-3.1h1.7l-0.2,3.3l2.8-1.1l0.5,1.7l-3,0.8l1.9,2.5l-1.4,1.1
		l-1.7-2.6l-1.7,2.6l-1.4-0.9L36.1,397.1z"/>
	<path class="st4" d="M42.8,405.9v-13.2h4c1.2,0,2.2,0.3,3.1,0.8c0.9,0.5,1.7,1.2,2.2,2.2c0.5,0.9,0.8,2,0.8,3.3v0.6
		c0,1.2-0.3,2.3-0.8,3.3c-0.5,0.9-1.2,1.7-2.2,2.2c-0.9,0.5-2,0.8-3.1,0.8h-4V405.9z M45.4,394.9v8.9h1.4c1.1,0,1.9-0.3,2.5-1.1
		s0.8-1.7,0.9-3v-0.8c0-1.4-0.3-2.3-0.8-3.1c-0.5-0.8-1.4-1.1-2.5-1.1h-1.6V394.9z"/>
	<path class="st4" d="M54.6,393.5c0-0.5,0.2-0.8,0.5-0.9c0.3-0.2,0.6-0.3,1.1-0.3c0.5,0,0.8,0.2,1.1,0.3c0.3,0.2,0.5,0.6,0.5,0.9
		c0,0.5-0.2,0.8-0.5,0.9c-0.3,0.2-0.6,0.3-1.1,0.3c-0.5,0-0.8-0.2-1.1-0.3C54.8,394.3,54.6,394,54.6,393.5z M57.4,405.9h-2.6v-10
		h2.6V405.9z"/>
	<path class="st4" d="M65.1,403.1c0-0.3-0.2-0.6-0.5-0.8c-0.3-0.2-0.8-0.3-1.6-0.5c-2.3-0.5-3.6-1.6-3.6-3c0-0.9,0.3-1.6,1.1-2.2
		s1.7-0.9,2.8-0.9c1.2,0,2.2,0.3,3,0.9s1.1,1.4,1.1,2.3h-2.6c0-0.3-0.2-0.6-0.3-0.9c-0.2-0.3-0.6-0.3-1.1-0.3
		c-0.5,0-0.8,0.2-1.1,0.3c-0.3,0.2-0.3,0.5-0.3,0.8s0.2,0.5,0.5,0.8s0.8,0.3,1.4,0.5c0.6,0.2,1.2,0.3,1.7,0.5c1.4,0.5,2,1.4,2,2.6
		c0,0.9-0.3,1.6-1.1,2.2s-1.7,0.8-3,0.8c-0.8,0-1.6-0.2-2.2-0.5s-1.1-0.6-1.6-1.2c-0.5-0.6-0.6-1.1-0.6-1.7h2.5
		c0,0.5,0.2,0.8,0.5,1.1c0.3,0.3,0.8,0.3,1.2,0.3c0.5,0,0.9-0.2,1.1-0.3C64.6,403.8,65.1,403.5,65.1,403.1z"/>
	<path class="st4" d="M72.4,393.6v2.5h1.7v1.9h-1.7v5c0,0.3,0,0.6,0.2,0.8c0.2,0.2,0.5,0.3,0.8,0.3s0.6,0,0.8,0v2
		c-0.5,0.2-1.1,0.3-1.6,0.3c-1.9,0-2.8-0.9-2.8-2.8v-5.3h-1.4V396h1.4v-2.5h2.6V393.6z"/>
	<path class="st4" d="M81.3,405.9c-0.2-0.3-0.2-0.5-0.3-0.9c-0.6,0.8-1.4,1.1-2.5,1.1c-0.9,0-1.7-0.3-2.3-0.8
		c-0.6-0.5-0.9-1.2-0.9-2.2c0-1.1,0.3-1.9,1.1-2.3c0.8-0.5,1.9-0.8,3.4-0.8H81v-0.6c0-0.5-0.2-0.8-0.3-1.1c-0.2-0.3-0.6-0.5-1.1-0.5
		s-0.8,0.2-1.1,0.3c-0.3,0.2-0.3,0.5-0.3,0.9h-2.6c0-0.6,0.2-1.1,0.5-1.6c0.3-0.5,0.8-0.9,1.6-1.1c0.8-0.2,1.4-0.5,2.2-0.5
		c1.2,0,2.2,0.3,3,0.9c0.8,0.6,1.1,1.4,1.1,2.6v4.2c0,0.9,0.2,1.7,0.5,2.2v0.2h-3V405.9z M79.1,404.1c0.3,0,0.8-0.2,1.1-0.3
		c0.3-0.2,0.6-0.5,0.8-0.6v-1.7H80c-1.2,0-2,0.5-2.2,1.4v0.2c0,0.3,0.2,0.6,0.3,0.8C78.3,403.9,78.8,404.1,79.1,404.1z"/>
	<path class="st4" d="M88,396l0.2,1.1c0.8-0.9,1.7-1.2,2.8-1.2c1.1,0,1.9,0.3,2.3,0.9s0.8,1.6,0.8,2.8v6.4h-2.6v-6.4
		c0-0.6-0.2-0.9-0.3-1.2c-0.2-0.3-0.6-0.3-1.2-0.3c-0.8,0-1.2,0.3-1.7,0.9v7h-2.6v-10H88z"/>
	<path class="st4" d="M100.1,403.9c0.5,0,0.9-0.2,1.2-0.5c0.3-0.3,0.5-0.6,0.5-1.1h2.5c0,0.6-0.2,1.2-0.6,1.9
		c-0.5,0.6-0.8,0.9-1.4,1.2s-1.2,0.5-2,0.5c-1.4,0-2.5-0.5-3.3-1.4c-0.8-0.9-1.2-2.2-1.2-3.7v-0.2c0-1.6,0.5-2.8,1.2-3.6
		s1.9-1.4,3.3-1.4c1.2,0,2.2,0.3,3,1.1c0.8,0.8,1.1,1.7,1.1,2.8h-2.5c0-0.5-0.2-0.9-0.5-1.2c-0.3-0.3-0.8-0.5-1.2-0.5
		c-0.6,0-1.1,0.2-1.4,0.6c-0.3,0.5-0.5,1.2-0.5,2.2v0.3c0,1.1,0.2,1.7,0.5,2.2C99,403.8,99.5,403.9,100.1,403.9z"/>
	<path class="st4" d="M105.7,393.5c0-0.5,0.2-0.8,0.5-0.9c0.3-0.2,0.6-0.3,1.1-0.3c0.5,0,0.8,0.2,1.1,0.3c0.3,0.2,0.5,0.6,0.5,0.9
		c0,0.5-0.2,0.8-0.5,0.9c-0.3,0.2-0.6,0.3-1.1,0.3c-0.5,0-0.8-0.2-1.1-0.3C105.9,394.3,105.7,394,105.7,393.5z M108.5,405.9h-2.6
		v-10h2.6V405.9z"/>
	<path class="st4" d="M116.5,405.9c-0.2-0.3-0.2-0.5-0.3-0.9c-0.6,0.8-1.4,1.1-2.5,1.1c-0.9,0-1.7-0.3-2.3-0.8
		c-0.6-0.5-0.9-1.2-0.9-2.2c0-1.1,0.3-1.9,1.1-2.3c0.8-0.5,1.9-0.8,3.4-0.8h1.2v-0.6c0-0.5-0.2-0.8-0.3-1.1
		c-0.2-0.3-0.6-0.5-1.1-0.5c-0.5,0-0.8,0.2-1.1,0.3c-0.3,0.2-0.3,0.5-0.3,0.9h-2.6c0-0.6,0.2-1.1,0.5-1.6c0.3-0.5,0.8-0.9,1.6-1.1
		c0.8-0.2,1.4-0.5,2.2-0.5c1.2,0,2.2,0.3,3,0.9c0.8,0.6,1.1,1.4,1.1,2.6v4.2c0,0.9,0.2,1.7,0.5,2.2v0.2h-3V405.9z M114.3,404.1
		c0.3,0,0.8-0.2,1.1-0.3c0.3-0.2,0.6-0.5,0.8-0.6v-1.7h-0.9c-1.2,0-2,0.5-2.2,1.4v0.2c0,0.3,0.2,0.6,0.3,0.8
		C113.5,403.9,114,404.1,114.3,404.1z"/>
	<path class="st4" d="M125,401c0-1.6,0.3-2.8,1.1-3.7c0.8-0.9,1.6-1.4,2.8-1.4c0.9,0,1.7,0.3,2.3,1.1v-5h2.6v14h-2.3l-0.2-1.1
		c-0.6,0.8-1.6,1.2-2.5,1.2c-1.1,0-2-0.5-2.8-1.4C125.4,403.8,125,402.5,125,401z M127.7,401.1c0,0.9,0.2,1.7,0.5,2.2
		c0.3,0.5,0.8,0.8,1.4,0.8c0.8,0,1.4-0.3,1.7-1.1v-3.9c-0.3-0.6-0.9-1.1-1.7-1.1C128.3,398,127.7,399.1,127.7,401.1z"/>
	<path class="st4" d="M140.5,406.1c-1.4,0-2.6-0.5-3.6-1.4c-0.9-0.9-1.4-2-1.4-3.6v-0.3c0-0.9,0.2-1.9,0.6-2.6
		c0.5-0.8,0.9-1.4,1.6-1.9c0.6-0.5,1.6-0.6,2.3-0.6c1.4,0,2.3,0.5,3.1,1.2s1.1,2,1.1,3.6v1.1H138c0.2,0.6,0.3,1.1,0.8,1.6
		c0.5,0.5,0.9,0.6,1.6,0.6c1.1,0,1.9-0.3,2.3-1.1l1.2,1.4c-0.5,0.6-0.9,0.9-1.6,1.2C141.7,405.6,141.4,406.1,140.5,406.1z
		 M140.2,398c-0.5,0-0.9,0.2-1.2,0.5c-0.3,0.3-0.5,0.9-0.6,1.6h3.7v-0.2c0-0.6-0.2-1.1-0.5-1.4C141.2,398.2,140.8,398,140.2,398z"/>
	<path class="st4" d="M161.3,401.4c-0.2,1.4-0.6,2.5-1.6,3.4c-0.9,0.9-2.2,1.2-3.7,1.2c-1.7,0-3.1-0.6-4-1.7
		c-0.9-1.1-1.4-2.6-1.4-4.7v-0.8c0-1.2,0.2-2.3,0.6-3.4c0.5-1.1,1.1-1.7,1.9-2.2c0.8-0.5,1.9-0.8,3-0.8c1.6,0,2.8,0.5,3.7,1.2
		c0.9,0.8,1.4,2,1.6,3.4h-2.8c0-0.9-0.3-1.6-0.8-1.9c-0.5-0.3-1.1-0.6-1.9-0.6c-0.9,0-1.6,0.3-2,0.9c-0.5,0.6-0.6,1.7-0.6,3.1v0.9
		c0,1.4,0.2,2.5,0.6,3.1c0.5,0.6,1.1,0.9,2,0.9c0.8,0,1.4-0.2,1.9-0.6c0.5-0.5,0.6-0.9,0.8-1.9h2.8V401.4z"/>
	<path class="st4" d="M165.5,397.1c0.6-0.8,1.6-1.2,2.6-1.2c2.2,0,3.3,1.2,3.3,3.7v6.4h-2.6v-6.2c0-0.6-0.2-0.9-0.3-1.2
		c-0.2-0.3-0.6-0.5-1.2-0.5c-0.8,0-1.4,0.3-1.7,0.9v7h-2.6v-14h2.6V397.1z"/>
	<path class="st4" d="M179.1,405.9c-0.2-0.3-0.2-0.5-0.3-0.9c-0.6,0.8-1.4,1.1-2.5,1.1c-0.9,0-1.7-0.3-2.3-0.8
		c-0.6-0.5-0.9-1.2-0.9-2.2c0-1.1,0.3-1.9,1.1-2.3c0.8-0.5,1.9-0.8,3.4-0.8h1.2v-0.6c0-0.5-0.2-0.8-0.3-1.1
		c-0.2-0.3-0.6-0.5-1.1-0.5c-0.5,0-0.8,0.2-1.1,0.3c-0.3,0.2-0.3,0.5-0.3,0.9h-2.6c0-0.6,0.2-1.1,0.5-1.6c0.3-0.5,0.8-0.9,1.6-1.1
		c0.8-0.2,1.4-0.5,2.2-0.5c1.2,0,2.2,0.3,3,0.9c0.8,0.6,1.1,1.4,1.1,2.6v4.2c0,0.9,0.2,1.7,0.5,2.2v0.2h-3V405.9z M176.9,404.1
		c0.3,0,0.8-0.2,1.1-0.3c0.3-0.2,0.6-0.5,0.8-0.6v-1.7h-0.9c-1.2,0-2,0.5-2.2,1.4v0.2c0,0.3,0.2,0.6,0.3,0.8
		C176.1,403.9,176.6,404.1,176.9,404.1z"/>
	<path class="st4" d="M183.5,393.5c0-0.5,0.2-0.8,0.5-0.9c0.3-0.2,0.6-0.3,1.1-0.3c0.5,0,0.8,0.2,1.1,0.3c0.3,0.2,0.5,0.6,0.5,0.9
		c0,0.5-0.2,0.8-0.5,0.9c-0.3,0.2-0.6,0.3-1.1,0.3c-0.5,0-0.8-0.2-1.1-0.3C183.6,394.3,183.5,394,183.5,393.5z M186.3,405.9h-2.6
		v-10h2.6V405.9z"/>
	<path class="st4" d="M191.6,393.6v2.5h1.7v1.9h-1.7v5c0,0.3,0,0.6,0.2,0.8c0.2,0.2,0.5,0.3,0.8,0.3s0.6,0,0.8,0v2
		c-0.5,0.2-1.1,0.3-1.6,0.3c-1.9,0-2.8-0.9-2.8-2.8v-5.3h-1.4V396h1.4v-2.5h2.6V393.6z"/>
	<path class="st4" d="M199.3,406.1c-1.4,0-2.6-0.5-3.6-1.4c-0.9-0.9-1.4-2-1.4-3.6v-0.3c0-0.9,0.2-1.9,0.6-2.6s0.9-1.4,1.6-1.9
		c0.6-0.5,1.6-0.6,2.3-0.6c1.4,0,2.3,0.5,3.1,1.2s1.1,2,1.1,3.6v1.1h-6.2c0.2,0.6,0.3,1.1,0.8,1.6c0.5,0.5,0.9,0.6,1.6,0.6
		c1.1,0,1.9-0.3,2.3-1.1l1.2,1.4c-0.5,0.6-0.9,0.9-1.6,1.2C200.6,405.6,200.1,406.1,199.3,406.1z M199,398c-0.5,0-0.9,0.2-1.2,0.5
		c-0.3,0.3-0.5,0.9-0.6,1.6h3.7v-0.2c0-0.6-0.2-1.1-0.5-1.4C200.1,398.2,199.5,398,199,398z M199.2,391.9h2.8l-2.5,2.8h-2.2
		L199.2,391.9z"/>
	<path class="st4" d="M207.3,396l0.2,1.1c0.8-0.9,1.7-1.2,2.8-1.2s1.9,0.3,2.3,0.9c0.5,0.6,0.8,1.6,0.8,2.8v6.4h-2.6v-6.4
		c0-0.6-0.2-0.9-0.3-1.2s-0.6-0.3-1.2-0.3c-0.8,0-1.2,0.3-1.7,0.9v7h-2.6v-10H207.3z"/>
	<path class="st4" d="M225.7,405.9c-0.2-0.3-0.2-0.5-0.3-0.9c-0.6,0.8-1.4,1.1-2.5,1.1c-0.9,0-1.7-0.3-2.3-0.8
		c-0.6-0.5-0.9-1.2-0.9-2.2c0-1.1,0.3-1.9,1.1-2.3c0.8-0.5,1.9-0.8,3.4-0.8h1.2v-0.6c0-0.5-0.2-0.8-0.3-1.1
		c-0.2-0.3-0.6-0.5-1.1-0.5c-0.5,0-0.8,0.2-1.1,0.3c-0.3,0.2-0.3,0.5-0.3,0.9h-2.8c0-0.6,0.2-1.1,0.5-1.6c0.3-0.5,0.8-0.9,1.6-1.1
		c0.8-0.2,1.4-0.5,2.2-0.5c1.2,0,2.2,0.3,3,0.9c0.8,0.6,1.1,1.4,1.1,2.6v4.2c0,0.9,0.2,1.7,0.5,2.2v0.2h-2.8V405.9z M223.5,404.1
		c0.3,0,0.8-0.2,1.1-0.3c0.3-0.2,0.6-0.5,0.8-0.6v-1.7h-0.9c-1.2,0-2,0.5-2.2,1.4v0.2c0,0.3,0.2,0.6,0.3,0.8
		C222.7,403.9,223,404.1,223.5,404.1z"/>
	<path class="st4" d="M237.3,405.9h-2.6v-14h2.6V405.9z"/>
	<path class="st4" d="M239.2,400.8c0-0.9,0.2-1.9,0.6-2.6s0.9-1.4,1.6-1.7c0.6-0.3,1.6-0.6,2.5-0.6c1.4,0,2.5,0.5,3.3,1.2
		c0.8,0.8,1.2,1.9,1.4,3.3v0.6c0,1.6-0.5,2.8-1.2,3.6c-0.8,0.8-2,1.4-3.4,1.4s-2.5-0.5-3.4-1.4C239.5,403.6,239.2,402.5,239.2,400.8
		L239.2,400.8z M241.9,401.1c0,0.9,0.2,1.7,0.5,2.2c0.3,0.5,0.9,0.8,1.6,0.8c0.6,0,1.1-0.3,1.6-0.8c0.3-0.5,0.5-1.2,0.5-2.3
		c0-0.9-0.2-1.6-0.5-2.2c-0.3-0.5-0.9-0.8-1.6-0.8c-0.6,0-1.1,0.3-1.6,0.8C242,399.2,241.9,400,241.9,401.1z"/>
	<path class="st4" d="M255.6,403.1c0-0.3-0.2-0.6-0.5-0.8c-0.3-0.2-0.8-0.3-1.6-0.5c-2.3-0.5-3.6-1.6-3.6-3c0-0.9,0.3-1.6,1.1-2.2
		c0.8-0.6,1.7-0.9,2.8-0.9c1.2,0,2.2,0.3,3,0.9s1.1,1.4,1.1,2.3h-2.6c0-0.3-0.2-0.6-0.3-0.9c-0.2-0.3-0.6-0.3-1.1-0.3
		c-0.5,0-0.8,0.2-1.1,0.3c-0.3,0.2-0.3,0.5-0.3,0.8s0.2,0.5,0.5,0.8c0.3,0.3,0.8,0.3,1.4,0.5c0.6,0.2,1.2,0.3,1.7,0.5
		c1.4,0.5,2,1.4,2,2.6c0,0.9-0.3,1.6-1.1,2.2c-0.8,0.6-1.7,0.8-3,0.8c-0.8,0-1.6-0.2-2.2-0.5c-0.6-0.3-1.1-0.6-1.6-1.2
		c-0.5-0.6-0.6-1.1-0.6-1.7h2.5c0,0.5,0.2,0.8,0.5,1.1c0.3,0.3,0.8,0.3,1.2,0.3c0.5,0,0.9-0.2,1.1-0.3
		C255.1,403.8,255.6,403.5,255.6,403.1z"/>
	<path class="st4" d="M268,402.7l1.9-6.7h2.8l-3.3,9.8h-2.5l-3.3-9.8h2.8L268,402.7z"/>
	<path class="st4" d="M273.3,400.8c0-0.9,0.2-1.9,0.6-2.6c0.5-0.8,0.9-1.4,1.6-1.7c0.6-0.3,1.6-0.6,2.5-0.6c1.4,0,2.5,0.5,3.3,1.2
		s1.2,1.9,1.4,3.3v0.6c0,1.6-0.5,2.8-1.2,3.6c-0.8,0.8-2,1.4-3.4,1.4s-2.5-0.5-3.4-1.4C273.6,403.6,273.3,402.5,273.3,400.8
		L273.3,400.8z M276,401.1c0,0.9,0.2,1.7,0.5,2.2c0.3,0.5,0.9,0.8,1.6,0.8s1.1-0.3,1.6-0.8c0.3-0.5,0.5-1.2,0.5-2.3
		c0-0.9-0.2-1.6-0.5-2.2c-0.3-0.5-0.9-0.8-1.6-0.8s-1.1,0.3-1.6,0.8C276.1,399.2,276,400,276,401.1z"/>
	<path class="st4" d="M287,405.9h-2.6v-14h2.6V405.9z"/>
	<path class="st4" d="M293.4,403.9c0.5,0,0.9-0.2,1.2-0.5c0.3-0.3,0.5-0.6,0.5-1.1h2.5c0,0.6-0.2,1.2-0.6,1.9
		c-0.5,0.6-0.8,0.9-1.4,1.2c-0.6,0.3-1.2,0.5-2,0.5c-1.4,0-2.5-0.5-3.3-1.4c-0.8-0.9-1.2-2.2-1.2-3.7v-0.2c0-1.6,0.5-2.8,1.2-3.6
		s1.9-1.4,3.3-1.4c1.2,0,2.2,0.3,3,1.1s1.1,1.7,1.1,2.8h-2.5c0-0.5-0.2-0.9-0.5-1.2s-0.8-0.5-1.2-0.5c-0.6,0-1.1,0.2-1.4,0.6
		c-0.3,0.5-0.5,1.2-0.5,2.2v0.3c0,1.1,0.2,1.7,0.5,2.2C292.2,403.8,292.6,403.9,293.4,403.9z"/>
	<path class="st4" d="M304.6,405.9c-0.2-0.3-0.2-0.5-0.3-0.9c-0.6,0.8-1.4,1.1-2.5,1.1c-0.9,0-1.7-0.3-2.3-0.8
		c-0.6-0.5-0.9-1.2-0.9-2.2c0-1.1,0.3-1.9,1.1-2.3c0.8-0.5,1.9-0.8,3.4-0.8h1.2v-0.6c0-0.5-0.2-0.8-0.3-1.1
		c-0.2-0.3-0.6-0.5-1.1-0.5s-0.8,0.2-1.1,0.3c-0.3,0.2-0.3,0.5-0.3,0.9h-2.6c0-0.6,0.2-1.1,0.5-1.6c0.3-0.5,0.8-0.9,1.6-1.1
		c0.8-0.2,1.4-0.5,2.2-0.5c1.2,0,2.2,0.3,3,0.9s1.1,1.4,1.1,2.6v4.2c0,0.9,0.2,1.7,0.5,2.2v0.2h-3V405.9z M302.5,404.1
		c0.3,0,0.8-0.2,1.1-0.3c0.3-0.2,0.6-0.5,0.8-0.6v-1.7h-0.9c-1.2,0-2,0.5-2.2,1.4v0.2c0,0.3,0.2,0.6,0.3,0.8
		C301.7,403.9,302.1,404.1,302.5,404.1z"/>
	<path class="st4" d="M311.5,396l0.2,1.1c0.8-0.9,1.7-1.2,2.8-1.2s1.9,0.3,2.3,0.9c0.5,0.6,0.8,1.6,0.8,2.8v6.4h-2.6v-6.4
		c0-0.6-0.2-0.9-0.3-1.2c-0.2-0.3-0.6-0.3-1.2-0.3c-0.8,0-1.2,0.3-1.7,0.9v7H309v-10H311.5z"/>
	<path class="st4" d="M324,406.1c-1.4,0-2.6-0.5-3.6-1.4c-0.9-0.9-1.4-2-1.4-3.6v-0.3c0-0.9,0.2-1.9,0.6-2.6
		c0.5-0.8,0.9-1.4,1.6-1.9s1.6-0.6,2.3-0.6c1.4,0,2.3,0.5,3.1,1.2s1.1,2,1.1,3.6v1.1h-6.2c0.2,0.6,0.3,1.1,0.8,1.6
		c0.5,0.5,0.9,0.6,1.6,0.6c1.1,0,1.9-0.3,2.3-1.1l1.2,1.4c-0.5,0.6-0.9,0.9-1.6,1.2S324.9,406.1,324,406.1z M323.8,398
		c-0.5,0-0.9,0.2-1.2,0.5c-0.3,0.3-0.5,0.9-0.6,1.6h3.7v-0.2c0-0.6-0.2-1.1-0.5-1.4S324.3,398,323.8,398z"/>
	<path class="st4" d="M335,403.1c0-0.3-0.2-0.6-0.5-0.8c-0.3-0.2-0.8-0.3-1.6-0.5c-2.3-0.5-3.6-1.6-3.6-3c0-0.9,0.3-1.6,1.1-2.2
		s1.7-0.9,2.8-0.9c1.2,0,2.2,0.3,3,0.9s1.1,1.4,1.1,2.3h-2.6c0-0.3-0.2-0.6-0.3-0.9c-0.2-0.3-0.6-0.3-1.1-0.3
		c-0.5,0-0.8,0.2-1.1,0.3c-0.3,0.2-0.3,0.5-0.3,0.8s0.2,0.5,0.5,0.8s0.8,0.3,1.4,0.5c0.6,0.2,1.2,0.3,1.7,0.5c1.4,0.5,2,1.4,2,2.6
		c0,0.9-0.3,1.6-1.1,2.2s-1.7,0.8-3,0.8c-0.8,0-1.6-0.2-2.2-0.5c-0.6-0.3-1.1-0.6-1.6-1.2c-0.5-0.6-0.6-1.1-0.6-1.7h2.5
		c0,0.5,0.2,0.8,0.5,1.1c0.3,0.3,0.8,0.3,1.2,0.3s0.9-0.2,1.1-0.3C334.5,403.8,335,403.5,335,403.1z"/>
</g>
<g>
	<g>
		<path class="st4" d="M287.7,89.6H286v-7.9l-2.4,0.8v-1.4l3.9-1.4h0.3v9.9H287.7z"/>
		<path class="st4" d="M297.6,85.4c0,1.4-0.3,2.5-0.8,3.2s-1.4,1.1-2.4,1.1c-1.1,0-1.8-0.4-2.4-1.1c-0.6-0.7-0.8-1.8-0.8-3.1v-1.7
			c0-1.4,0.3-2.5,0.8-3.2c0.6-0.7,1.4-1.1,2.5-1.1c1.1,0,1.9,0.3,2.4,1s0.8,1.7,0.8,3.1v1.8H297.6z M295.9,83.5c0-1-0.1-1.7-0.4-2.1
			c-0.3-0.4-0.7-0.7-1.3-0.7c-0.6,0-1,0.1-1.3,0.6c-0.3,0.4-0.4,1.1-0.4,1.9v2.2c0,1,0.1,1.7,0.4,2.1c0.3,0.4,0.7,0.7,1.3,0.7
			c0.6,0,1-0.3,1.1-0.7c0.1-0.4,0.4-1.1,0.4-1.9v-2.1H295.9z"/>
		<path class="st4" d="M300.1,87.8c0.3,0,0.6,0.1,0.7,0.3c0.1,0.1,0.3,0.4,0.3,0.7c0,0.3-0.1,0.4-0.3,0.7c-0.1,0.3-0.4,0.3-0.7,0.3
			c-0.3,0-0.6-0.1-0.7-0.3c-0.1-0.1-0.3-0.4-0.3-0.7c0-0.3,0.1-0.4,0.3-0.7C299.5,87.8,299.8,87.8,300.1,87.8z"/>
		<path class="st4" d="M303.3,84.6l0.6-5h5.3V81h-3.9l-0.3,2.4c0.4-0.3,1-0.4,1.5-0.4c1,0,1.7,0.3,2.2,0.8s0.8,1.4,0.8,2.4
			s-0.3,1.8-0.8,2.4s-1.4,0.8-2.4,0.8c-1,0-1.7-0.3-2.2-0.8s-1-1.3-1-2.1h1.5c0,0.4,0.3,0.8,0.6,1.1c0.3,0.3,0.7,0.4,1.1,0.4
			c0.6,0,0.8-0.1,1.3-0.6c0.4-0.4,0.4-0.8,0.4-1.5c0-0.6-0.1-1.1-0.4-1.4c-0.3-0.3-0.7-0.6-1.3-0.6c-0.3,0-0.6,0-0.7,0.1
			s-0.4,0.3-0.7,0.4L303.3,84.6z"/>
		<path class="st4" d="M317.3,80.6l-3.9,9h-1.7l3.9-8.6h-5.1v-1.4h6.8L317.3,80.6L317.3,80.6z"/>
		<path class="st4" d="M324.7,86.4l-0.7,0.7v2.4h-1.7V79h1.7v6l0.6-0.7l2.1-2.2h1.9l-2.8,3.1l3.1,4.3h-1.9L324.7,86.4z"/>
		<path class="st4" d="M331.1,82.2v0.8c0.6-0.6,1.3-0.8,2.1-0.8c1,0,1.7,0.4,2.1,1.1c0.6-0.7,1.3-1.1,2.2-1.1c0.8,0,1.4,0.3,1.8,0.7
			c0.4,0.4,0.6,1.1,0.6,1.9v4.9h-1.7V85c0-0.4-0.1-0.8-0.3-1c-0.1-0.1-0.6-0.3-1-0.3c-0.4,0-0.7,0.1-1,0.3c-0.3,0.1-0.4,0.4-0.6,0.8
			v5h-1.7V85c0-0.8-0.4-1.3-1.4-1.3c-0.7,0-1.1,0.3-1.4,0.8v5.3h-1.7v-7.6H331.1z"/>
	</g>
</g>
<linearGradient id="SVGID_00000022518031251767934040000006956299942476379311_" gradientUnits="userSpaceOnUse" x1="-1316.6155" y1="554.5999" x2="-1265.8156" y2="554.5999" gradientTransform="matrix(-6.123234e-17 1 -1 -6.123234e-17 930.75 1331.8154)">
	<stop  offset="0" style="stop-color:#FFFFFF"/>
	<stop  offset="1" style="stop-color:#FFFFFF;stop-opacity:0"/>
</linearGradient>
<polygon style="fill:url(#SVGID_00000022518031251767934040000006956299942476379311_);" points="747.7,66 747.7,15.2 4.6,15.2 
	4.6,66 "/>
<g id="Capa_2">
</g>
<g>
	<g>
		<path class="st4" d="M357.1,58.1h-6.7V57l3.3-3.6c0.4-0.6,0.8-1,1-1.4c0.1-0.4,0.3-0.7,0.3-1.1s-0.1-0.8-0.4-1.1
			c-0.3-0.3-0.6-0.4-1.1-0.4s-1,0.1-1.3,0.6c-0.3,0.4-0.4,0.8-0.4,1.4h-1.7c0-0.6,0.1-1.1,0.4-1.7c0.3-0.6,0.7-0.8,1.1-1.1
			c0.4-0.3,1.1-0.4,1.8-0.4c1,0,1.7,0.3,2.2,0.7s0.8,1.1,0.8,1.9c0,0.6-0.1,1-0.4,1.5s-0.7,1.1-1.4,1.8l-2.4,2.6h4.6v1.4H357.1z"/>
		<path class="st4" d="M358.8,53.2l0.6-5h5.3v1.4h-3.9l-0.3,2.4c0.4-0.3,1-0.4,1.5-0.4c1,0,1.7,0.3,2.2,0.8s0.8,1.4,0.8,2.4
			c0,1-0.3,1.8-0.8,2.4s-1.4,0.8-2.4,0.8c-1,0-1.7-0.3-2.2-0.8s-1-1.3-1-2.1h1.5c0,0.4,0.3,0.8,0.6,1.1c0.3,0.3,0.7,0.4,1.1,0.4
			c0.6,0,0.8-0.1,1.3-0.6c0.4-0.4,0.4-0.8,0.4-1.5c0-0.6-0.1-1.1-0.4-1.4s-0.7-0.6-1.3-0.6c-0.3,0-0.6,0-0.7,0.1
			c-0.1,0.1-0.4,0.3-0.7,0.4L358.8,53.2z"/>
		<path class="st4" d="M372.3,55l-0.7,0.7v2.4h-1.7V47.7h1.7v6l0.6-0.7l2.1-2.2h1.9l-2.8,3.1l3.1,4.3h-1.9L372.3,55z"/>
		<path class="st4" d="M378.7,50.7v0.8c0.6-0.6,1.3-0.8,2.1-0.8c1,0,1.7,0.4,2.1,1.1c0.6-0.7,1.3-1.1,2.2-1.1c0.8,0,1.4,0.3,1.8,0.7
			c0.4,0.4,0.6,1.1,0.6,1.9v4.9h-1.7v-4.7c0-0.4-0.1-0.8-0.3-1c-0.1-0.1-0.6-0.3-1-0.3c-0.4,0-0.7,0.1-1,0.3
			c-0.3,0.1-0.4,0.4-0.6,0.8v5h-1.7v-4.9c0-0.8-0.4-1.3-1.4-1.3c-0.7,0-1.1,0.3-1.4,0.8v5.3h-1.7V51h1.8V50.7z"/>
	</g>
</g>
<image style="overflow:visible;" width="1995" height="1532" xlink:href="7F4B7963.png"  transform="matrix(0.24 0 0 0.24 253.68 63.52)">
</image>
</svg>
