<?xml version="1.0" encoding="utf-8"?>
<!-- Generator: Adobe Illustrator 25.4.1, SVG Export Plug-In . SVG Version: 6.00 Build 0)  -->
<svg version="1.1" id="Layer_1" xmlns="http://www.w3.org/2000/svg" xmlns:xlink="http://www.w3.org/1999/xlink" x="0px" y="0px"
	 viewBox="0 0 710.6 412.1" style="enable-background:new 0 0 710.6 412.1;" xml:space="preserve">
<style type="text/css">
	.st0{fill:#A8BEB4;}
	.st1{clip-path:url(#SVGID_00000070078066590526603890000006705123537551532429_);}
	.st2{fill:none;stroke:#985041;stroke-miterlimit:10;}
	.st3{enable-background:new    ;}
	.st4{fill:#985041;}
	.st5{fill:url(#SVGID_00000108286155078961305850000015173419490823354753_);}
	.st6{fill:url(#SVGID_00000049906505796816280920000012830174300172904069_);}
</style>
<g id="Capa_1">
	
		<image style="overflow:visible;enable-background:new    ;" width="752" height="490" xlink:href="F0AA05A4.png"  transform="matrix(0.846 0 0 0.846 74.2175 -1.0021)">
	</image>
	<rect class="st0" width="190.9" height="412.8"/>
	<g>
		<g>
			<g>
				<g>
					<defs>
						<circle id="SVGID_1_" cx="132.6" cy="101.4" r="86.8"/>
					</defs>
					<clipPath id="SVGID_00000083062187042905115330000000107430352589968807_">
						<use xlink:href="#SVGID_1_"  style="overflow:visible;"/>
					</clipPath>
					
						<g transform="matrix(1 0 0 1 9.536743e-07 0)" style="clip-path:url(#SVGID_00000083062187042905115330000000107430352589968807_);">
						
							<image style="overflow:visible;enable-background:new    ;" width="705" height="536" xlink:href="F0AA05AC.png"  transform="matrix(0.3305 0 0 0.3305 31.3973 12.8608)">
						</image>
					</g>
				</g>
				<g>
					<circle id="SVGID_00000103266768342614405890000000543982578477360019_" class="st2" cx="132.6" cy="101.4" r="86.8"/>
				</g>
			</g>
			<g>
				<circle id="SVGID_00000086677737519934089320000007279628304845549453_" class="st2" cx="132.6" cy="101.4" r="86.8"/>
			</g>
		</g>
	</g>
	<g>
		<g class="st3">
			<path class="st4" d="M126.4,210.3c-0.1,0.9-0.4,1.6-1,2.2s-1.4,0.8-2.4,0.8c-1.1,0-2-0.4-2.6-1.1s-0.9-1.7-0.9-3v-0.5
				c0-0.8,0.1-1.5,0.4-2.2s0.7-1.1,1.2-1.4s1.2-0.5,1.9-0.5c1,0,1.8,0.3,2.4,0.8s0.9,1.3,1,2.2h-1.8c0-0.6-0.2-1-0.5-1.2
				s-0.7-0.4-1.2-0.4c-0.6,0-1,0.2-1.3,0.6s-0.4,1.1-0.4,2v0.6c0,0.9,0.1,1.6,0.4,2s0.7,0.6,1.3,0.6c0.5,0,0.9-0.1,1.2-0.4
				s0.4-0.6,0.5-1.2L126.4,210.3L126.4,210.3z"/>
			<path class="st4" d="M129.1,207.5c0.4-0.5,1-0.8,1.7-0.8c1.4,0,2.1,0.8,2.1,2.4v4.1h-1.7v-4c0-0.4-0.1-0.6-0.2-0.8
				s-0.4-0.3-0.8-0.3c-0.5,0-0.9,0.2-1.1,0.6v4.5h-1.7v-9h1.7V207.5z"/>
			<path class="st4" d="M134.1,205.1c0-0.3,0.1-0.5,0.3-0.6s0.4-0.2,0.7-0.2s0.5,0.1,0.7,0.2s0.3,0.4,0.3,0.6c0,0.3-0.1,0.5-0.3,0.6
				s-0.4,0.2-0.7,0.2s-0.5-0.1-0.7-0.2S134.1,205.4,134.1,205.1z M135.9,213.1h-1.7v-6.3h1.7V213.1z"/>
			<path class="st4" d="M139.1,213.1h-1.7v-9h1.7V213.1z"/>
			<path class="st4" d="M143.4,213.2c-0.9,0-1.7-0.3-2.3-0.9s-0.9-1.3-0.9-2.3v-0.2c0-0.6,0.1-1.2,0.4-1.7s0.6-0.9,1-1.2
				s1-0.4,1.5-0.4c0.9,0,1.5,0.3,2,0.8s0.7,1.3,0.7,2.3v0.7h-4c0.1,0.4,0.2,0.7,0.5,1s0.6,0.4,1,0.4c0.7,0,1.2-0.2,1.5-0.7l0.8,0.9
				c-0.3,0.4-0.6,0.6-1,0.8S143.9,213.2,143.4,213.2z M143.2,208c-0.3,0-0.6,0.1-0.8,0.3s-0.3,0.6-0.4,1h2.4v-0.1
				c0-0.4-0.1-0.7-0.3-0.9S143.6,208,143.2,208z"/>
		</g>
		<g class="st3">
			<path class="st4" d="M82.3,224.4h-1.4v3.1h-1.8V219h3.2c1,0,1.8,0.2,2.3,0.7s0.8,1.1,0.8,1.9c0,0.6-0.1,1.1-0.4,1.5
				s-0.6,0.7-1.1,0.9l1.8,3.5v0.1h-1.9L82.3,224.4z M80.9,223h1.4c0.4,0,0.8-0.1,1-0.3s0.4-0.5,0.4-0.9s-0.1-0.7-0.3-0.9
				s-0.6-0.3-1.1-0.3h-1.4V223z"/>
			<path class="st4" d="M89.7,227.6c-0.9,0-1.7-0.3-2.3-0.9s-0.9-1.3-0.9-2.3v-0.2c0-0.6,0.1-1.2,0.4-1.7s0.6-0.9,1-1.2
				s1-0.4,1.5-0.4c0.9,0,1.5,0.3,2,0.8s0.7,1.3,0.7,2.3v0.7h-4c0.1,0.4,0.2,0.7,0.5,1s0.6,0.4,1,0.4c0.7,0,1.2-0.2,1.5-0.7l0.8,0.9
				c-0.3,0.4-0.6,0.6-1,0.8S90.2,227.6,89.7,227.6z M89.5,222.4c-0.3,0-0.6,0.1-0.8,0.3s-0.3,0.6-0.4,1h2.4v-0.1
				c0-0.4-0.1-0.7-0.3-0.9S89.8,222.4,89.5,222.4z"/>
			<path class="st4" d="M93,224.3c0-1,0.2-1.8,0.7-2.3s1.1-0.9,1.9-0.9c0.7,0,1.2,0.2,1.6,0.7l0.1-0.6h1.5v6.1c0,0.6-0.1,1-0.4,1.4
				s-0.6,0.7-1.1,0.9s-1,0.3-1.6,0.3c-0.5,0-0.9-0.1-1.4-0.3s-0.8-0.4-1-0.7l0.8-1c0.4,0.5,0.9,0.7,1.5,0.7c0.4,0,0.8-0.1,1-0.4
				s0.4-0.6,0.4-1V227c-0.4,0.4-0.9,0.7-1.5,0.7c-0.8,0-1.4-0.3-1.8-0.9S93,225.3,93,224.3L93,224.3z M94.7,224.4
				c0,0.6,0.1,1,0.3,1.4c0.2,0.3,0.5,0.5,0.9,0.5c0.5,0,0.9-0.2,1.1-0.6V223c-0.2-0.4-0.6-0.6-1.1-0.6c-0.4,0-0.7,0.2-1,0.5
				C94.8,223.3,94.7,223.8,94.7,224.4z"/>
			<path class="st4" d="M100.1,219.5c0-0.3,0.1-0.5,0.3-0.6s0.4-0.2,0.7-0.2c0.3,0,0.5,0.1,0.7,0.2s0.3,0.4,0.3,0.6
				c0,0.3-0.1,0.5-0.3,0.6s-0.4,0.2-0.7,0.2s-0.5-0.1-0.7-0.2S100.1,219.8,100.1,219.5z M101.9,227.5h-1.7v-6.3h1.7V227.5z"/>
			<path class="st4" d="M103,224.3c0-0.6,0.1-1.2,0.4-1.7s0.6-0.9,1-1.1s1-0.4,1.6-0.4c0.9,0,1.6,0.3,2.1,0.8s0.8,1.2,0.9,2.1v0.4
				c0,1-0.3,1.8-0.8,2.3s-1.3,0.9-2.2,0.9s-1.6-0.3-2.2-0.9S103,225.4,103,224.3L103,224.3z M104.7,224.4c0,0.6,0.1,1.1,0.3,1.4
				c0.2,0.3,0.6,0.5,1,0.5s0.7-0.2,1-0.5c0.2-0.3,0.3-0.8,0.3-1.5c0-0.6-0.1-1-0.3-1.4c-0.2-0.3-0.6-0.5-1-0.5s-0.7,0.2-1,0.5
				C104.8,223.2,104.7,223.7,104.7,224.4z M106.3,218.5h1.8l-1.6,1.8h-1.4L106.3,218.5z"/>
			<path class="st4" d="M111.6,221.2l0.1,0.7c0.5-0.6,1.1-0.8,1.8-0.8c0.7,0,1.2,0.2,1.5,0.6s0.5,1,0.5,1.8v4.1h-1.7v-4.1
				c0-0.4-0.1-0.6-0.2-0.8s-0.4-0.2-0.8-0.2c-0.5,0-0.8,0.2-1.1,0.6v4.5H110v-6.3h1.6V221.2z"/>
			<path class="st4" d="M119.5,224.3c0-1,0.2-1.8,0.7-2.4s1-0.9,1.8-0.9c0.6,0,1.1,0.2,1.5,0.7v-3.2h1.7v9h-1.5l-0.1-0.7
				c-0.4,0.5-1,0.8-1.6,0.8c-0.7,0-1.3-0.3-1.8-0.9S119.5,225.3,119.5,224.3z M121.2,224.4c0,0.6,0.1,1.1,0.3,1.4
				c0.2,0.3,0.5,0.5,0.9,0.5c0.5,0,0.9-0.2,1.1-0.7v-2.5c-0.2-0.4-0.6-0.7-1.1-0.7C121.6,222.4,121.2,223.1,121.2,224.4z"/>
			<path class="st4" d="M129.4,227.6c-0.9,0-1.7-0.3-2.3-0.9s-0.9-1.3-0.9-2.3v-0.2c0-0.6,0.1-1.2,0.4-1.7s0.6-0.9,1-1.2
				s1-0.4,1.5-0.4c0.9,0,1.5,0.3,2,0.8s0.7,1.3,0.7,2.3v0.7h-4c0.1,0.4,0.2,0.7,0.5,1s0.6,0.4,1,0.4c0.7,0,1.2-0.2,1.5-0.7l0.8,0.9
				c-0.3,0.4-0.6,0.6-1,0.8S130,227.6,129.4,227.6z M129.2,222.4c-0.3,0-0.6,0.1-0.8,0.3s-0.3,0.6-0.4,1h2.4v-0.1
				c0-0.4-0.1-0.7-0.3-0.9S129.6,222.4,129.2,222.4z"/>
			<path class="st4" d="M137.8,227.5h-1.7v-9h1.7V227.5z"/>
			<path class="st4" d="M138.9,224.3c0-0.6,0.1-1.2,0.4-1.7s0.6-0.9,1-1.1s1-0.4,1.6-0.4c0.9,0,1.6,0.3,2.1,0.8s0.8,1.2,0.9,2.1v0.4
				c0,1-0.3,1.8-0.8,2.3s-1.3,0.9-2.2,0.9s-1.6-0.3-2.2-0.9S138.9,225.4,138.9,224.3L138.9,224.3z M140.6,224.4
				c0,0.6,0.1,1.1,0.3,1.4c0.2,0.3,0.6,0.5,1,0.5s0.7-0.2,1-0.5c0.2-0.3,0.3-0.8,0.3-1.5c0-0.6-0.1-1-0.3-1.4
				c-0.2-0.3-0.6-0.5-1-0.5s-0.7,0.2-1,0.5C140.7,223.2,140.6,223.7,140.6,224.4z"/>
			<path class="st4" d="M149.4,225.8c0-0.2-0.1-0.4-0.3-0.5s-0.5-0.2-1-0.3c-1.5-0.3-2.3-1-2.3-1.9c0-0.6,0.2-1,0.7-1.4
				s1.1-0.6,1.8-0.6c0.8,0,1.4,0.2,1.9,0.6s0.7,0.9,0.7,1.5h-1.7c0-0.2-0.1-0.4-0.2-0.6s-0.4-0.2-0.7-0.2s-0.5,0.1-0.7,0.2
				s-0.2,0.3-0.2,0.5s0.1,0.3,0.3,0.5s0.5,0.2,0.9,0.3s0.8,0.2,1.1,0.3c0.9,0.3,1.3,0.9,1.3,1.7c0,0.6-0.2,1-0.7,1.4
				s-1.1,0.5-1.9,0.5c-0.5,0-1-0.1-1.4-0.3s-0.7-0.4-1-0.8s-0.4-0.7-0.4-1.1h1.6c0,0.3,0.1,0.5,0.3,0.7s0.5,0.2,0.8,0.2
				s0.6-0.1,0.7-0.2S149.4,226,149.4,225.8z"/>
			<path class="st4" d="M157,226.1h3.7v1.4h-5.5V219h1.8V226.1z"/>
			<path class="st4" d="M165.3,227.5c-0.1-0.2-0.1-0.3-0.2-0.6c-0.4,0.5-0.9,0.7-1.6,0.7c-0.6,0-1.1-0.2-1.5-0.5s-0.6-0.8-0.6-1.4
				c0-0.7,0.2-1.2,0.7-1.5s1.2-0.5,2.2-0.5h0.8v-0.4c0-0.3-0.1-0.5-0.2-0.7s-0.4-0.3-0.7-0.3s-0.5,0.1-0.7,0.2s-0.2,0.3-0.2,0.6
				h-1.7c0-0.4,0.1-0.7,0.3-1s0.5-0.6,1-0.7s0.9-0.3,1.4-0.3c0.8,0,1.4,0.2,1.9,0.6s0.7,0.9,0.7,1.7v2.7c0,0.6,0.1,1.1,0.3,1.4v0.1
				h-1.9V227.5z M163.9,226.3c0.2,0,0.5-0.1,0.7-0.2s0.4-0.3,0.5-0.4v-1.1h-0.6c-0.8,0-1.3,0.3-1.4,0.9v0.1c0,0.2,0.1,0.4,0.2,0.5
				S163.6,226.3,163.9,226.3z"/>
			<path class="st4" d="M167.8,224.3c0-1,0.2-1.8,0.7-2.3s1.1-0.9,1.9-0.9c0.7,0,1.2,0.2,1.6,0.7l0.1-0.6h1.5v6.1
				c0,0.6-0.1,1-0.4,1.4s-0.6,0.7-1.1,0.9s-1,0.3-1.6,0.3c-0.5,0-0.9-0.1-1.4-0.3s-0.8-0.4-1-0.7l0.8-1c0.4,0.5,0.9,0.7,1.5,0.7
				c0.4,0,0.8-0.1,1-0.4s0.4-0.6,0.4-1V227c-0.4,0.4-0.9,0.7-1.5,0.7c-0.8,0-1.4-0.3-1.8-0.9S167.8,225.3,167.8,224.3L167.8,224.3z
				 M169.5,224.4c0,0.6,0.1,1,0.3,1.4c0.2,0.3,0.5,0.5,0.9,0.5c0.5,0,0.9-0.2,1.1-0.6V223c-0.2-0.4-0.6-0.6-1.1-0.6
				c-0.4,0-0.7,0.2-1,0.5C169.6,223.3,169.5,223.8,169.5,224.4z"/>
			<path class="st4" d="M174.6,224.3c0-0.6,0.1-1.2,0.4-1.7s0.6-0.9,1-1.1s1-0.4,1.6-0.4c0.9,0,1.6,0.3,2.1,0.8s0.8,1.2,0.9,2.1v0.4
				c0,1-0.3,1.8-0.8,2.3s-1.3,0.9-2.2,0.9s-1.6-0.3-2.2-0.9S174.6,225.4,174.6,224.3L174.6,224.3z M176.3,224.4
				c0,0.6,0.1,1.1,0.3,1.4c0.2,0.3,0.6,0.5,1,0.5s0.7-0.2,1-0.5c0.2-0.3,0.3-0.8,0.3-1.5c0-0.6-0.1-1-0.3-1.4
				c-0.2-0.3-0.6-0.5-1-0.5s-0.7,0.2-1,0.5C176.4,223.2,176.3,223.7,176.3,224.4z"/>
			<path class="st4" d="M185.1,225.8c0-0.2-0.1-0.4-0.3-0.5s-0.5-0.2-1-0.3c-1.5-0.3-2.3-1-2.3-1.9c0-0.6,0.2-1,0.7-1.4
				s1.1-0.6,1.8-0.6c0.8,0,1.4,0.2,1.9,0.6s0.7,0.9,0.7,1.5H185c0-0.2-0.1-0.4-0.2-0.6s-0.4-0.2-0.7-0.2s-0.5,0.1-0.7,0.2
				s-0.2,0.3-0.2,0.5s0.1,0.3,0.3,0.5s0.5,0.2,0.9,0.3s0.8,0.2,1.1,0.3c0.9,0.3,1.3,0.9,1.3,1.7c0,0.6-0.2,1-0.7,1.4
				s-1.1,0.5-1.9,0.5c-0.5,0-1-0.1-1.4-0.3s-0.7-0.4-1-0.8s-0.4-0.7-0.4-1.1h1.6c0,0.3,0.1,0.5,0.3,0.7s0.5,0.2,0.8,0.2
				s0.6-0.1,0.7-0.2S185.1,226,185.1,225.8z"/>
		</g>
	</g>
	<g class="st3">
		<path class="st4" d="M56.6,396.5l-1.8-0.5l0.3-1.1l1.8,0.7l-0.1-2H58l-0.1,2.1l1.8-0.7l0.3,1.1l-1.9,0.5l1.2,1.6l-0.9,0.7
			l-1.1-1.7l-1.1,1.7l-0.9-0.6L56.6,396.5z"/>
		<path class="st4" d="M60.8,402.2v-8.5h2.6c0.8,0,1.4,0.2,2,0.5s1.1,0.8,1.4,1.4s0.5,1.3,0.5,2.1v0.4c0,0.8-0.2,1.5-0.5,2.1
			s-0.8,1.1-1.4,1.4s-1.3,0.5-2,0.5h-2.6V402.2z M62.6,395.1v5.7h0.8c0.7,0,1.2-0.2,1.6-0.7s0.5-1.1,0.6-1.9v-0.5
			c0-0.9-0.2-1.5-0.5-2s-0.9-0.7-1.6-0.7h-0.9V395.1z"/>
		<path class="st4" d="M68.5,394.2c0-0.3,0.1-0.5,0.3-0.6s0.4-0.2,0.7-0.2c0.3,0,0.5,0.1,0.7,0.2s0.3,0.4,0.3,0.6
			c0,0.3-0.1,0.5-0.3,0.6s-0.4,0.2-0.7,0.2s-0.5-0.1-0.7-0.2S68.5,394.5,68.5,394.2z M70.3,402.2h-1.7v-6.3h1.7V402.2z"/>
		<path class="st4" d="M75.1,400.4c0-0.2-0.1-0.4-0.3-0.5s-0.5-0.2-1-0.3c-1.5-0.3-2.3-1-2.3-1.9c0-0.6,0.2-1,0.7-1.4
			s1.1-0.6,1.8-0.6c0.8,0,1.4,0.2,1.9,0.6s0.7,0.9,0.7,1.5H75c0-0.2-0.1-0.4-0.2-0.6s-0.4-0.2-0.7-0.2c-0.3,0-0.5,0.1-0.7,0.2
			s-0.2,0.3-0.2,0.5s0.1,0.3,0.3,0.5s0.5,0.2,0.9,0.3s0.8,0.2,1.1,0.3c0.9,0.3,1.3,0.9,1.3,1.7c0,0.6-0.2,1-0.7,1.4
			s-1.1,0.5-1.9,0.5c-0.5,0-1-0.1-1.4-0.3s-0.7-0.4-1-0.8s-0.4-0.7-0.4-1.1H73c0,0.3,0.1,0.5,0.3,0.7s0.5,0.2,0.8,0.2
			s0.6-0.1,0.7-0.2S75.1,400.6,75.1,400.4z"/>
		<path class="st4" d="M79.9,394.3v1.6H81v1.2h-1.1v3.2c0,0.2,0,0.4,0.1,0.5s0.3,0.2,0.5,0.2s0.4,0,0.5,0v1.3
			c-0.3,0.1-0.7,0.2-1,0.2c-1.2,0-1.8-0.6-1.8-1.8v-3.4h-0.9v-1.2h0.9v-1.6h1.7V394.3z"/>
		<path class="st4" d="M85.6,402.2c-0.1-0.2-0.1-0.3-0.2-0.6c-0.4,0.5-0.9,0.7-1.6,0.7c-0.6,0-1.1-0.2-1.5-0.5s-0.6-0.8-0.6-1.4
			c0-0.7,0.2-1.2,0.7-1.5s1.2-0.5,2.2-0.5h0.8V398c0-0.3-0.1-0.5-0.2-0.7s-0.4-0.3-0.7-0.3c-0.3,0-0.5,0.1-0.7,0.2s-0.2,0.3-0.2,0.6
			h-1.7c0-0.4,0.1-0.7,0.3-1s0.5-0.6,1-0.7s0.9-0.3,1.4-0.3c0.8,0,1.4,0.2,1.9,0.6s0.7,0.9,0.7,1.7v2.7c0,0.6,0.1,1.1,0.3,1.4v0.1
			h-1.9V402.2z M84.2,401c0.2,0,0.5-0.1,0.7-0.2s0.4-0.3,0.5-0.4v-1.1h-0.6c-0.8,0-1.3,0.3-1.4,0.9v0.1c0,0.2,0.1,0.4,0.2,0.5
			S83.9,401,84.2,401z"/>
		<path class="st4" d="M89.9,395.8l0.1,0.7c0.5-0.6,1.1-0.8,1.8-0.8c0.7,0,1.2,0.2,1.5,0.6s0.5,1,0.5,1.8v4.1h-1.7v-4.1
			c0-0.4-0.1-0.6-0.2-0.8s-0.4-0.2-0.8-0.2c-0.5,0-0.8,0.2-1.1,0.6v4.5h-1.7v-6.3h1.6V395.8z"/>
		<path class="st4" d="M97.7,400.9c0.3,0,0.6-0.1,0.8-0.3s0.3-0.4,0.3-0.7h1.6c0,0.4-0.1,0.8-0.4,1.2s-0.5,0.6-0.9,0.8
			s-0.8,0.3-1.3,0.3c-0.9,0-1.6-0.3-2.1-0.9s-0.8-1.4-0.8-2.4v-0.1c0-1,0.3-1.8,0.8-2.3s1.2-0.9,2.1-0.9c0.8,0,1.4,0.2,1.9,0.7
			s0.7,1.1,0.7,1.8h-1.6c0-0.3-0.1-0.6-0.3-0.8S98,397,97.7,397c-0.4,0-0.7,0.1-0.9,0.4c-0.2,0.3-0.3,0.8-0.3,1.4v0.2
			c0,0.7,0.1,1.1,0.3,1.4C97,400.8,97.3,400.9,97.7,400.9z"/>
		<path class="st4" d="M101.3,394.2c0-0.3,0.1-0.5,0.3-0.6s0.4-0.2,0.7-0.2c0.3,0,0.5,0.1,0.7,0.2s0.3,0.4,0.3,0.6
			c0,0.3-0.1,0.5-0.3,0.6s-0.4,0.2-0.7,0.2s-0.5-0.1-0.7-0.2S101.3,394.5,101.3,394.2z M103.1,402.2h-1.7v-6.3h1.7V402.2z"/>
		<path class="st4" d="M108.2,402.2c-0.1-0.2-0.1-0.3-0.2-0.6c-0.4,0.5-0.9,0.7-1.6,0.7c-0.6,0-1.1-0.2-1.5-0.5s-0.6-0.8-0.6-1.4
			c0-0.7,0.2-1.2,0.7-1.5s1.2-0.5,2.2-0.5h0.8V398c0-0.3-0.1-0.5-0.2-0.7s-0.4-0.3-0.7-0.3c-0.3,0-0.5,0.1-0.7,0.2s-0.2,0.3-0.2,0.6
			h-1.7c0-0.4,0.1-0.7,0.3-1s0.5-0.6,1-0.7s0.9-0.3,1.4-0.3c0.8,0,1.4,0.2,1.9,0.6s0.7,0.9,0.7,1.7v2.7c0,0.6,0.1,1.1,0.3,1.4v0.1
			h-1.9V402.2z M106.8,401c0.2,0,0.5-0.1,0.7-0.2s0.4-0.3,0.5-0.4v-1.1h-0.6c-0.8,0-1.3,0.3-1.4,0.9v0.1c0,0.2,0.1,0.4,0.2,0.5
			S106.5,401,106.8,401z"/>
		<path class="st4" d="M113.6,399c0-1,0.2-1.8,0.7-2.4s1-0.9,1.8-0.9c0.6,0,1.1,0.2,1.5,0.7v-3.2h1.7v9h-1.5l-0.1-0.7
			c-0.4,0.5-1,0.8-1.6,0.8c-0.7,0-1.3-0.3-1.8-0.9S113.6,400,113.6,399z M115.3,399.1c0,0.6,0.1,1.1,0.3,1.4
			c0.2,0.3,0.5,0.5,0.9,0.5c0.5,0,0.9-0.2,1.1-0.7v-2.5c-0.2-0.4-0.6-0.7-1.1-0.7C115.7,397.1,115.3,397.8,115.3,399.1z"/>
		<path class="st4" d="M123.6,402.3c-0.9,0-1.7-0.3-2.3-0.9s-0.9-1.3-0.9-2.3V399c0-0.6,0.1-1.2,0.4-1.7s0.6-0.9,1-1.2
			s1-0.4,1.5-0.4c0.9,0,1.5,0.3,2,0.8s0.7,1.3,0.7,2.3v0.7h-4c0.1,0.4,0.2,0.7,0.5,1s0.6,0.4,1,0.4c0.7,0,1.2-0.2,1.5-0.7l0.8,0.9
			c-0.3,0.4-0.6,0.6-1,0.8S124.1,402.3,123.6,402.3z M123.4,397.1c-0.3,0-0.6,0.1-0.8,0.3s-0.3,0.6-0.4,1h2.4v-0.1
			c0-0.4-0.1-0.7-0.3-0.9S123.8,397.1,123.4,397.1z"/>
		<path class="st4" d="M137,399.3c-0.1,0.9-0.4,1.6-1,2.2s-1.4,0.8-2.4,0.8c-1.1,0-2-0.4-2.6-1.1s-0.9-1.7-0.9-3v-0.5
			c0-0.8,0.1-1.5,0.4-2.2s0.7-1.1,1.2-1.4s1.2-0.5,1.9-0.5c1,0,1.8,0.3,2.4,0.8s0.9,1.3,1,2.2h-1.8c0-0.6-0.2-1-0.5-1.2
			s-0.7-0.4-1.2-0.4c-0.6,0-1,0.2-1.3,0.6s-0.4,1.1-0.4,2v0.6c0,0.9,0.1,1.6,0.4,2s0.7,0.6,1.3,0.6c0.5,0,0.9-0.1,1.2-0.4
			s0.4-0.6,0.5-1.2h1.8V399.3z"/>
		<path class="st4" d="M139.7,396.5c0.4-0.5,1-0.8,1.7-0.8c1.4,0,2.1,0.8,2.1,2.4v4.1h-1.7v-4c0-0.4-0.1-0.6-0.2-0.8
			s-0.4-0.3-0.8-0.3c-0.5,0-0.9,0.2-1.1,0.6v4.5H138v-9h1.7V396.5z"/>
		<path class="st4" d="M148.4,402.2c-0.1-0.2-0.1-0.3-0.2-0.6c-0.4,0.5-0.9,0.7-1.6,0.7c-0.6,0-1.1-0.2-1.5-0.5s-0.6-0.8-0.6-1.4
			c0-0.7,0.2-1.2,0.7-1.5s1.2-0.5,2.2-0.5h0.8V398c0-0.3-0.1-0.5-0.2-0.7s-0.4-0.3-0.7-0.3s-0.5,0.1-0.7,0.2s-0.2,0.3-0.2,0.6h-1.7
			c0-0.4,0.1-0.7,0.3-1s0.5-0.6,1-0.7s0.9-0.3,1.4-0.3c0.8,0,1.4,0.2,1.9,0.6s0.7,0.9,0.7,1.7v2.7c0,0.6,0.1,1.1,0.3,1.4v0.1h-1.9
			V402.2z M147,401c0.2,0,0.5-0.1,0.7-0.2s0.4-0.3,0.5-0.4v-1.1h-0.6c-0.8,0-1.3,0.3-1.4,0.9v0.1c0,0.2,0.1,0.4,0.2,0.5
			S146.7,401,147,401z"/>
		<path class="st4" d="M151.1,394.2c0-0.3,0.1-0.5,0.3-0.6s0.4-0.2,0.7-0.2s0.5,0.1,0.7,0.2s0.3,0.4,0.3,0.6c0,0.3-0.1,0.5-0.3,0.6
			s-0.4,0.2-0.7,0.2s-0.5-0.1-0.7-0.2S151.1,394.5,151.1,394.2z M152.9,402.2h-1.7v-6.3h1.7V402.2z"/>
		<path class="st4" d="M156.4,394.3v1.6h1.1v1.2h-1.1v3.2c0,0.2,0,0.4,0.1,0.5s0.3,0.2,0.5,0.2s0.4,0,0.5,0v1.3
			c-0.3,0.1-0.7,0.2-1,0.2c-1.2,0-1.8-0.6-1.8-1.8v-3.4h-0.9v-1.2h0.9v-1.6h1.7V394.3z"/>
		<path class="st4" d="M161.3,402.3c-0.9,0-1.7-0.3-2.3-0.9s-0.9-1.3-0.9-2.3V399c0-0.6,0.1-1.2,0.4-1.7s0.6-0.9,1-1.2
			s1-0.4,1.5-0.4c0.9,0,1.5,0.3,2,0.8s0.7,1.3,0.7,2.3v0.7h-4c0.1,0.4,0.2,0.7,0.5,1s0.6,0.4,1,0.4c0.7,0,1.2-0.2,1.5-0.7l0.8,0.9
			c-0.3,0.4-0.6,0.6-1,0.8S161.8,402.3,161.3,402.3z M161.1,397.1c-0.3,0-0.6,0.1-0.8,0.3s-0.3,0.6-0.4,1h2.4v-0.1
			c0-0.4-0.1-0.7-0.3-0.9S161.5,397.1,161.1,397.1z M161.3,393.2h1.8l-1.6,1.8h-1.4L161.3,393.2z"/>
		<path class="st4" d="M166.4,395.8l0.1,0.7c0.5-0.6,1.1-0.8,1.8-0.8s1.2,0.2,1.5,0.6s0.5,1,0.5,1.8v4.1h-1.7v-4.1
			c0-0.4-0.1-0.6-0.2-0.8s-0.4-0.2-0.8-0.2c-0.5,0-0.8,0.2-1.1,0.6v4.5h-1.7v-6.3h1.6V395.8z"/>
		<path class="st4" d="M178.3,402.2c-0.1-0.2-0.1-0.3-0.2-0.6c-0.4,0.5-0.9,0.7-1.6,0.7c-0.6,0-1.1-0.2-1.5-0.5s-0.6-0.8-0.6-1.4
			c0-0.7,0.2-1.2,0.7-1.5s1.2-0.5,2.2-0.5h0.8V398c0-0.3-0.1-0.5-0.2-0.7s-0.4-0.3-0.7-0.3s-0.5,0.1-0.7,0.2s-0.2,0.3-0.2,0.6h-1.7
			c0-0.4,0.1-0.7,0.3-1s0.5-0.6,1-0.7s0.9-0.3,1.4-0.3c0.8,0,1.4,0.2,1.9,0.6s0.7,0.9,0.7,1.7v2.7c0,0.6,0.1,1.1,0.3,1.4v0.1h-1.9
			V402.2z M176.9,401c0.2,0,0.5-0.1,0.7-0.2s0.4-0.3,0.5-0.4v-1.1h-0.6c-0.8,0-1.3,0.3-1.4,0.9v0.1c0,0.2,0.1,0.4,0.2,0.5
			S176.6,401,176.9,401z"/>
		<path class="st4" d="M185.8,402.2h-1.7v-9h1.7V402.2z"/>
		<path class="st4" d="M186.9,398.9c0-0.6,0.1-1.2,0.4-1.7s0.6-0.9,1-1.1s1-0.4,1.6-0.4c0.9,0,1.6,0.3,2.1,0.8s0.8,1.2,0.9,2.1v0.4
			c0,1-0.3,1.8-0.8,2.3s-1.3,0.9-2.2,0.9s-1.6-0.3-2.2-0.9S186.9,400,186.9,398.9L186.9,398.9z M188.6,399.1c0,0.6,0.1,1.1,0.3,1.4
			s0.6,0.5,1,0.5s0.7-0.2,1-0.5c0.2-0.3,0.3-0.8,0.3-1.5c0-0.6-0.1-1-0.3-1.4c-0.2-0.3-0.6-0.5-1-0.5s-0.7,0.2-1,0.5
			C188.7,397.9,188.6,398.4,188.6,399.1z"/>
		<path class="st4" d="M197.4,400.4c0-0.2-0.1-0.4-0.3-0.5s-0.5-0.2-1-0.3c-1.5-0.3-2.3-1-2.3-1.9c0-0.6,0.2-1,0.7-1.4
			s1.1-0.6,1.8-0.6c0.8,0,1.4,0.2,1.9,0.6s0.7,0.9,0.7,1.5h-1.7c0-0.2-0.1-0.4-0.2-0.6s-0.4-0.2-0.7-0.2s-0.5,0.1-0.7,0.2
			s-0.2,0.3-0.2,0.5s0.1,0.3,0.3,0.5s0.5,0.2,0.9,0.3s0.8,0.2,1.1,0.3c0.9,0.3,1.3,0.9,1.3,1.7c0,0.6-0.2,1-0.7,1.4
			s-1.1,0.5-1.9,0.5c-0.5,0-1-0.1-1.4-0.3s-0.7-0.4-1-0.8s-0.4-0.7-0.4-1.1h1.6c0,0.3,0.1,0.5,0.3,0.7s0.5,0.2,0.8,0.2
			s0.6-0.1,0.7-0.2S197.4,400.6,197.4,400.4z"/>
		<path class="st4" d="M205.5,400.1l1.2-4.3h1.8l-2.1,6.3h-1.6l-2.1-6.3h1.8L205.5,400.1z"/>
		<path class="st4" d="M208.8,398.9c0-0.6,0.1-1.2,0.4-1.7s0.6-0.9,1-1.1s1-0.4,1.6-0.4c0.9,0,1.6,0.3,2.1,0.8s0.8,1.2,0.9,2.1v0.4
			c0,1-0.3,1.8-0.8,2.3s-1.3,0.9-2.2,0.9s-1.6-0.3-2.2-0.9S208.8,400,208.8,398.9L208.8,398.9z M210.5,399.1c0,0.6,0.1,1.1,0.3,1.4
			s0.6,0.5,1,0.5s0.7-0.2,1-0.5c0.2-0.3,0.3-0.8,0.3-1.5c0-0.6-0.1-1-0.3-1.4c-0.2-0.3-0.6-0.5-1-0.5s-0.7,0.2-1,0.5
			C210.6,397.9,210.5,398.4,210.5,399.1z"/>
		<path class="st4" d="M217.7,402.2H216v-9h1.7V402.2z"/>
		<path class="st4" d="M221.7,400.9c0.3,0,0.6-0.1,0.8-0.3s0.3-0.4,0.3-0.7h1.6c0,0.4-0.1,0.8-0.4,1.2s-0.5,0.6-0.9,0.8
			s-0.8,0.3-1.3,0.3c-0.9,0-1.6-0.3-2.1-0.9s-0.8-1.4-0.8-2.4v-0.1c0-1,0.3-1.8,0.8-2.3s1.2-0.9,2.1-0.9c0.8,0,1.4,0.2,1.9,0.7
			s0.7,1.1,0.7,1.8h-1.6c0-0.3-0.1-0.6-0.3-0.8s-0.5-0.3-0.8-0.3c-0.4,0-0.7,0.1-0.9,0.4s-0.3,0.8-0.3,1.4v0.2
			c0,0.7,0.1,1.1,0.3,1.4C221,400.8,221.3,400.9,221.7,400.9z"/>
		<path class="st4" d="M229,402.2c-0.1-0.2-0.1-0.3-0.2-0.6c-0.4,0.5-0.9,0.7-1.6,0.7c-0.6,0-1.1-0.2-1.5-0.5s-0.6-0.8-0.6-1.4
			c0-0.7,0.2-1.2,0.7-1.5s1.2-0.5,2.2-0.5h0.8V398c0-0.3-0.1-0.5-0.2-0.7s-0.4-0.3-0.7-0.3s-0.5,0.1-0.7,0.2s-0.2,0.3-0.2,0.6h-1.7
			c0-0.4,0.1-0.7,0.3-1s0.5-0.6,1-0.7s0.9-0.3,1.4-0.3c0.8,0,1.4,0.2,1.9,0.6s0.7,0.9,0.7,1.7v2.7c0,0.6,0.1,1.1,0.3,1.4v0.1H229
			V402.2z M227.6,401c0.2,0,0.5-0.1,0.7-0.2s0.4-0.3,0.5-0.4v-1.1h-0.6c-0.8,0-1.3,0.3-1.4,0.9v0.1c0,0.2,0.1,0.4,0.2,0.5
			S227.3,401,227.6,401z"/>
		<path class="st4" d="M233.3,395.8l0.1,0.7c0.5-0.6,1.1-0.8,1.8-0.8s1.2,0.2,1.5,0.6s0.5,1,0.5,1.8v4.1h-1.7v-4.1
			c0-0.4-0.1-0.6-0.2-0.8s-0.4-0.2-0.8-0.2c-0.5,0-0.8,0.2-1.1,0.6v4.5h-1.7v-6.3h1.6V395.8z"/>
		<path class="st4" d="M241.4,402.3c-0.9,0-1.7-0.3-2.3-0.9s-0.9-1.3-0.9-2.3V399c0-0.6,0.1-1.2,0.4-1.7s0.6-0.9,1-1.2
			s1-0.4,1.5-0.4c0.9,0,1.5,0.3,2,0.8s0.7,1.3,0.7,2.3v0.7h-4c0.1,0.4,0.2,0.7,0.5,1s0.6,0.4,1,0.4c0.7,0,1.2-0.2,1.5-0.7l0.8,0.9
			c-0.3,0.4-0.6,0.6-1,0.8S241.9,402.3,241.4,402.3z M241.2,397.1c-0.3,0-0.6,0.1-0.8,0.3s-0.3,0.6-0.4,1h2.4v-0.1
			c0-0.4-0.1-0.7-0.3-0.9S241.6,397.1,241.2,397.1z"/>
		<path class="st4" d="M248.4,400.4c0-0.2-0.1-0.4-0.3-0.5s-0.5-0.2-1-0.3c-1.5-0.3-2.3-1-2.3-1.9c0-0.6,0.2-1,0.7-1.4
			s1.1-0.6,1.8-0.6c0.8,0,1.4,0.2,1.9,0.6s0.7,0.9,0.7,1.5h-1.7c0-0.2-0.1-0.4-0.2-0.6s-0.4-0.2-0.7-0.2s-0.5,0.1-0.7,0.2
			s-0.2,0.3-0.2,0.5s0.1,0.3,0.3,0.5s0.5,0.2,0.9,0.3s0.8,0.2,1.1,0.3c0.9,0.3,1.3,0.9,1.3,1.7c0,0.6-0.2,1-0.7,1.4
			s-1.1,0.5-1.9,0.5c-0.5,0-1-0.1-1.4-0.3s-0.7-0.4-1-0.8s-0.4-0.7-0.4-1.1h1.6c0,0.3,0.1,0.5,0.3,0.7s0.5,0.2,0.8,0.2
			s0.6-0.1,0.7-0.2S248.4,400.6,248.4,400.4z"/>
	</g>
	<g class="st3">
		<path class="st4" d="M273.8,121.1h-1.2v-5.7l-1.7,0.6v-1l2.8-1h0.2L273.8,121.1L273.8,121.1z"/>
		<path class="st4" d="M280.9,118.1c0,1-0.2,1.8-0.6,2.3s-1,0.8-1.7,0.8c-0.8,0-1.3-0.3-1.7-0.8c-0.4-0.5-0.6-1.3-0.6-2.2V117
			c0-1,0.2-1.8,0.6-2.3s1-0.8,1.8-0.8s1.4,0.2,1.7,0.7c0.4,0.5,0.6,1.2,0.6,2.2L280.9,118.1L280.9,118.1z M279.7,116.7
			c0-0.7-0.1-1.2-0.3-1.5c-0.2-0.3-0.5-0.5-0.9-0.5s-0.7,0.1-0.9,0.4c-0.2,0.3-0.3,0.8-0.3,1.4v1.6c0,0.7,0.1,1.2,0.3,1.5
			s0.5,0.5,0.9,0.5s0.7-0.2,0.8-0.5c0.2-0.3,0.3-0.8,0.3-1.4v-1.5H279.7z"/>
		<path class="st4" d="M282.7,119.8c0.2,0,0.4,0.1,0.5,0.2s0.2,0.3,0.2,0.5s-0.1,0.3-0.2,0.5c-0.1,0.1-0.3,0.2-0.5,0.2
			s-0.4-0.1-0.5-0.2s-0.2-0.3-0.2-0.5s0.1-0.3,0.2-0.5C282.3,119.9,282.5,119.8,282.7,119.8z"/>
		<path class="st4" d="M285,117.5l0.4-3.6h3.8v1h-2.8l-0.2,1.7c0.3-0.2,0.7-0.3,1.1-0.3c0.7,0,1.2,0.2,1.6,0.6s0.6,1,0.6,1.7
			s-0.2,1.3-0.6,1.7c-0.4,0.4-1,0.6-1.7,0.6s-1.2-0.2-1.6-0.6s-0.7-0.9-0.7-1.5h1.1c0,0.3,0.2,0.6,0.4,0.8c0.2,0.2,0.5,0.3,0.8,0.3
			c0.4,0,0.6-0.1,0.9-0.4c0.2-0.3,0.3-0.6,0.3-1.1c0-0.4-0.1-0.8-0.3-1c-0.2-0.3-0.5-0.4-0.9-0.4c-0.2,0-0.4,0-0.5,0.1
			c-0.2,0.1-0.3,0.2-0.5,0.3L285,117.5z"/>
		<path class="st4" d="M295.1,114.6l-2.8,6.5H291l2.8-6.2h-3.7v-1h4.9v0.7H295.1z"/>
		<path class="st4" d="M300.4,118.8l-0.5,0.5v1.7h-1.2v-7.5h1.2v4.3l0.4-0.5l1.5-1.6h1.4l-2,2.2l2.2,3.1H302L300.4,118.8z"/>
		<path class="st4" d="M305,115.8v0.6c0.4-0.4,0.9-0.6,1.5-0.6c0.7,0,1.2,0.3,1.5,0.8c0.4-0.5,0.9-0.8,1.6-0.8c0.6,0,1,0.2,1.3,0.5
			s0.4,0.8,0.4,1.4v3.5h-1.2v-3.4c0-0.3-0.1-0.6-0.2-0.7s-0.4-0.2-0.7-0.2c-0.3,0-0.5,0.1-0.7,0.2s-0.3,0.3-0.4,0.6v3.6H307v-3.5
			c0-0.6-0.3-0.9-1-0.9c-0.5,0-0.8,0.2-1,0.6v3.8h-1.2V116h1.2V115.8z"/>
	</g>
	<g class="st3">
		<path class="st4" d="M338.5,104.8h-4.8V104l2.4-2.6c0.3-0.4,0.6-0.7,0.7-1s0.2-0.5,0.2-0.8s-0.1-0.6-0.3-0.8s-0.4-0.3-0.8-0.3
			s-0.7,0.1-0.9,0.4c-0.2,0.2-0.3,0.6-0.3,1h-1.2c0-0.4,0.1-0.8,0.3-1.2c0.2-0.3,0.5-0.6,0.8-0.8s0.8-0.3,1.3-0.3
			c0.7,0,1.2,0.2,1.6,0.5s0.6,0.8,0.6,1.4c0,0.4-0.1,0.7-0.3,1.1c-0.2,0.4-0.5,0.8-1,1.3l-1.7,1.9h3.3L338.5,104.8L338.5,104.8z"/>
		<path class="st4" d="M339.7,101.3l0.4-3.6h3.8v1h-2.8l-0.2,1.7c0.3-0.2,0.7-0.3,1.1-0.3c0.7,0,1.2,0.2,1.6,0.6s0.6,1,0.6,1.7
			s-0.2,1.3-0.6,1.7c-0.4,0.4-1,0.6-1.7,0.6s-1.2-0.2-1.6-0.6s-0.7-0.9-0.7-1.5h1.1c0,0.3,0.2,0.6,0.4,0.8c0.2,0.2,0.5,0.3,0.8,0.3
			c0.4,0,0.6-0.1,0.9-0.4c0.2-0.3,0.3-0.6,0.3-1.1c0-0.4-0.1-0.8-0.3-1c-0.2-0.3-0.5-0.4-0.9-0.4c-0.2,0-0.4,0-0.5,0.1
			s-0.3,0.2-0.5,0.3L339.7,101.3z"/>
		<path class="st4" d="M349.4,102.6l-0.5,0.5v1.7h-1.2v-7.5h1.2v4.3l0.4-0.5l1.5-1.6h1.4l-2,2.2l2.2,3.1H351L349.4,102.6z"/>
		<path class="st4" d="M354,99.5v0.6c0.4-0.4,0.9-0.6,1.5-0.6c0.7,0,1.2,0.3,1.5,0.8c0.4-0.5,0.9-0.8,1.6-0.8c0.6,0,1,0.2,1.3,0.5
			s0.4,0.8,0.4,1.4v3.5h-1.2v-3.4c0-0.3-0.1-0.6-0.2-0.7s-0.4-0.2-0.7-0.2c-0.3,0-0.5,0.1-0.7,0.2s-0.3,0.3-0.4,0.6v3.6H356v-3.5
			c0-0.6-0.3-0.9-1-0.9c-0.5,0-0.8,0.2-1,0.6v3.8h-1.2v-5.3h1.2V99.5z"/>
	</g>
</g>
<linearGradient id="SVGID_00000091001134690805364910000011087020996502178718_" gradientUnits="userSpaceOnUse" x1="618.6" y1="207.45" x2="710.6" y2="207.45" gradientTransform="matrix(1 0 0 -1 0 414)">
	<stop  offset="0.5431" style="stop-color:#FFFFFF;stop-opacity:0"/>
	<stop  offset="1" style="stop-color:#FFFFFF"/>
</linearGradient>
<rect x="618.6" style="fill:url(#SVGID_00000091001134690805364910000011087020996502178718_);" width="92" height="413.1"/>
<linearGradient id="SVGID_00000165936041434141472300000015926921280976053410_" gradientUnits="userSpaceOnUse" x1="-766.6732" y1="207.75" x2="-674.6732" y2="207.75" gradientTransform="matrix(-1 0 0 -1 -674.8732 414)">
	<stop  offset="0.5431" style="stop-color:#FFFFFF;stop-opacity:0"/>
	<stop  offset="1" style="stop-color:#FFFFFF"/>
</linearGradient>
<polygon style="fill:url(#SVGID_00000165936041434141472300000015926921280976053410_);" points="-0.2,412.8 91.8,412.8 91.8,-0.3 
	-0.2,-0.3 "/>
</svg>
