<?xml version="1.0" encoding="utf-8"?>
<!-- Generator: Adobe Illustrator 25.4.1, SVG Export Plug-In . SVG Version: 6.00 Build 0)  -->
<svg version="1.1" id="Layer_1" xmlns="http://www.w3.org/2000/svg" xmlns:xlink="http://www.w3.org/1999/xlink" x="0px" y="0px"
	 viewBox="0 0 540.5 418.3" style="enable-background:new 0 0 540.5 418.3;" xml:space="preserve">
<style type="text/css">
	.st0{enable-background:new    ;}
	.st1{fill:#985041;}
	.st2{clip-path:url(#SVGID_00000118381957725918212970000007330909973135479188_);}
	.st3{fill:none;stroke:#985041;stroke-miterlimit:10;}
	.st4{fill:url(#SVGID_00000054240107162106228840000002271292120555245729_);}
	.st5{fill:url(#SVGID_00000078040036136272220450000008308286899383112071_);}
</style>
<g id="Capa_1">
	
		<image style="overflow:visible;enable-background:new    ;" width="618" height="481" xlink:href="20AA1508.png"  transform="matrix(0.8746 0 0 0.8746 0 0)">
	</image>
	<g class="st0">
		<path class="st1" d="M85.2,76.5h-1v-6.6l-2,0.7v-0.9l2.8-1.1h0.2V76.5z"/>
		<path class="st1" d="M93,73.1c0,1.2-0.2,2-0.6,2.6s-1,0.8-1.9,0.8c-0.8,0-1.5-0.3-1.9-0.8c-0.4-0.6-0.6-1.4-0.6-2.5v-1.3
			c0-1.2,0.2-2,0.6-2.6s1-0.8,1.9-0.8c0.8,0,1.5,0.3,1.9,0.8s0.6,1.4,0.6,2.5V73.1z M92,71.8c0-0.8-0.1-1.5-0.4-1.8
			s-0.6-0.6-1.1-0.6c-0.5,0-0.9,0.2-1.1,0.6c-0.2,0.4-0.4,1-0.4,1.8v1.6c0,0.8,0.1,1.5,0.4,1.9c0.2,0.4,0.6,0.6,1.1,0.6
			c0.5,0,0.9-0.2,1.1-0.6c0.2-0.4,0.4-1,0.4-1.8V71.8z"/>
		<path class="st1" d="M94.4,75.9c0-0.2,0.1-0.3,0.2-0.4c0.1-0.1,0.3-0.2,0.5-0.2s0.4,0.1,0.5,0.2c0.1,0.1,0.2,0.3,0.2,0.4
			c0,0.2-0.1,0.3-0.2,0.4c-0.1,0.1-0.3,0.2-0.5,0.2s-0.4-0.1-0.5-0.2C94.5,76.2,94.4,76.1,94.4,75.9z"/>
		<path class="st1" d="M97.6,72.5l0.4-3.9h4v0.9h-3.2l-0.2,2.1c0.4-0.2,0.8-0.3,1.3-0.3c0.7,0,1.3,0.2,1.7,0.7s0.6,1.1,0.6,1.9
			c0,0.8-0.2,1.4-0.7,1.9c-0.4,0.5-1,0.7-1.8,0.7c-0.7,0-1.3-0.2-1.7-0.6c-0.4-0.4-0.7-0.9-0.7-1.6h0.9c0.1,0.4,0.2,0.8,0.5,1
			s0.6,0.3,1,0.3c0.5,0,0.8-0.2,1.1-0.5c0.3-0.3,0.4-0.8,0.4-1.3c0-0.5-0.1-0.9-0.4-1.3c-0.3-0.3-0.7-0.5-1.1-0.5
			c-0.4,0-0.8,0.1-1,0.3l-0.3,0.2L97.6,72.5z"/>
		<path class="st1" d="M108.4,69.2l-3.2,7.3h-1l3.2-7h-4.2v-0.8h5.3V69.2z"/>
		<path class="st1" d="M114,73.8l-0.6,0.7v2h-1v-8.2h1v5l0.5-0.6l1.8-1.9h1.2l-2.3,2.4l2.5,3.4H116L114,73.8z"/>
		<path class="st1" d="M118.9,70.6l0,0.6c0.4-0.5,1-0.8,1.7-0.8c0.8,0,1.4,0.3,1.7,0.9c0.2-0.3,0.4-0.5,0.8-0.7s0.7-0.3,1.1-0.3
			c1.3,0,1.9,0.7,1.9,2v3.9h-1v-3.8c0-0.4-0.1-0.7-0.3-0.9c-0.2-0.2-0.5-0.3-1-0.3c-0.4,0-0.7,0.1-0.9,0.3c-0.2,0.2-0.4,0.5-0.4,0.9
			v3.9h-1v-3.8c0-0.8-0.4-1.3-1.2-1.3c-0.7,0-1.1,0.3-1.3,0.8v4.2h-1v-5.8H118.9z"/>
	</g>
	<g class="st0">
		<path class="st1" d="M153.9,59.5h-5.1v-0.7l2.7-3c0.4-0.5,0.7-0.8,0.8-1.1c0.2-0.3,0.2-0.6,0.2-0.9c0-0.4-0.1-0.7-0.4-1
			c-0.2-0.3-0.6-0.4-1-0.4c-0.5,0-0.9,0.1-1.2,0.4c-0.3,0.3-0.4,0.7-0.4,1.2h-1c0-0.7,0.2-1.3,0.7-1.7c0.5-0.4,1.1-0.7,1.9-0.7
			c0.7,0,1.3,0.2,1.7,0.6c0.4,0.4,0.6,0.9,0.6,1.5c0,0.8-0.5,1.7-1.5,2.8l-2.1,2.3h3.9V59.5z"/>
		<path class="st1" d="M155.4,55.6l0.4-3.9h4v0.9h-3.2l-0.2,2.1c0.4-0.2,0.8-0.3,1.3-0.3c0.7,0,1.3,0.2,1.7,0.7s0.6,1.1,0.6,1.9
			c0,0.8-0.2,1.4-0.7,1.9c-0.4,0.5-1,0.7-1.8,0.7c-0.7,0-1.3-0.2-1.7-0.6c-0.4-0.4-0.7-0.9-0.7-1.6h0.9c0.1,0.4,0.2,0.8,0.5,1
			s0.6,0.3,1,0.3c0.5,0,0.8-0.2,1.1-0.5c0.3-0.3,0.4-0.8,0.4-1.3c0-0.5-0.1-0.9-0.4-1.3c-0.3-0.3-0.7-0.5-1.1-0.5
			c-0.4,0-0.8,0.1-1,0.3l-0.3,0.2L155.4,55.6z"/>
		<path class="st1" d="M165.6,56.8l-0.6,0.7v2h-1v-8.2h1v5l0.5-0.6l1.8-1.9h1.2l-2.3,2.4l2.5,3.4h-1.2L165.6,56.8z"/>
		<path class="st1" d="M170.5,53.7l0,0.6c0.4-0.5,1-0.8,1.7-0.8c0.8,0,1.4,0.3,1.7,0.9c0.2-0.3,0.4-0.5,0.8-0.7
			c0.3-0.2,0.7-0.3,1.1-0.3c1.3,0,1.9,0.7,1.9,2v3.9h-1v-3.8c0-0.4-0.1-0.7-0.3-0.9c-0.2-0.2-0.5-0.3-1-0.3c-0.4,0-0.7,0.1-0.9,0.3
			c-0.2,0.2-0.4,0.5-0.4,0.9v3.9h-1v-3.8c0-0.8-0.4-1.3-1.2-1.3c-0.7,0-1.1,0.3-1.3,0.8v4.2h-1v-5.8H170.5z"/>
	</g>
	<g>
		<g>
			<defs>
				<circle id="SVGID_1_" cx="143" cy="289.4" r="69.2"/>
			</defs>
			<clipPath id="SVGID_00000024687322592434934130000008690465949888113079_">
				<use xlink:href="#SVGID_1_"  style="overflow:visible;"/>
			</clipPath>
			<g style="clip-path:url(#SVGID_00000024687322592434934130000008690465949888113079_);">
				
					<image style="overflow:visible;enable-background:new    ;" width="703" height="532" xlink:href="20AA1509.png"  transform="matrix(0.2648 0 0 0.2648 62.161 218.9361)">
				</image>
			</g>
		</g>
		<g>
			<g>
				<circle id="SVGID_00000011028609539755130570000011124547914516382601_" class="st3" cx="143" cy="289.4" r="69.2"/>
			</g>
		</g>
	</g>
	<g>
		<g class="st0">
			<path class="st1" d="M136.6,381c-0.1,0.9-0.4,1.6-1,2.2s-1.4,0.8-2.4,0.8c-1.1,0-2-0.4-2.6-1.1s-0.9-1.7-0.9-3v-0.5
				c0-0.8,0.1-1.5,0.4-2.2s0.7-1.1,1.2-1.4s1.2-0.5,1.9-0.5c1,0,1.8,0.3,2.4,0.8s0.9,1.3,1,2.2h-1.8c0-0.6-0.2-1-0.5-1.2
				s-0.7-0.4-1.2-0.4c-0.6,0-1,0.2-1.3,0.6s-0.4,1.1-0.4,2v0.6c0,0.9,0.1,1.6,0.4,2s0.7,0.6,1.3,0.6c0.5,0,0.9-0.1,1.2-0.4
				s0.4-0.6,0.5-1.2H136.6z"/>
			<path class="st1" d="M139.3,378.1c0.4-0.5,1-0.8,1.7-0.8c1.4,0,2.1,0.8,2.1,2.4v4.1h-1.7v-4c0-0.4-0.1-0.6-0.2-0.8
				s-0.4-0.3-0.8-0.3c-0.5,0-0.9,0.2-1.1,0.6v4.5h-1.7v-9h1.7V378.1z"/>
			<path class="st1" d="M144.3,375.8c0-0.3,0.1-0.5,0.3-0.6s0.4-0.2,0.7-0.2c0.3,0,0.5,0.1,0.7,0.2s0.3,0.4,0.3,0.6
				c0,0.3-0.1,0.5-0.3,0.6s-0.4,0.2-0.7,0.2s-0.5-0.1-0.7-0.2S144.3,376.1,144.3,375.8z M146.1,383.8h-1.7v-6.3h1.7V383.8z"/>
			<path class="st1" d="M149.3,383.8h-1.7v-9h1.7V383.8z"/>
			<path class="st1" d="M153.6,383.9c-0.9,0-1.7-0.3-2.3-0.9s-0.9-1.3-0.9-2.3v-0.2c0-0.6,0.1-1.2,0.4-1.7s0.6-0.9,1-1.2
				s1-0.4,1.5-0.4c0.9,0,1.5,0.3,2,0.8s0.7,1.3,0.7,2.3v0.7h-4c0.1,0.4,0.2,0.7,0.5,1s0.6,0.4,1,0.4c0.7,0,1.2-0.2,1.5-0.7l0.8,0.9
				c-0.3,0.4-0.6,0.6-1,0.8S154.2,383.9,153.6,383.9z M153.4,378.7c-0.3,0-0.6,0.1-0.8,0.3s-0.3,0.6-0.4,1h2.4v-0.1
				c0-0.4-0.1-0.7-0.3-0.9S153.8,378.7,153.4,378.7z"/>
		</g>
		<g class="st0">
			<path class="st1" d="M92.5,395.1h-1.4v3.1h-1.8v-8.5h3.2c1,0,1.8,0.2,2.3,0.7s0.8,1.1,0.8,1.9c0,0.6-0.1,1.1-0.4,1.5
				s-0.6,0.7-1.1,0.9l1.8,3.5v0.1h-1.9L92.5,395.1z M91.1,393.6h1.4c0.4,0,0.8-0.1,1-0.3s0.4-0.5,0.4-0.9c0-0.4-0.1-0.7-0.3-0.9
				s-0.6-0.3-1.1-0.3h-1.4V393.6z"/>
			<path class="st1" d="M99.9,398.3c-0.9,0-1.7-0.3-2.3-0.9s-0.9-1.3-0.9-2.3V395c0-0.6,0.1-1.2,0.4-1.7s0.6-0.9,1-1.2
				s1-0.4,1.5-0.4c0.9,0,1.5,0.3,2,0.8s0.7,1.3,0.7,2.3v0.7h-4c0.1,0.4,0.2,0.7,0.5,1s0.6,0.4,1,0.4c0.7,0,1.2-0.2,1.5-0.7l0.8,0.9
				c-0.3,0.4-0.6,0.6-1,0.8S100.4,398.3,99.9,398.3z M99.7,393.1c-0.3,0-0.6,0.1-0.8,0.3s-0.3,0.6-0.4,1h2.4v-0.1
				c0-0.4-0.1-0.7-0.3-0.9S100,393.1,99.7,393.1z"/>
			<path class="st1" d="M103.2,395c0-1,0.2-1.8,0.7-2.3s1.1-0.9,1.9-0.9c0.7,0,1.2,0.2,1.6,0.7l0.1-0.6h1.5v6.1c0,0.6-0.1,1-0.4,1.4
				s-0.6,0.7-1.1,0.9s-1,0.3-1.6,0.3c-0.5,0-0.9-0.1-1.4-0.3s-0.8-0.4-1-0.7l0.8-1c0.4,0.5,0.9,0.7,1.5,0.7c0.4,0,0.8-0.1,1-0.4
				s0.4-0.6,0.4-1v-0.3c-0.4,0.4-0.9,0.7-1.5,0.7c-0.8,0-1.4-0.3-1.8-0.9S103.2,396,103.2,395L103.2,395z M104.9,395.1
				c0,0.6,0.1,1,0.3,1.4c0.2,0.3,0.5,0.5,0.9,0.5c0.5,0,0.9-0.2,1.1-0.6v-2.7c-0.2-0.4-0.6-0.6-1.1-0.6c-0.4,0-0.7,0.2-1,0.5
				C105,393.9,104.9,394.4,104.9,395.1z"/>
			<path class="st1" d="M110.3,390.2c0-0.3,0.1-0.5,0.3-0.6s0.4-0.2,0.7-0.2c0.3,0,0.5,0.1,0.7,0.2s0.3,0.4,0.3,0.6
				c0,0.3-0.1,0.5-0.3,0.6s-0.4,0.2-0.7,0.2s-0.5-0.1-0.7-0.2S110.3,390.5,110.3,390.2z M112.1,398.2h-1.7v-6.3h1.7V398.2z"/>
			<path class="st1" d="M113.2,395c0-0.6,0.1-1.2,0.4-1.7s0.6-0.9,1-1.1s1-0.4,1.6-0.4c0.9,0,1.6,0.3,2.1,0.8s0.8,1.2,0.9,2.1l0,0.4
				c0,1-0.3,1.8-0.8,2.3s-1.3,0.9-2.2,0.9s-1.6-0.3-2.2-0.9S113.2,396,113.2,395L113.2,395z M114.9,395.1c0,0.6,0.1,1.1,0.3,1.4
				c0.2,0.3,0.6,0.5,1,0.5c0.4,0,0.7-0.2,1-0.5c0.2-0.3,0.3-0.8,0.3-1.5c0-0.6-0.1-1-0.3-1.4c-0.2-0.3-0.6-0.5-1-0.5
				c-0.4,0-0.7,0.2-1,0.5C115,393.9,114.9,394.4,114.9,395.1z M116.5,389.2h1.8l-1.6,1.8h-1.4L116.5,389.2z"/>
			<path class="st1" d="M121.8,391.9l0.1,0.7c0.5-0.6,1.1-0.8,1.8-0.8c0.7,0,1.2,0.2,1.5,0.6s0.5,1,0.5,1.8v4.1H124v-4.1
				c0-0.4-0.1-0.6-0.2-0.8s-0.4-0.2-0.8-0.2c-0.5,0-0.8,0.2-1.1,0.6v4.5h-1.7v-6.3H121.8z"/>
			<path class="st1" d="M129.7,395c0-1,0.2-1.8,0.7-2.4s1-0.9,1.8-0.9c0.6,0,1.1,0.2,1.5,0.7v-3.2h1.7v9h-1.5l-0.1-0.7
				c-0.4,0.5-1,0.8-1.6,0.8c-0.7,0-1.3-0.3-1.8-0.9S129.7,396,129.7,395z M131.4,395.1c0,0.6,0.1,1.1,0.3,1.4
				c0.2,0.3,0.5,0.5,0.9,0.5c0.5,0,0.9-0.2,1.1-0.7v-2.5c-0.2-0.4-0.6-0.7-1.1-0.7C131.8,393.1,131.4,393.8,131.4,395.1z"/>
			<path class="st1" d="M139.6,398.3c-0.9,0-1.7-0.3-2.3-0.9s-0.9-1.3-0.9-2.3V395c0-0.6,0.1-1.2,0.4-1.7s0.6-0.9,1-1.2
				s1-0.4,1.5-0.4c0.9,0,1.5,0.3,2,0.8s0.7,1.3,0.7,2.3v0.7h-4c0.1,0.4,0.2,0.7,0.5,1s0.6,0.4,1,0.4c0.7,0,1.2-0.2,1.5-0.7l0.8,0.9
				c-0.3,0.4-0.6,0.6-1,0.8S140.2,398.3,139.6,398.3z M139.4,393.1c-0.3,0-0.6,0.1-0.8,0.3s-0.3,0.6-0.4,1h2.4v-0.1
				c0-0.4-0.1-0.7-0.3-0.9S139.8,393.1,139.4,393.1z"/>
			<path class="st1" d="M148,398.2h-1.7v-9h1.7V398.2z"/>
			<path class="st1" d="M149.1,395c0-0.6,0.1-1.2,0.4-1.7s0.6-0.9,1-1.1s1-0.4,1.6-0.4c0.9,0,1.6,0.3,2.1,0.8s0.8,1.2,0.9,2.1l0,0.4
				c0,1-0.3,1.8-0.8,2.3s-1.3,0.9-2.2,0.9s-1.6-0.3-2.2-0.9S149.1,396,149.1,395L149.1,395z M150.8,395.1c0,0.6,0.1,1.1,0.3,1.4
				c0.2,0.3,0.6,0.5,1,0.5c0.4,0,0.7-0.2,1-0.5c0.2-0.3,0.3-0.8,0.3-1.5c0-0.6-0.1-1-0.3-1.4c-0.2-0.3-0.6-0.5-1-0.5
				c-0.4,0-0.7,0.2-1,0.5C150.9,393.9,150.8,394.4,150.8,395.1z"/>
			<path class="st1" d="M159.6,396.4c0-0.2-0.1-0.4-0.3-0.5s-0.5-0.2-1-0.3c-1.5-0.3-2.3-1-2.3-1.9c0-0.6,0.2-1,0.7-1.4
				s1.1-0.6,1.8-0.6c0.8,0,1.4,0.2,1.9,0.6s0.7,0.9,0.7,1.5h-1.7c0-0.2-0.1-0.4-0.2-0.6s-0.4-0.2-0.7-0.2c-0.3,0-0.5,0.1-0.7,0.2
				s-0.2,0.3-0.2,0.5c0,0.2,0.1,0.3,0.3,0.5s0.5,0.2,0.9,0.3s0.8,0.2,1.1,0.3c0.9,0.3,1.3,0.9,1.3,1.7c0,0.6-0.2,1-0.7,1.4
				s-1.1,0.5-1.9,0.5c-0.5,0-1-0.1-1.4-0.3s-0.7-0.4-1-0.8s-0.4-0.7-0.4-1.1h1.6c0,0.3,0.1,0.5,0.3,0.7s0.5,0.2,0.8,0.2
				c0.3,0,0.6-0.1,0.7-0.2S159.6,396.6,159.6,396.4z"/>
			<path class="st1" d="M167.2,396.8h3.7v1.4h-5.5v-8.5h1.8V396.8z"/>
			<path class="st1" d="M175.5,398.2c-0.1-0.2-0.1-0.3-0.2-0.6c-0.4,0.5-0.9,0.7-1.6,0.7c-0.6,0-1.1-0.2-1.5-0.5s-0.6-0.8-0.6-1.4
				c0-0.7,0.2-1.2,0.7-1.5s1.2-0.5,2.2-0.5h0.8V394c0-0.3-0.1-0.5-0.2-0.7s-0.4-0.3-0.7-0.3c-0.3,0-0.5,0.1-0.7,0.2
				s-0.2,0.3-0.2,0.6h-1.7c0-0.4,0.1-0.7,0.3-1s0.5-0.6,1-0.7s0.9-0.3,1.4-0.3c0.8,0,1.4,0.2,1.9,0.6s0.7,0.9,0.7,1.7v2.7
				c0,0.6,0.1,1.1,0.3,1.4v0.1H175.5z M174.1,397c0.2,0,0.5-0.1,0.7-0.2s0.4-0.3,0.5-0.4v-1.1h-0.6c-0.8,0-1.3,0.3-1.4,0.9l0,0.1
				c0,0.2,0.1,0.4,0.2,0.5S173.8,397,174.1,397z"/>
			<path class="st1" d="M178,395c0-1,0.2-1.8,0.7-2.3s1.1-0.9,1.9-0.9c0.7,0,1.2,0.2,1.6,0.7l0.1-0.6h1.5v6.1c0,0.6-0.1,1-0.4,1.4
				s-0.6,0.7-1.1,0.9s-1,0.3-1.6,0.3c-0.5,0-0.9-0.1-1.4-0.3s-0.8-0.4-1-0.7l0.8-1c0.4,0.5,0.9,0.7,1.5,0.7c0.4,0,0.8-0.1,1-0.4
				s0.4-0.6,0.4-1v-0.3c-0.4,0.4-0.9,0.7-1.5,0.7c-0.8,0-1.4-0.3-1.8-0.9S178,396,178,395L178,395z M179.7,395.1
				c0,0.6,0.1,1,0.3,1.4c0.2,0.3,0.5,0.5,0.9,0.5c0.5,0,0.9-0.2,1.1-0.6v-2.7c-0.2-0.4-0.6-0.6-1.1-0.6c-0.4,0-0.7,0.2-1,0.5
				C179.8,393.9,179.7,394.4,179.7,395.1z"/>
			<path class="st1" d="M184.8,395c0-0.6,0.1-1.2,0.4-1.7s0.6-0.9,1-1.1s1-0.4,1.6-0.4c0.9,0,1.6,0.3,2.1,0.8s0.8,1.2,0.9,2.1l0,0.4
				c0,1-0.3,1.8-0.8,2.3s-1.3,0.9-2.2,0.9s-1.6-0.3-2.2-0.9S184.8,396,184.8,395L184.8,395z M186.5,395.1c0,0.6,0.1,1.1,0.3,1.4
				c0.2,0.3,0.6,0.5,1,0.5c0.4,0,0.7-0.2,1-0.5c0.2-0.3,0.3-0.8,0.3-1.5c0-0.6-0.1-1-0.3-1.4c-0.2-0.3-0.6-0.5-1-0.5
				c-0.4,0-0.7,0.2-1,0.5C186.6,393.9,186.5,394.4,186.5,395.1z"/>
			<path class="st1" d="M195.3,396.4c0-0.2-0.1-0.4-0.3-0.5s-0.5-0.2-1-0.3c-1.5-0.3-2.3-1-2.3-1.9c0-0.6,0.2-1,0.7-1.4
				s1.1-0.6,1.8-0.6c0.8,0,1.4,0.2,1.9,0.6s0.7,0.9,0.7,1.5h-1.7c0-0.2-0.1-0.4-0.2-0.6s-0.4-0.2-0.7-0.2c-0.3,0-0.5,0.1-0.7,0.2
				s-0.2,0.3-0.2,0.5c0,0.2,0.1,0.3,0.3,0.5s0.5,0.2,0.9,0.3s0.8,0.2,1.1,0.3c0.9,0.3,1.3,0.9,1.3,1.7c0,0.6-0.2,1-0.7,1.4
				s-1.1,0.5-1.9,0.5c-0.5,0-1-0.1-1.4-0.3s-0.7-0.4-1-0.8s-0.4-0.7-0.4-1.1h1.6c0,0.3,0.1,0.5,0.3,0.7s0.5,0.2,0.8,0.2
				c0.3,0,0.6-0.1,0.7-0.2S195.3,396.6,195.3,396.4z"/>
		</g>
	</g>
</g>
<linearGradient id="SVGID_00000004524007034309583830000017254584664172428680_" gradientUnits="userSpaceOnUse" x1="177.9586" y1="210.1989" x2="269.9987" y2="210.1989" gradientTransform="matrix(-1 0 0 1 269.7788 0)">
	<stop  offset="0.5431" style="stop-color:#FFFFFF;stop-opacity:0"/>
	<stop  offset="1" style="stop-color:#FFFFFF"/>
</linearGradient>
<polygon style="fill:url(#SVGID_00000004524007034309583830000017254584664172428680_);" points="-0.2,420.7 91.8,420.7 91.8,-0.3 
	-0.2,-0.3 "/>
<linearGradient id="SVGID_00000153681608155549618620000002472200578358648502_" gradientUnits="userSpaceOnUse" x1="640.8746" y1="210.1989" x2="732.9147" y2="210.1989" gradientTransform="matrix(1 0 0 1 -192.3822 0)">
	<stop  offset="0.5431" style="stop-color:#FFFFFF;stop-opacity:0"/>
	<stop  offset="1" style="stop-color:#FFFFFF"/>
</linearGradient>
<rect x="448.5" y="-0.3" style="fill:url(#SVGID_00000153681608155549618620000002472200578358648502_);" width="92" height="421"/>
</svg>
