<?xml version="1.0" encoding="utf-8"?>
<!-- Generator: Adobe Illustrator 25.4.1, SVG Export Plug-In . SVG Version: 6.00 Build 0)  -->
<svg version="1.1" id="Layer_1" xmlns="http://www.w3.org/2000/svg" xmlns:xlink="http://www.w3.org/1999/xlink" x="0px" y="0px"
	 viewBox="0 0 597 450.7" style="enable-background:new 0 0 597 450.7;" xml:space="preserve">
<style type="text/css">
	.st0{fill:#96442D;}
	.st1{fill:url(#SVGID_1_);}
	.st2{fill:url(#SVGID_00000096763413356829628810000003624202757400794034_);}
	.st3{fill:#FFFFFF;}
	.st4{clip-path:url(#SVGID_00000048472651095903843710000004600840240242493580_);}
	.st5{fill:none;stroke:#96442D;stroke-width:1.1033;stroke-miterlimit:10;}
</style>
<image style="overflow:visible;enable-background:new    ;" width="618" height="481" xlink:href="28A760B2.png"  transform="matrix(0.8746 0 0 0.8746 30.874 16.9944)">
</image>
<g>
	<g>
		<path class="st0" d="M115.1,93.4h-1v-6.6l-2,0.7v-0.9l2.8-1.1h0.2V93.4z"/>
		<path class="st0" d="M122.9,90.1c0,1.2-0.2,2-0.6,2.6s-1,0.8-1.9,0.8c-0.8,0-1.5-0.3-1.9-0.8c-0.4-0.6-0.6-1.4-0.6-2.5v-1.3
			c0-1.1,0.2-2,0.6-2.6s1-0.8,1.9-0.8c0.8,0,1.5,0.3,1.9,0.8s0.6,1.4,0.6,2.5V90.1z M121.9,88.8c0-0.8-0.1-1.5-0.4-1.8
			c-0.2-0.4-0.6-0.6-1.1-0.6s-0.9,0.2-1.1,0.6s-0.4,1-0.4,1.8v1.6c0,0.8,0.1,1.5,0.4,1.9c0.2,0.4,0.6,0.6,1.1,0.6s0.9-0.2,1.1-0.6
			s0.4-1,0.4-1.8V88.8z"/>
		<path class="st0" d="M124.3,92.9c0-0.2,0.1-0.3,0.2-0.4s0.3-0.2,0.5-0.2s0.4,0.1,0.5,0.2s0.2,0.3,0.2,0.4c0,0.2-0.1,0.3-0.2,0.4
			s-0.3,0.2-0.5,0.2s-0.4-0.1-0.5-0.2C124.3,93.2,124.3,93.1,124.3,92.9z"/>
		<path class="st0" d="M127.5,89.5l0.4-3.9h4v0.9h-3.2l-0.2,2.1c0.4-0.2,0.8-0.3,1.3-0.3c0.7,0,1.3,0.2,1.7,0.7s0.6,1.1,0.6,1.9
			s-0.2,1.4-0.7,1.9c-0.4,0.5-1,0.7-1.8,0.7c-0.7,0-1.3-0.2-1.7-0.6c-0.4-0.4-0.7-0.9-0.7-1.6h0.9c0.1,0.4,0.2,0.8,0.5,1
			s0.6,0.3,1,0.3c0.5,0,0.8-0.2,1.1-0.5s0.4-0.8,0.4-1.3s-0.1-0.9-0.4-1.3c-0.3-0.3-0.7-0.5-1.1-0.5c-0.4,0-0.8,0.1-1,0.3l-0.3,0.2
			L127.5,89.5z"/>
		<path class="st0" d="M138.3,86.2l-3.2,7.3h-1l3.2-7H133v-0.8h5.3V86.2z"/>
		<path class="st0" d="M143.9,90.8l-0.6,0.6v2h-1v-8.2h1v5l0.5-0.6l1.8-1.9h1.2l-2.3,2.4l2.5,3.4h-1.2L143.9,90.8z"/>
		<path class="st0" d="M148.7,87.6v0.6c0.4-0.5,1-0.8,1.7-0.8c0.8,0,1.4,0.3,1.7,0.9c0.2-0.3,0.4-0.5,0.8-0.7s0.7-0.3,1.1-0.3
			c1.3,0,1.9,0.7,1.9,2v3.9h-1v-3.8c0-0.4-0.1-0.7-0.3-0.9c-0.2-0.2-0.5-0.3-1-0.3c-0.4,0-0.7,0.1-0.9,0.3c-0.2,0.2-0.4,0.5-0.4,0.9
			v3.9h-1v-3.8c0-0.8-0.4-1.3-1.2-1.3c-0.7,0-1.1,0.3-1.3,0.8v4.2h-1v-5.8h0.9V87.6z"/>
	</g>
</g>
<g>
	<g>
		<path class="st0" d="M183.8,76.5h-5.1v-0.7l2.7-3c0.4-0.5,0.7-0.8,0.8-1.1c0.2-0.3,0.2-0.6,0.2-0.9c0-0.4-0.1-0.7-0.4-1
			c-0.2-0.3-0.6-0.4-1-0.4c-0.5,0-0.9,0.1-1.2,0.4s-0.4,0.7-0.4,1.2h-1c0-0.7,0.2-1.3,0.7-1.7s1.1-0.7,1.9-0.7
			c0.7,0,1.3,0.2,1.7,0.6s0.6,0.9,0.6,1.5c0,0.8-0.5,1.7-1.5,2.8l-2.1,2.3h3.9v0.7H183.8z"/>
		<path class="st0" d="M185.3,72.6l0.4-3.9h4v0.9h-3.2l-0.2,2.1c0.4-0.2,0.8-0.3,1.3-0.3c0.7,0,1.3,0.2,1.7,0.7s0.6,1.1,0.6,1.9
			s-0.2,1.4-0.7,1.9c-0.4,0.5-1,0.7-1.8,0.7c-0.7,0-1.3-0.2-1.7-0.6s-0.7-0.9-0.7-1.6h0.9c0.1,0.4,0.2,0.8,0.5,1s0.6,0.3,1,0.3
			c0.5,0,0.8-0.2,1.1-0.5s0.4-0.8,0.4-1.3s-0.1-0.9-0.4-1.3c-0.3-0.3-0.7-0.5-1.1-0.5c-0.4,0-0.8,0.1-1,0.3l-0.3,0.2L185.3,72.6z"/>
		<path class="st0" d="M195.5,73.8l-0.6,0.6v2h-1v-8.2h1v5l0.5-0.6l1.8-1.9h1.2l-2.3,2.4l2.5,3.4h-1.2L195.5,73.8z"/>
		<path class="st0" d="M200.3,70.7v0.6c0.4-0.5,1-0.8,1.7-0.8c0.8,0,1.4,0.3,1.7,0.9c0.2-0.3,0.4-0.5,0.8-0.7s0.7-0.3,1.1-0.3
			c1.3,0,1.9,0.7,1.9,2v3.9h-1v-3.8c0-0.4-0.1-0.7-0.3-0.9c-0.2-0.2-0.5-0.3-1-0.3c-0.4,0-0.7,0.1-0.9,0.3c-0.2,0.2-0.4,0.5-0.4,0.9
			v3.9h-1v-3.8c0-0.8-0.4-1.3-1.2-1.3c-0.7,0-1.1,0.3-1.3,0.8v4.2h-1v-5.8h0.9V70.7z"/>
	</g>
</g>
<g id="Capa_2">
</g>
<image style="overflow:visible;" width="640" height="467" xlink:href="28A760B6.png"  transform="matrix(0.24 0 0 0.24 91 14.76)">
</image>
<image style="overflow:visible;" width="295" height="196" xlink:href="28A760B1.png"  transform="matrix(0.24 0 0 0.24 457.68 343.18)">
</image>
<image style="overflow:visible;" width="2270" height="1791" xlink:href="los-lagos-celu-0211.png"  transform="matrix(0.24 0 0 0.2366 26.1 15.4272)">
</image>
<linearGradient id="SVGID_1_" gradientUnits="userSpaceOnUse" x1="-154.85" y1="-23.0282" x2="-104.05" y2="-23.0282" gradientTransform="matrix(6.123234e-17 -1 -1 -6.123234e-17 276.95 284.25)">
	<stop  offset="0" style="stop-color:#FFFFFF"/>
	<stop  offset="1" style="stop-color:#FFFFFF;stop-opacity:0"/>
</linearGradient>
<rect x="22.9" y="388.3" class="st1" width="554.2" height="50.8"/>
<linearGradient id="SVGID_00000003792070925686600410000002435563058686914439_" gradientUnits="userSpaceOnUse" x1="-3275.7573" y1="478.1967" x2="-3224.9575" y2="478.1967" gradientTransform="matrix(-6.123234e-17 1 -1 -6.123234e-17 771.6 3292.7573)">
	<stop  offset="0" style="stop-color:#FFFFFF"/>
	<stop  offset="1" style="stop-color:#FFFFFF;stop-opacity:0"/>
</linearGradient>
<polygon style="fill:url(#SVGID_00000003792070925686600410000002435563058686914439_);" points="571.4,67.8 571.4,17 15.4,17 
	15.4,67.8 "/>
<g>
	<g>
		<g>
			<circle id="SVGID_4_" class="st3" cx="137.1" cy="297.2" r="81.1"/>
		</g>
		<g>
			<defs>
				<circle id="SVGID_00000049189160452082476560000007322462581459910294_" cx="137.1" cy="297.2" r="81.1"/>
			</defs>
			<clipPath id="SVGID_00000000933264351171723240000015949176767935955104_">
				<use xlink:href="#SVGID_00000049189160452082476560000007322462581459910294_"  style="overflow:visible;"/>
			</clipPath>
			<g style="clip-path:url(#SVGID_00000000933264351171723240000015949176767935955104_);">
				
					<image style="overflow:visible;enable-background:new    ;" width="703" height="532" xlink:href="28A760B0.png"  transform="matrix(0.3102 0 0 0.3102 42.3148 214.6441)">
				</image>
			</g>
		</g>
		<g>
			<circle id="SVGID_00000129188664422466656940000012027006260160922547_" class="st5" cx="137.1" cy="297.2" r="81.1"/>
		</g>
	</g>
</g>
<g>
	<path class="st0" d="M129.3,394.2c0,1.2-0.5,2-1.2,2.7s-1.7,1-2.9,1c-1.3,0-2.3-0.5-3.2-1.3s-1.2-2.2-1.2-3.7v-0.7
		c0-1,0.2-1.8,0.5-2.7s0.8-1.3,1.5-1.7s1.3-0.7,2.2-0.7c1.2,0,2.2,0.3,2.9,1c0.7,0.7,1.2,1.5,1.3,2.7h-2.2c0-0.7-0.2-1.2-0.5-1.5
		s-0.8-0.5-1.5-0.5c-0.7,0-1.2,0.3-1.5,0.8c-0.3,0.5-0.5,1.3-0.5,2.3v0.8c0,1.2,0.2,1.8,0.5,2.5c0.3,0.7,0.8,0.8,1.7,0.8
		c0.7,0,1.2-0.2,1.5-0.5c0.3-0.3,0.5-0.8,0.5-1.3h2V394.2z"/>
	<path class="st0" d="M132.6,390.7c0.5-0.7,1.2-1,2-1c1.7,0,2.5,1,2.5,2.9v4.9h-2v-4.9c0-0.5-0.2-0.8-0.3-1c-0.2-0.2-0.5-0.3-1-0.3
		c-0.7,0-1,0.2-1.3,0.7v5.4h-2v-10.9h2v4.4H132.6z"/>
	<path class="st0" d="M138.7,388c0-0.3,0.2-0.5,0.3-0.8c0.2-0.3,0.5-0.3,0.8-0.3s0.7,0.2,0.8,0.3c0.2,0.2,0.3,0.5,0.3,0.8
		s-0.2,0.5-0.3,0.8c-0.2,0.3-0.5,0.3-0.8,0.3s-0.7-0.2-0.8-0.3C138.8,388.7,138.7,388.4,138.7,388z M140.8,397.6h-2v-7.7h2V397.6z"
		/>
	<path class="st0" d="M144.7,397.6h-2v-10.9h2V397.6z"/>
	<path class="st0" d="M149.9,397.8c-1.2,0-2-0.3-2.7-1c-0.7-0.7-1-1.7-1-2.7v-0.2c0-0.8,0.2-1.5,0.5-2c0.3-0.7,0.7-1,1.3-1.3
		c0.5-0.3,1.2-0.5,1.8-0.5c1,0,1.8,0.3,2.5,1s0.8,1.7,0.8,2.9v0.8h-4.9c0,0.5,0.3,0.8,0.7,1.2s0.8,0.5,1.3,0.5
		c0.8,0,1.3-0.3,1.8-0.8l1,1.2c-0.3,0.5-0.7,0.8-1.2,1C151.1,397.6,150.6,397.8,149.9,397.8z M149.7,391.4c-0.3,0-0.7,0.2-1,0.3
		c-0.3,0.3-0.3,0.7-0.5,1.2h2.9v-0.2c0-0.5-0.2-0.8-0.3-1S150.1,391.4,149.7,391.4z"/>
	<path class="st0" d="M76.2,411h-2v4h-1.8v-10.2h3.7c1.2,0,2.2,0.3,2.7,0.8s1,1.3,1,2.3c0,0.7-0.2,1.3-0.5,1.7s-0.8,0.8-1.3,1
		l2.3,4.4v0.2h-1.8L76.2,411z M74.2,409.7h1.8c0.7,0,1-0.2,1.3-0.5c0.3-0.3,0.5-0.7,0.5-1.2c0-0.5-0.2-1-0.5-1.3
		c-0.3-0.3-0.8-0.5-1.3-0.5h-1.8V409.7z"/>
	<path class="st0" d="M84.6,415.2c-1,0-2-0.3-2.7-1s-1-1.7-1-2.7v-0.2c0-0.8,0.2-1.5,0.5-2c0.3-0.7,0.7-1,1.2-1.3
		c0.5-0.3,1.2-0.5,1.8-0.5c1,0,1.8,0.3,2.3,1s0.8,1.7,0.8,2.9v0.7h-5c0,0.7,0.3,1.2,0.7,1.5c0.3,0.3,0.8,0.5,1.3,0.5
		c0.8,0,1.5-0.3,1.8-1l1,0.8c-0.3,0.5-0.7,0.8-1.2,1C86,415.1,85.3,415.2,84.6,415.2z M84.4,408.7c-0.5,0-0.8,0.2-1.2,0.5
		c-0.3,0.3-0.5,0.8-0.5,1.3h3.4v-0.2c0-0.5-0.2-1-0.5-1.3S84.9,408.7,84.4,408.7z"/>
	<path class="st0" d="M88.8,411.2c0-1.2,0.3-2.2,0.8-2.9c0.5-0.7,1.3-1,2.2-1s1.5,0.3,2,0.8v-0.8h1.5v7.4c0,1-0.3,1.8-1,2.3
		c-0.7,0.5-1.5,0.8-2.5,0.8c-0.5,0-1.2-0.2-1.7-0.3s-1-0.5-1.2-0.8l0.8-1c0.5,0.7,1.2,1,2,1c0.5,0,1-0.2,1.3-0.5
		c0.3-0.3,0.5-0.8,0.5-1.3v-0.5c-0.5,0.5-1.2,0.8-2,0.8s-1.7-0.3-2.2-1S88.8,412.4,88.8,411.2z M90.5,411.4c0,0.8,0.2,1.3,0.5,1.8
		c0.3,0.5,0.7,0.7,1.3,0.7c0.7,0,1.2-0.3,1.5-0.8v-3.4c-0.3-0.5-0.8-0.8-1.5-0.8c-0.5,0-1,0.2-1.3,0.7
		C90.7,409.7,90.5,410.4,90.5,411.4z"/>
	<path class="st0" d="M97.4,405.3c0-0.3,0-0.5,0.3-0.7c0.2-0.2,0.3-0.3,0.7-0.3s0.5,0.2,0.7,0.3c0.2,0.2,0.3,0.3,0.3,0.7
		c0,0.3-0.2,0.5-0.3,0.7c-0.2,0.2-0.3,0.3-0.7,0.3s-0.5-0.2-0.7-0.3C97.4,405.8,97.4,405.7,97.4,405.3z M99.2,415.1h-1.7v-7.7h1.7
		V415.1z"/>
	<path class="st0" d="M100.7,411.2c0-0.7,0.2-1.5,0.5-2c0.3-0.7,0.7-1,1.2-1.3c0.5-0.3,1.2-0.5,1.8-0.5c1,0,1.8,0.3,2.5,1
		c0.7,0.7,1,1.5,1,2.7v0.3c0,0.8-0.2,1.5-0.5,2s-0.7,1-1.2,1.3s-1.2,0.5-1.8,0.5c-1,0-2-0.3-2.5-1
		C101.1,413.4,100.7,412.4,100.7,411.2L100.7,411.2z M102.4,411.2c0,0.8,0.2,1.3,0.5,1.8s0.8,0.7,1.3,0.7s1-0.2,1.3-0.7
		c0.3-0.5,0.5-1.2,0.5-2s-0.2-1.3-0.5-1.8c-0.3-0.5-0.8-0.7-1.3-0.7s-1,0.2-1.3,0.7S102.4,410.4,102.4,411.2z M104.8,404.1h2l-2,2.2
		h-1.3L104.8,404.1z"/>
	<path class="st0" d="M111,407.3v0.8c0.5-0.7,1.3-1,2.2-1c1.7,0,2.3,0.8,2.5,2.7v5H114v-5c0-0.5-0.2-0.8-0.3-1
		c-0.2-0.2-0.5-0.3-1-0.3c-0.7,0-1.2,0.3-1.5,1v5.4h-1.7v-7.7h1.5V407.3z"/>
	<path class="st0" d="M120.7,411.2c0-1.2,0.3-2.2,0.8-2.9c0.5-0.7,1.3-1,2.2-1c0.8,0,1.5,0.3,2,0.8v-3.9h1.7v10.9h-1.5l-0.2-0.8
		c-0.5,0.7-1.2,1-2,1c-0.8,0-1.7-0.3-2.2-1C120.9,413.4,120.7,412.4,120.7,411.2z M122.4,411.4c0,0.8,0.2,1.3,0.5,1.8
		c0.3,0.5,0.7,0.7,1.3,0.7c0.7,0,1.2-0.3,1.5-1v-3.2c-0.3-0.7-0.8-0.8-1.5-0.8c-0.5,0-1,0.2-1.3,0.7
		C122.5,410,122.4,410.4,122.4,411.4z"/>
	<path class="st0" d="M132.4,415.2c-1,0-2-0.3-2.7-1c-0.7-0.7-1-1.7-1-2.7v-0.2c0-0.8,0.2-1.5,0.5-2c0.3-0.7,0.7-1,1.2-1.3
		c0.5-0.3,1.2-0.5,1.8-0.5c1,0,1.8,0.3,2.3,1s0.8,1.7,0.8,2.9v0.7h-5c0,0.7,0.3,1.2,0.7,1.5c0.3,0.3,0.8,0.5,1.3,0.5
		c0.8,0,1.5-0.3,1.8-1l1,0.8c-0.3,0.5-0.7,0.8-1.2,1C133.8,415.1,133.1,415.2,132.4,415.2z M132.3,408.7c-0.5,0-0.8,0.2-1.2,0.5
		s-0.5,0.8-0.5,1.3h3.4v-0.2c0-0.5-0.2-1-0.5-1.3S132.8,408.7,132.3,408.7z"/>
	<path class="st0" d="M142.3,415.1h-1.7v-10.9h1.7V415.1z"/>
	<path class="st0" d="M143.9,411.2c0-0.7,0.2-1.5,0.5-2c0.3-0.7,0.7-1,1.2-1.3c0.5-0.3,1.2-0.5,1.8-0.5c1,0,1.8,0.3,2.5,1
		c0.7,0.7,1,1.5,1,2.7v0.3c0,0.8-0.2,1.5-0.5,2s-0.7,1-1.2,1.3s-1.2,0.5-1.8,0.5c-1,0-2-0.3-2.5-1
		C144.2,413.4,143.9,412.4,143.9,411.2L143.9,411.2z M145.7,411.2c0,0.8,0.2,1.3,0.5,1.8s0.8,0.7,1.3,0.7s1-0.2,1.3-0.7
		c0.3-0.5,0.5-1.2,0.5-2s-0.2-1.3-0.5-1.8c-0.3-0.5-0.8-0.7-1.3-0.7s-1,0.2-1.3,0.7S145.7,410.4,145.7,411.2z"/>
	<path class="st0" d="M156.8,412.9c0-0.3-0.2-0.5-0.3-0.7c-0.2-0.2-0.7-0.3-1.2-0.5c-0.5-0.2-1-0.3-1.5-0.5c-0.8-0.3-1.3-1-1.3-1.8
		c0-0.7,0.3-1.2,0.8-1.7c0.5-0.5,1.3-0.7,2.2-0.7s1.7,0.2,2.2,0.7c0.5,0.5,0.8,1,0.8,1.8h-1.7c0-0.3-0.2-0.7-0.3-0.8
		c-0.2-0.2-0.5-0.3-1-0.3c-0.3,0-0.7,0.2-1,0.3c-0.2,0.2-0.3,0.3-0.3,0.7c0,0.3,0.2,0.5,0.3,0.7c0.2,0.2,0.7,0.3,1.3,0.5
		c0.7,0.2,1.2,0.3,1.5,0.5c0.3,0.2,0.7,0.5,0.8,0.7s0.3,0.7,0.3,1c0,0.7-0.3,1.2-0.8,1.7c-0.5,0.5-1.3,0.7-2.2,0.7
		c-0.7,0-1.2-0.2-1.7-0.3s-0.8-0.5-1.2-1s-0.3-0.8-0.3-1.3h1.7c0,0.3,0.2,0.7,0.5,1s0.7,0.3,1.2,0.3s0.8-0.2,1-0.3
		S156.8,413.2,156.8,412.9z"/>
	<path class="st0" d="M165.5,413.5h4.7v1.5h-6.5v-10.2h1.8L165.5,413.5L165.5,413.5z"/>
	<path class="st0" d="M176.1,415.1c0-0.2-0.2-0.3-0.2-0.7c-0.5,0.5-1.2,0.8-2,0.8s-1.3-0.2-1.8-0.7c-0.5-0.5-0.7-1-0.7-1.7
		c0-0.8,0.3-1.5,0.8-1.8c0.7-0.5,1.5-0.7,2.7-0.7h1v-0.5c0-0.3-0.2-0.7-0.3-1c-0.2-0.2-0.5-0.3-1-0.3c-0.3,0-0.7,0.2-1,0.3
		c-0.2,0.2-0.3,0.5-0.3,0.7h-1.7c0-0.5,0.2-0.8,0.3-1.2s0.7-0.7,1.2-0.8s1-0.3,1.7-0.3c0.8,0,1.7,0.2,2.2,0.7s0.8,1,0.8,1.8v3.5
		c0,0.7,0.2,1.2,0.3,1.7v0.2H176.1z M174.1,413.7c0.3,0,0.7,0,1-0.2c0.3-0.2,0.5-0.3,0.7-0.7v-1.5h-1c-0.7,0-1.2,0.2-1.5,0.3
		s-0.5,0.5-0.5,1c0,0.3,0.2,0.7,0.3,0.8C173.6,413.7,173.7,413.7,174.1,413.7z"/>
	<path class="st0" d="M178.9,411.2c0-1.2,0.3-2.2,0.8-2.9c0.5-0.7,1.3-1,2.2-1s1.5,0.3,2,0.8v-0.8h1.5v7.4c0,1-0.3,1.8-1,2.3
		c-0.7,0.5-1.5,0.8-2.5,0.8c-0.5,0-1.2-0.2-1.7-0.3s-1-0.5-1.2-0.8l0.8-1c0.5,0.7,1.2,1,2,1c0.5,0,1-0.2,1.3-0.5
		c0.3-0.3,0.5-0.8,0.5-1.3v-0.5c-0.5,0.5-1.2,0.8-2,0.8s-1.7-0.3-2.2-1S178.9,412.4,178.9,411.2z M180.8,411.4
		c0,0.8,0.2,1.3,0.5,1.8c0.3,0.5,0.7,0.7,1.3,0.7c0.7,0,1.2-0.3,1.5-0.8v-3.4c-0.3-0.5-0.8-0.8-1.5-0.8c-0.5,0-1,0.2-1.3,0.7
		C180.9,409.7,180.8,410.4,180.8,411.4z"/>
	<path class="st0" d="M187.2,411.2c0-0.7,0.2-1.5,0.5-2c0.3-0.7,0.7-1,1.2-1.3c0.5-0.3,1.2-0.5,1.8-0.5c1,0,1.8,0.3,2.5,1
		c0.7,0.7,1,1.5,1,2.7v0.3c0,0.8-0.2,1.5-0.5,2s-0.7,1-1.2,1.3s-1.2,0.5-1.8,0.5c-1,0-2-0.3-2.5-1
		C187.5,413.4,187.2,412.4,187.2,411.2L187.2,411.2z M189,411.2c0,0.8,0.2,1.3,0.5,1.8s0.8,0.7,1.3,0.7s1-0.2,1.3-0.7
		c0.3-0.5,0.5-1.2,0.5-2s-0.2-1.3-0.5-1.8c-0.3-0.5-0.8-0.7-1.3-0.7s-1,0.2-1.3,0.7S189,410.4,189,411.2z"/>
	<path class="st0" d="M200.1,412.9c0-0.3-0.2-0.5-0.3-0.7c-0.2-0.2-0.7-0.3-1.2-0.5c-0.5-0.2-1-0.3-1.5-0.5c-0.8-0.3-1.3-1-1.3-1.8
		c0-0.7,0.3-1.2,0.8-1.7c0.5-0.5,1.3-0.7,2.2-0.7s1.7,0.2,2.2,0.7c0.5,0.5,0.8,1,0.8,1.8h-1.7c0-0.3-0.2-0.7-0.3-0.8s-0.5-0.3-1-0.3
		c-0.3,0-0.7,0.2-1,0.3c-0.2,0.2-0.3,0.3-0.3,0.7c0,0.3,0.2,0.5,0.3,0.7c0.2,0.2,0.7,0.3,1.3,0.5c0.7,0.2,1.2,0.3,1.5,0.5
		c0.3,0.2,0.7,0.5,0.8,0.7s0.3,0.7,0.3,1c0,0.7-0.3,1.2-0.8,1.7c-0.5,0.5-1.3,0.7-2.2,0.7c-0.7,0-1.2-0.2-1.7-0.3s-0.8-0.5-1.2-1
		s-0.3-0.8-0.3-1.3h1.7c0,0.3,0.2,0.7,0.5,1s0.7,0.3,1.2,0.3s0.8-0.2,1-0.3S200.1,413.2,200.1,412.9z"/>
</g>
</svg>
